<svg width="145" height="34" viewBox="0 0 145 34" fill="none" xmlns="http://www.w3.org/2000/svg">
<path d="M44.0161 32.7685C44.2747 32.5746 44.4524 32.316 44.5494 31.9444L45.2281 32.0898C45.115 32.5907 44.8564 32.9947 44.4686 33.2694C44.0808 33.5441 43.6283 33.7057 43.1112 33.7057C42.481 33.7057 41.9478 33.4795 41.4953 33.0432C41.059 32.6069 40.8328 32.0736 40.8328 31.4273C40.8328 30.797 41.059 30.2638 41.4953 29.8113C41.9316 29.375 42.4648 29.1488 43.1112 29.1488C43.6283 29.1488 44.0808 29.2942 44.4686 29.5689C44.8564 29.8437 45.115 30.2315 45.2281 30.7001L44.5494 30.894C44.4524 30.5385 44.2747 30.2638 44.0161 30.0699C43.7576 29.876 43.4506 29.7952 43.1112 29.7952C42.6749 29.7952 42.3033 29.9568 41.9962 30.2638C41.6892 30.5708 41.5438 30.9586 41.5438 31.4111C41.5438 31.8636 41.6892 32.2514 41.9962 32.5584C42.3033 32.8654 42.6749 33.027 43.1112 33.027C43.4506 33.0432 43.7576 32.9462 44.0161 32.7685Z" fill="white"/>
<path d="M49.5588 33.6087L49.1225 32.5907H47.0056L46.5693 33.6087H45.8098L47.7328 29.2457H48.3791L50.3021 33.6087H49.5588ZM48.0721 30.1022L47.2803 31.9605H48.8478L48.0721 30.1022Z" fill="white"/>
<path d="M54.1317 33.6087L52.5804 31.8635H51.9502V33.6087H51.2554V29.2457H53.3076C53.7601 29.2457 54.1156 29.3588 54.3903 29.6012C54.665 29.8436 54.8104 30.1668 54.8104 30.5546C54.8104 30.9263 54.6811 31.2333 54.4387 31.4757C54.1964 31.7181 53.857 31.8474 53.4369 31.8635L55.0043 33.6087H54.1317ZM53.3076 31.2495C53.55 31.2495 53.7439 31.1848 53.8893 31.0717C54.0348 30.9425 54.1156 30.7809 54.1156 30.5869C54.1156 30.3769 54.0348 30.2153 53.8893 30.086C53.7439 29.9567 53.55 29.8921 53.3076 29.8921H51.9502V31.2495H53.3076Z" fill="white"/>
<path d="M57.687 29.8922V33.625H56.9922V29.8922H55.457V29.262H59.2221V29.8922H57.687Z" fill="white"/>
<path d="M63.1325 33.6087L62.6961 32.5907H60.5954L60.1591 33.6087H59.3997L61.3226 29.2457H61.969L63.8919 33.6087H63.1325ZM61.6458 30.1022L60.854 31.9605H62.4214L61.6458 30.1022Z" fill="white"/>
<path d="M67.4144 29.4881C67.7214 29.7143 67.8992 30.0052 67.98 30.393L67.2851 30.5385C67.2528 30.3122 67.1397 30.1183 66.9458 29.9891C66.768 29.8436 66.5418 29.779 66.2832 29.779C66.0247 29.779 65.8146 29.8436 65.6692 29.9567C65.5076 30.086 65.4268 30.2476 65.4268 30.4415C65.4268 30.5869 65.4753 30.7162 65.5561 30.797C65.653 30.8778 65.7823 30.9424 65.9762 30.9909L66.9135 31.1848C67.6568 31.3464 68.0284 31.7504 68.0284 32.3806C68.0284 32.7846 67.883 33.1078 67.576 33.3502C67.269 33.5926 66.865 33.7057 66.364 33.7057C65.8793 33.7057 65.4753 33.5926 65.1359 33.3663C64.7966 33.1401 64.6027 32.8169 64.5542 32.4129L65.2975 32.2514C65.346 32.5261 65.4753 32.7361 65.6692 32.8654C65.8631 33.0108 66.1216 33.0755 66.4125 33.0755C66.7034 33.0755 66.9296 33.0108 67.0912 32.8977C67.2528 32.7684 67.3336 32.6069 67.3336 32.4129C67.3336 32.2514 67.2851 32.1221 67.1882 32.0413C67.0912 31.9605 66.9296 31.8797 66.7195 31.8474L65.7661 31.6535C65.039 31.4919 64.6673 31.0879 64.6673 30.4738C64.6673 30.086 64.8127 29.779 65.1036 29.5366C65.3945 29.2942 65.7823 29.1811 66.2671 29.1811C66.7357 29.1649 67.1074 29.278 67.4144 29.4881Z" fill="white"/>
<path d="M74.2823 32.7685C74.5408 32.5746 74.7186 32.316 74.8155 31.9444L75.4942 32.0898C75.3811 32.5907 75.1225 32.9947 74.7347 33.2694C74.3469 33.5441 73.8944 33.7057 73.3773 33.7057C72.7471 33.7057 72.2139 33.4795 71.7614 33.0432C71.3251 32.6069 71.0989 32.0736 71.0989 31.4273C71.0989 30.797 71.3251 30.2638 71.7614 29.8113C72.1977 29.375 72.731 29.1488 73.3773 29.1488C73.8944 29.1488 74.3469 29.2942 74.7347 29.5689C75.1225 29.8437 75.3811 30.2315 75.4942 30.7001L74.8155 30.894C74.7186 30.5385 74.5408 30.2638 74.2823 30.0699C74.0237 29.876 73.7167 29.7952 73.3773 29.7952C72.941 29.7952 72.5694 29.9568 72.2623 30.2638C71.9553 30.5708 71.8099 30.9586 71.8099 31.4111C71.8099 31.8636 71.9553 32.2514 72.2623 32.5584C72.5694 32.8654 72.941 33.027 73.3773 33.027C73.7167 33.0432 74.0237 32.9462 74.2823 32.7685Z" fill="white"/>
<path d="M80.3905 29.8274C80.8268 30.2637 81.053 30.8132 81.053 31.4434C81.053 32.0736 80.8268 32.6068 80.3905 33.0431C79.9542 33.4794 79.4048 33.7057 78.7746 33.7057C78.1443 33.7057 77.5949 33.4794 77.1586 33.0431C76.7223 32.6068 76.4961 32.0736 76.4961 31.4434C76.4961 30.8132 76.7223 30.2637 77.1586 29.8274C77.5949 29.3911 78.1282 29.1649 78.7746 29.1649C79.4209 29.1649 79.938 29.375 80.3905 29.8274ZM79.8895 32.5907C80.1966 32.2837 80.342 31.8958 80.342 31.4434C80.342 30.9909 80.1966 30.6031 79.8895 30.2961C79.5825 29.989 79.2109 29.8274 78.7746 29.8274C78.3383 29.8274 77.9666 29.989 77.6596 30.2961C77.3525 30.6031 77.2071 30.9909 77.2071 31.4434C77.2071 31.8958 77.3525 32.2837 77.6596 32.5907C77.9666 32.8977 78.3383 33.0593 78.7746 33.0593C79.2109 33.0431 79.5825 32.8977 79.8895 32.5907Z" fill="white"/>
<path d="M86.1755 33.6087H85.5776L82.9436 30.4738V33.6087H82.2488V29.2457H82.8467L85.4806 32.4291V29.2457H86.1755V33.6087Z" fill="white"/>
<path d="M89.4719 29.8922V33.625H88.7771V29.8922H87.2419V29.262H91.0071V29.8922H89.4719Z" fill="white"/>
<path d="M95.3059 33.6087H92.0579V29.2457H95.3059V29.8759H92.7527V31.104H95.0958V31.7343H92.7527V32.9785H95.3059V33.6087Z" fill="white"/>
<path d="M101.365 33.6087H100.687V30.8293L99.184 33.6087H98.7477L97.2449 30.8293V33.6087H96.5662V29.2457H97.1802L98.9577 32.5422L100.735 29.2457H101.333V33.6087H101.365Z" fill="white"/>
<path d="M104.743 29.2457C105.227 29.2457 105.599 29.375 105.89 29.6336C106.181 29.8921 106.31 30.2314 106.31 30.6516C106.31 31.0717 106.165 31.4272 105.89 31.6858C105.615 31.9443 105.227 32.0736 104.743 32.0736H103.466V33.6087H102.771V29.2457H104.743ZM104.743 31.4434C105.017 31.4434 105.227 31.3788 105.373 31.2333C105.534 31.0879 105.599 30.9101 105.599 30.6677C105.599 30.4415 105.518 30.2476 105.373 30.1022C105.211 29.9567 105.001 29.8921 104.743 29.8921H103.466V31.4434H104.743Z" fill="white"/>
<path d="M110.527 33.6087H107.457V29.2457H108.152V32.9785H110.527V33.6087Z" fill="white"/>
<path d="M114.939 33.6087L114.503 32.5907H112.386L111.949 33.6087H111.19L113.113 29.2457H113.759L115.682 33.6087H114.939ZM113.436 30.1022L112.644 31.9605H114.212L113.436 30.1022Z" fill="white"/>
<path d="M118.155 29.2457C118.882 29.2457 119.48 29.4558 119.916 29.8598C120.352 30.2638 120.562 30.797 120.562 31.4272C120.562 32.0574 120.352 32.5907 119.916 32.9947C119.48 33.3987 118.898 33.6087 118.155 33.6087H116.636V29.2457H118.155ZM118.155 32.9785C118.672 32.9785 119.092 32.8331 119.399 32.5422C119.706 32.2514 119.868 31.8797 119.868 31.4272C119.868 30.9748 119.706 30.5869 119.399 30.3122C119.092 30.0214 118.672 29.8759 118.155 29.8759H117.314V32.9785H118.155Z" fill="white"/>
<path d="M124.893 33.6087L124.457 32.5907H122.34L121.904 33.6087H121.144L123.067 29.2457H123.713L125.636 33.6087H124.893ZM123.406 30.1022L122.615 31.9605H124.182L123.406 30.1022Z" fill="white"/>
<path d="M129.176 29.4881C129.483 29.7143 129.66 30.0052 129.741 30.393L129.046 30.5385C129.014 30.3122 128.901 30.1183 128.707 29.9891C128.529 29.8436 128.303 29.779 128.044 29.779C127.786 29.779 127.576 29.8436 127.43 29.9567C127.285 30.0698 127.188 30.2476 127.188 30.4415C127.188 30.5869 127.237 30.7162 127.317 30.797C127.414 30.8778 127.544 30.9424 127.737 30.9909L128.675 31.1848C129.418 31.3464 129.79 31.7504 129.79 32.3806C129.79 32.7846 129.644 33.1078 129.337 33.3502C129.03 33.5926 128.626 33.7057 128.125 33.7057C127.64 33.7057 127.237 33.5926 126.897 33.3663C126.558 33.1401 126.364 32.8169 126.315 32.4129L127.059 32.2514C127.107 32.5261 127.237 32.7361 127.43 32.8654C127.624 33.0108 127.883 33.0755 128.174 33.0755C128.465 33.0755 128.691 33.0108 128.852 32.8977C129.014 32.7684 129.095 32.6069 129.095 32.4129C129.095 32.2514 129.046 32.1221 128.949 32.0413C128.852 31.9605 128.691 31.8797 128.481 31.8474L127.527 31.6535C126.8 31.4919 126.429 31.0879 126.429 30.4738C126.429 30.086 126.574 29.779 126.865 29.5366C127.156 29.2942 127.544 29.1811 128.028 29.1811C128.497 29.1649 128.869 29.278 129.176 29.4881Z" fill="white"/>
<path d="M18.6463 20.8759C18.7271 19.6963 18.3069 18.8399 17.5151 18.0157C17.0465 17.531 16.384 17.0947 17.1596 16.3352C17.9029 15.608 18.3554 16.1413 18.8725 16.6422C21.458 19.2438 24.0596 21.8455 26.6613 24.431C28.8104 26.564 31.4929 26.7256 33.3674 24.8673C35.2903 22.9605 35.2095 20.375 33.028 18.1935C32.1231 17.3047 32.0746 16.7715 33.0119 15.8504C35.1934 13.7012 35.2903 11.0511 33.3835 9.17661C31.4767 7.28598 28.8266 7.43141 26.6774 9.56444C24.9645 11.2773 23.2678 12.9902 21.5711 14.7031C21.0702 15.204 20.6339 15.7858 19.8905 14.994C19.1634 14.2345 19.7289 13.782 20.2299 13.2811C22.0559 11.4551 23.9142 9.66139 25.6917 7.80307C27.4692 5.94476 27.4207 3.21384 25.6594 1.46864C23.9627 -0.211928 21.2156 -0.341202 19.4865 1.46864C18.2261 2.7937 17.4828 2.74522 16.2385 1.45248C14.4933 -0.357361 11.7786 -0.211928 10.0657 1.4848C8.30432 3.23 8.27201 5.94476 10.0495 7.81923C11.6008 9.43516 13.2167 10.9865 14.7842 12.5701C15.2528 13.0548 15.6406 13.4588 16.3355 12.7963C17.0142 12.1338 16.6425 11.7459 16.1577 11.2612C14.6872 9.80682 13.2167 8.35249 11.7786 6.86584C10.3727 5.42766 10.2596 3.92485 11.4069 2.80986C12.5219 1.72719 13.9762 1.87262 15.3659 3.18152C17.8545 5.52462 17.8545 5.52462 20.4076 3.11688C21.7488 1.8403 23.284 1.74334 24.3666 2.87449C25.417 3.95717 25.3524 5.44382 24.1243 6.68808C21.4741 9.38668 18.7432 12.0206 16.1093 14.7354C15.3659 15.511 14.8811 15.4464 14.154 14.7031C12.3765 12.8286 10.5505 11.0026 8.67599 9.22509C6.75303 7.39909 4.10291 7.43141 2.34155 9.19277C0.564031 10.9703 0.450916 13.6689 2.35771 15.4949C3.65045 16.7068 3.60197 17.4017 2.35771 18.6136C0.450916 20.4396 0.564031 23.1544 2.35771 24.8996C4.10291 26.6125 6.83383 26.5963 8.69215 24.8188C10.2758 23.316 11.7786 21.7324 13.3299 20.1972C13.8146 19.7125 14.4125 19.3085 13.5884 18.5328C12.7481 17.741 12.3765 18.4682 11.924 18.9207C10.3727 20.4558 8.85374 22.0232 7.27013 23.5261C6.34905 24.3987 5.25022 24.5926 4.11907 23.8654C3.06872 23.1867 2.79401 22.1848 3.0364 21.0052C3.18183 20.2942 3.71509 19.8256 4.19987 19.3408C6.6884 16.7876 6.88231 17.4178 4.15139 14.6546C2.76169 13.2487 2.58394 11.6975 3.65045 10.5825C4.74928 9.45132 6.33289 9.59675 7.72259 10.9703C10.4535 13.685 13.1359 16.4321 15.8992 19.1146L18.6463 20.8759ZM31.9453 23.5907C30.9273 24.5279 29.683 24.6249 28.6812 23.6876C26.5805 21.7485 24.609 19.664 22.573 17.6441C22.1205 17.1916 22.1851 16.7715 22.6376 16.3352C24.6252 14.3637 26.5805 12.3438 28.6165 10.4047C29.376 9.67755 30.3941 9.64523 31.3475 10.0654C32.3332 10.5017 32.7695 11.342 32.7695 12.5539C32.8341 13.8305 31.703 14.4769 30.8788 15.3333C29.2306 17.0462 29.2144 17.03 30.8627 18.6783C31.3475 19.163 31.8807 19.6155 32.2685 20.1811C33.0603 21.3607 33.0119 22.5888 31.9453 23.5907Z" fill="white"/>
<path d="M15.9156 19.1139C18.5657 21.8287 21.4582 24.7212 24.1245 27.4198C25.3688 28.6802 25.4172 30.1669 24.3669 31.2334C23.2842 32.3484 21.7491 32.2676 20.4079 30.991C17.8547 28.5671 17.8547 28.5671 15.3662 30.9264C13.9765 32.2514 12.5221 32.3807 11.4072 31.298C10.2437 30.183 10.373 28.6802 11.7788 27.242C13.217 25.7554 14.6875 24.301 16.158 22.8467C16.6428 22.3619 17.0144 21.9741 16.3357 21.3116C15.657 20.6491 15.2531 21.053 14.7844 21.5378C13.217 23.1214 11.5849 24.6727 10.0498 26.2886C8.27226 28.147 8.30457 30.8779 10.0659 32.6231C11.7788 34.3198 14.4936 34.4652 16.2388 32.6554C17.483 31.3627 18.2264 31.3142 19.4868 32.6392C21.2158 34.4491 23.9629 34.3198 25.6596 32.6392C27.421 30.894 27.4695 28.1631 25.692 26.3048C23.9144 24.4465 19.503 19.9865 17.677 18.1605" fill="white"/>
<path d="M59.3359 8.19015L59.6752 4.68359H59.5136L58.237 7.88313L52.145 18.4513H51.3047L44.8572 7.85081L43.6452 4.66743H43.4836L43.9522 8.14167V23.897H41.3506V0.498337H43.419L50.7391 12.4724L51.838 15.074H51.9026L52.9368 12.3916L59.9338 0.482178H62.1153V23.897H59.3359V8.19015Z" fill="white"/>
<path d="M81.2313 0.498413H83.9138V16.1083C83.9138 17.5141 83.736 18.7261 83.3644 19.7603C82.9927 20.7783 82.4756 21.6347 81.7969 22.2811C81.1182 22.9436 80.2941 23.4284 79.3407 23.7355C78.3873 24.0425 77.3208 24.2041 76.1573 24.2041C73.3941 24.2041 71.3095 23.5739 69.9037 22.3296C68.4978 21.0853 67.803 19.1785 67.803 16.6415V0.498413H70.5824V15.3488C70.5824 16.5284 70.6955 17.5303 70.9379 18.3383C71.1641 19.1462 71.5196 19.8087 71.9882 20.3097C72.4568 20.8106 73.0386 21.1661 73.7496 21.3924C74.4444 21.6186 75.2686 21.7317 76.2058 21.7317C78.0156 21.7317 79.3084 21.2308 80.084 20.245C80.8597 19.2593 81.2475 17.6272 81.2475 15.3488V0.498413H81.2313Z" fill="white"/>
<path d="M93.8196 8.59417L92.0097 5.21688H91.8805L92.2198 8.59417V23.9132H89.6182V0.126709H91.0887L102.287 15.7366L104.032 18.9523H104.194L103.822 15.7366V0.498372H106.424V24.2687H104.953L93.8196 8.59417Z" fill="white"/>
<path d="M123.214 17.4171H114.633L112.306 23.897H109.527L118.398 0.126709H119.675L128.562 23.897H125.621L123.214 17.4171ZM115.538 15.0094H122.389L119.788 7.88316L118.964 4.34428H118.931L118.107 7.96396L115.538 15.0094Z" fill="white"/>
<path d="M134.541 14.6055L126.817 0.498413H130.065L135.543 10.7272L136.125 12.7633H136.157L136.771 10.6626L142.039 0.498413H144.98L137.321 14.5731V23.897H134.541V14.6055Z" fill="white"/>
</svg>
