<svg width="230" height="172" viewBox="0 0 230 172" fill="none" xmlns="http://www.w3.org/2000/svg">
<path d="M229.922 150.364H0.523071V150.478H229.922V150.364Z" fill="#EBEBEB"/>
<path d="M206.936 157.746H191.741V157.861H206.936V157.746Z" fill="#EBEBEB"/>
<path d="M152.486 158.994H148.499V159.108H152.486V158.994Z" fill="#EBEBEB"/>
<path d="M191.282 153.488H182.478V153.603H191.282V153.488Z" fill="#EBEBEB"/>
<path d="M44.4071 154.259H24.5916V154.373H44.4071V154.259Z" fill="#EBEBEB"/>
<path d="M51.3992 154.259H48.495V154.373H51.3992V154.259Z" fill="#EBEBEB"/>
<path d="M103.821 156.195H60.8412V156.31H103.821V156.195Z" fill="#EBEBEB"/>
<path d="M109.258 129.901H20.6689C19.9749 129.9 19.3097 129.624 18.8194 129.132C18.3291 128.641 18.0537 127.976 18.0537 127.282V2.75011C18.0598 2.06009 18.3378 1.40032 18.8274 0.914107C19.3171 0.427891 19.9788 0.154502 20.6689 0.15332H109.258C109.953 0.15332 110.619 0.429327 111.111 0.920623C111.602 1.41192 111.878 2.07826 111.878 2.77305V127.282C111.878 127.976 111.602 128.643 111.111 129.134C110.619 129.625 109.953 129.901 109.258 129.901ZM20.6689 0.24508C20.0053 0.246296 19.3693 0.510754 18.9005 0.980407C18.4317 1.45006 18.1684 2.08653 18.1684 2.75011V127.282C18.1684 127.945 18.4317 128.582 18.9005 129.051C19.3693 129.521 20.0053 129.785 20.6689 129.787H109.258C109.922 129.785 110.559 129.521 111.028 129.052C111.498 128.582 111.762 127.946 111.763 127.282V2.75011C111.762 2.08611 111.498 1.44965 111.028 0.980127C110.559 0.510605 109.922 0.246293 109.258 0.24508H20.6689Z" fill="#EBEBEB"/>
<path d="M208.501 129.901H119.907C119.212 129.9 118.547 129.624 118.056 129.133C117.565 128.642 117.288 127.976 117.287 127.282V2.75011C117.294 2.05968 117.573 1.39991 118.064 0.91382C118.554 0.427731 119.216 0.154489 119.907 0.15332H208.501C209.19 0.155708 209.85 0.429631 210.339 0.915717C210.828 1.4018 211.105 2.06089 211.111 2.75011V127.282C211.111 127.975 210.836 128.64 210.347 129.131C209.858 129.622 209.194 129.899 208.501 129.901ZM119.907 0.24508C119.243 0.246293 118.606 0.510605 118.137 0.980127C117.667 1.44965 117.403 2.08611 117.402 2.75011V127.282C117.403 127.946 117.667 128.582 118.137 129.052C118.606 129.521 119.243 129.785 119.907 129.787H208.501C209.165 129.785 209.801 129.521 210.271 129.052C210.74 128.582 211.004 127.946 211.006 127.282V2.75011C211.004 2.08611 210.74 1.44965 210.271 0.980127C209.801 0.510605 209.165 0.246293 208.501 0.24508H119.907Z" fill="#EBEBEB"/>
<path d="M199.958 7.93921H58.3087V73.2032H199.958V7.93921Z" fill="#E6E6E6"/>
<path d="M203.908 7.93921H59.2263V73.2032H203.908V7.93921Z" fill="#F0F0F0"/>
<path d="M199.958 73.2031H58.3087V74.9695H201.802L199.958 73.2031Z" fill="#E6E6E6"/>
<path d="M205.748 73.2031H62.4883L63.3371 74.9695H206.601L205.748 73.2031Z" fill="#F0F0F0"/>
<path d="M201.105 70.2485V10.9031L62.0295 10.9031V70.2485H201.105Z" fill="#FAFAFA"/>
<path d="M83.1205 70.2437L102.872 10.8982H121.737L101.982 70.2437H83.1205Z" fill="white"/>
<path d="M106.037 70.2437L125.789 10.8982H133.143L113.387 70.2437H106.037Z" fill="white"/>
<path d="M201.105 70.2485V10.9031H200.357V70.2485H201.105Z" fill="#E6E6E6"/>
<path d="M31.7213 150.364H39.3649L39.3649 103.025H31.7213L31.7213 150.364Z" fill="#F0F0F0"/>
<path d="M131.946 103.02H39.3649V150.359H131.946V103.02Z" fill="#F5F5F5"/>
<path d="M132.556 125.231H48.1417V145.198H132.556V125.231Z" fill="#FAFAFA"/>
<path d="M132.556 111.526H48.1417V121.891H132.556V111.526Z" fill="#FAFAFA"/>
<g style="mix-blend-mode:multiply" opacity="0.7">
<path d="M47.6187 145.193H48.1417V125.226H47.6187V145.193Z" fill="#E6E6E6"/>
</g>
<g style="mix-blend-mode:multiply" opacity="0.7">
<path d="M47.6187 121.891H48.1417V111.526H47.6187V121.891Z" fill="#E6E6E6"/>
</g>
<g style="mix-blend-mode:multiply" opacity="0.7">
<path d="M31.7167 106.833L132.115 106.833V105.502L31.7167 105.502V106.833Z" fill="#E6E6E6"/>
</g>
<path d="M30.8221 106.067H39.3604V102.217H30.8221V106.067Z" fill="#F0F0F0"/>
<path d="M132.84 102.217H39.3649V106.067H132.84V102.217Z" fill="#F5F5F5"/>
<path d="M178.674 138.467C178.026 136.99 177.522 135.453 177.169 133.879C176.794 132.296 176.51 130.692 176.321 129.075C175.941 125.848 175.847 122.593 176.041 119.349C176.437 112.853 177.73 106.442 179.881 100.3L180.707 98.0056L181.601 95.7483C181.904 95.0005 182.239 94.2618 182.574 93.5277C182.909 92.7937 183.226 92.0458 183.588 91.3255C184.336 89.8895 185.015 88.4259 185.841 87.0404L187.038 84.9391L188.327 82.8974C191.75 77.4566 195.876 72.4922 200.6 68.1333C199.958 69.6152 199.274 71.0513 198.572 72.4689C197.87 73.8866 197.196 75.3181 196.526 76.7358C195.186 79.5757 193.828 82.3744 192.571 85.2052L191.617 87.3248L190.699 89.449C190.075 90.8575 189.506 92.289 188.915 93.7021L188.066 95.8401C187.781 96.5558 187.497 97.2624 187.249 97.9873L186.437 100.134L185.689 102.3C183.677 108.071 182.054 113.971 180.831 119.959C180.22 122.96 179.702 125.992 179.339 129.071C178.933 132.187 178.711 135.325 178.674 138.467Z" fill="#E6E6E6"/>
<path d="M148.55 127.373C149.009 122.083 148.883 116.757 148.173 111.494C148.105 110.857 147.985 110.219 147.88 109.586C147.774 108.953 147.669 108.319 147.545 107.695C147.421 107.072 147.279 106.443 147.141 105.819L146.935 104.901L146.691 103.984C146.068 101.521 145.286 99.1015 144.352 96.7394C142.463 91.9637 140.082 87.3984 137.245 83.1177L136.171 81.4752C135.795 80.943 135.405 80.4108 135.038 79.8648L134.46 79.0665C134.272 78.7958 134.061 78.5435 133.868 78.2728L132.68 76.667C132.304 76.1073 131.863 75.6072 131.459 75.0704C131.056 74.5336 130.633 74.006 130.23 73.4554C129.381 72.3956 128.518 71.3358 127.706 70.1934C132.735 72.6455 137.256 76.023 141.034 80.1493C144.929 84.3156 148.002 89.18 150.091 94.4867C152.188 99.8276 153.176 105.539 152.995 111.274C152.898 114.103 152.495 116.914 151.793 119.656C151.434 121.012 150.993 122.345 150.472 123.648C149.958 124.951 149.314 126.199 148.55 127.373Z" fill="#E6E6E6"/>
<path d="M149.931 127.373C150.018 124.116 150.027 120.927 149.954 117.739C149.88 114.55 149.756 111.426 149.495 108.306C149.045 102.117 148.172 95.9673 146.88 89.8987C146.535 88.3985 146.219 86.8844 145.797 85.4025C145.448 83.9022 144.971 82.4387 144.553 80.9476C143.636 78.0113 142.631 75.0842 141.47 72.2029C139.176 66.4129 136.281 60.8523 133.143 55.1265C135.709 57.1627 138.057 59.4598 140.149 61.9809C142.273 64.5085 144.167 67.22 145.811 70.0833L147.017 72.2534C147.407 72.9829 147.742 73.7399 148.109 74.4877L148.646 75.6072C148.825 75.9834 148.967 76.3734 149.128 76.7542L150.068 79.0482C150.628 80.6081 151.188 82.1772 151.647 83.7692C152.105 85.3612 152.495 86.9808 152.885 88.5866C154.265 95.0581 154.745 101.689 154.312 108.292C154.094 111.567 153.633 114.821 152.936 118.028C152.587 119.624 152.17 121.212 151.679 122.772C151.203 124.344 150.619 125.882 149.931 127.373Z" fill="#E6E6E6"/>
<path d="M177.027 131.287C176.21 129.42 175.463 127.52 174.779 125.612C174.43 124.653 174.105 123.694 173.77 122.735L172.852 119.84C171.627 115.968 170.558 112.04 169.595 108.122C167.69 100.235 166.23 92.2469 165.222 84.1959C164.218 76.13 163.735 68.0077 163.777 59.8796C163.826 57.8486 163.896 55.8146 163.988 53.7776C164.034 51.7497 164.291 49.7172 164.47 47.6893C164.649 45.6614 164.869 43.6427 165.254 41.6332C165.64 39.6237 165.979 37.6233 166.411 35.6367C167.191 43.762 167.787 51.6946 168.604 59.664C169.42 67.6333 170.333 75.5292 171.32 83.448L174.329 107.25C175.325 115.206 176.307 123.171 177.027 131.287Z" fill="#E6E6E6"/>
<path d="M175.687 129.993C174.724 128.208 173.825 126.387 172.985 124.547C172.558 123.629 172.155 122.712 171.742 121.794L170.563 118.982C169.021 115.247 167.626 111.462 166.319 107.64C163.739 99.989 161.573 92.2041 159.831 84.3197C158.081 76.4142 156.82 68.4082 156.056 60.3475C155.896 58.3288 155.757 56.3085 155.638 54.2868C155.487 52.2727 155.523 50.2356 155.487 48.2123C155.45 46.189 155.459 44.1657 155.615 42.1332C155.771 40.1008 155.89 38.0866 156.101 36.0725C157.79 44.0235 159.212 51.8414 160.836 59.6455C162.46 67.4497 164.103 75.2125 165.819 82.9846L170.953 106.337C172.636 114.151 174.316 121.978 175.687 129.993Z" fill="#E6E6E6"/>
<path d="M180.932 140.05C179.766 138.594 178.662 137.1 177.619 135.567C177.091 134.806 176.578 134.03 176.068 133.273L174.582 130.911C173.595 129.337 172.673 127.736 171.746 126.135C171.288 125.336 170.852 124.52 170.407 123.707C169.962 122.895 169.521 122.083 169.095 121.262C165.691 114.69 162.706 107.909 160.157 100.96C157.591 94.0035 155.53 86.8706 153.991 79.617C153.633 77.7818 153.292 75.9574 152.968 74.1436C152.647 72.3084 152.459 70.4732 152.225 68.638L151.926 65.8852C151.839 64.9676 151.807 64.0271 151.766 63.1003C151.674 61.2437 151.633 59.3871 151.642 57.5305C154.133 64.5547 156.23 71.5009 158.652 78.3691C161.075 85.2373 163.396 92.0504 165.929 98.8544L173.49 119.308C176.027 126.153 178.587 132.994 180.932 140.05Z" fill="#E6E6E6"/>
<path d="M173.031 128.516C171.865 127.26 170.764 125.944 169.732 124.575C168.677 123.226 167.714 121.822 166.732 120.418C165.75 119.014 164.855 117.564 163.979 116.101C163.52 115.371 163.112 114.637 162.681 113.899C162.249 113.16 161.813 112.426 161.423 111.669C160.625 110.159 159.799 108.664 159.056 107.127C158.313 105.59 157.592 104.044 156.868 102.497C156.143 100.951 155.546 99.35 154.881 97.7764L154.422 96.5881L153.963 95.386L153.082 92.9819C151.894 89.7703 150.954 86.4899 149.999 83.2095C149.596 81.5487 149.169 79.8924 148.788 78.227C148.609 77.392 148.38 76.5707 148.233 75.7266L147.774 73.2032C147.618 72.3636 147.485 71.5194 147.343 70.6752C147.201 69.831 147.036 69.0006 146.962 68.1426C146.769 66.442 146.598 64.7414 146.448 63.0408C146.389 62.1874 146.283 61.3432 146.26 60.4853C146.237 59.6273 146.21 58.774 146.205 57.9206C146.178 56.2108 146.197 54.501 146.265 52.7913C148.559 59.2741 150.307 65.7064 152.463 72.0332C153.427 75.2448 154.569 78.3509 155.569 81.5166L157.207 86.2238C157.478 87.0084 157.721 87.8021 158.001 88.5821L158.859 90.9219C159.932 94.0647 161.13 97.1616 162.249 100.295C162.841 101.85 163.442 103.397 164.006 104.966L165.787 109.641L169.393 119.023C170.627 122.157 171.843 125.304 173.031 128.516Z" fill="#E6E6E6"/>
<path d="M179.344 135.893C178.422 134.637 177.633 133.289 176.99 131.87C176.328 130.453 175.757 128.996 175.279 127.507C174.337 124.518 173.687 121.445 173.338 118.331C172.987 115.213 172.887 112.072 173.04 108.939C173.091 107.37 173.27 105.815 173.421 104.255C173.572 102.695 173.848 101.153 174.146 99.6208C175.321 93.5027 177.258 87.5562 179.913 81.9204C182.483 76.2967 185.806 71.0489 189.791 66.3213C189.378 67.817 188.928 69.2836 188.442 70.7212C188.006 72.1847 187.524 73.6162 187.066 75.0476L185.717 79.342C185.308 80.7826 184.799 82.1865 184.427 83.618C182.731 89.2511 181.318 94.9657 180.193 100.74C179.63 103.609 179.18 106.489 178.844 109.379C178.507 112.27 178.278 115.176 178.156 118.097C178.046 121.019 178.064 123.96 178.243 126.919C178.395 129.933 178.763 132.932 179.344 135.893Z" fill="#E6E6E6"/>
<path d="M176.954 127.433C176.168 126.038 175.47 124.594 174.866 123.111C174.242 121.629 173.705 120.12 173.201 118.597C172.215 115.534 171.435 112.409 170.865 109.242C170.295 106.057 169.929 102.839 169.769 99.6071C169.737 98.7996 169.723 97.9875 169.705 97.1754C169.686 96.3634 169.705 95.5513 169.705 94.7392C169.705 93.9272 169.764 93.1151 169.806 92.303C169.847 91.4909 169.893 90.6789 169.98 89.8668C170.067 89.0547 170.141 88.2427 170.251 87.4352L170.604 85.0127C170.737 84.2052 170.92 83.4069 171.063 82.604C171.145 82.2049 171.219 81.8011 171.306 81.4066C171.393 81.012 171.508 80.6083 171.613 80.2137C172.393 77.0328 173.468 73.9316 174.825 70.9506C177.509 64.9862 181.404 59.554 186.341 55.4524C186.001 56.1911 185.63 56.893 185.285 57.6087L184.744 58.6548L184.253 59.733L183.262 61.848L182.368 63.9906C181.207 66.8148 180.211 69.7039 179.385 72.6435L179.06 73.7309L178.789 74.832C178.605 75.5661 178.394 76.291 178.229 77.0296C178.064 77.7683 177.922 78.507 177.747 79.241C177.573 79.9751 177.468 80.723 177.325 81.4662C177.256 81.8333 177.192 82.2049 177.114 82.5765C177.036 82.9481 177 83.3198 176.94 83.6914C176.83 84.4392 176.697 85.1825 176.61 85.9349L176.321 88.1784C176.229 88.9309 176.178 89.6879 176.1 90.4403C176.022 91.1927 175.958 91.9452 175.908 92.7022C175.857 93.4592 175.793 94.2162 175.765 94.9732C175.738 95.7302 175.669 96.4918 175.651 97.2672C175.632 98.0426 175.619 98.7904 175.582 99.5612C175.518 102.612 175.554 105.672 175.651 108.737C175.848 114.876 176.334 121.065 176.954 127.433Z" fill="#E6E6E6"/>
<path d="M170.655 121.166L150.495 81.397L151.302 120.395L170.655 121.166Z" fill="#E6E6E6"/>
<path d="M186.171 110.563H145.645L150.949 150.364H180.863L186.171 110.563Z" fill="#F5F5F5"/>
<path d="M160.855 110.563H145.645L150.949 150.364H158.937L160.855 110.563Z" fill="#EBEBEB"/>
<path d="M58.3821 96.3494H45.2283V102.217H58.3821V96.3494Z" fill="#E0E0E0"/>
<path d="M88.337 102.217H58.3821V96.3493H88.337C88.5451 96.3493 88.7446 96.4319 88.8917 96.5791C89.0389 96.7262 89.1215 96.9257 89.1215 97.1338V101.437C89.1203 101.645 89.0371 101.843 88.8901 101.989C88.7431 102.135 88.5443 102.217 88.337 102.217Z" fill="#F0F0F0"/>
<path d="M57.5012 97.1111H45.2283V101.451H57.5012V97.1111Z" fill="#F0F0F0"/>
<path d="M61.0293 92.0642H47.8755V96.3448H61.0293V92.0642Z" fill="#E6E6E6"/>
<path d="M84.3134 96.3494H61.0294V92.0688H84.3134C84.5214 92.0688 84.721 92.1514 84.8681 92.2986C85.0152 92.4457 85.0979 92.6452 85.0979 92.8533V95.5832C85.0931 95.7881 85.0083 95.9829 84.8617 96.1261C84.7151 96.2693 84.5183 96.3494 84.3134 96.3494Z" fill="#FAFAFA"/>
<path d="M77.5323 92.0642H67.5535V96.3448H77.5323V92.0642Z" fill="#F5F5F5"/>
<path d="M60.1484 92.8303H47.8755V95.5831H60.1484V92.8303Z" fill="#F5F5F5"/>
<path d="M115.223 171.083C164.352 171.083 204.179 168.758 204.179 165.889C204.179 163.021 164.352 160.696 115.223 160.696C66.0933 160.696 26.2662 163.021 26.2662 165.889C26.2662 168.758 66.0933 171.083 115.223 171.083Z" fill="#F5F5F5"/>
<path d="M170.425 44.152C171.558 40.4816 159.964 39.6466 157.17 46.2395C153.257 55.4751 158.964 60.6687 158.964 60.6687C162.291 58.8839 168.796 58.6178 172.352 59.797L170.425 44.152Z" fill="#263238"/>
<path d="M171.32 162.1L167.741 162.237L167.723 158.37L171.297 158.232L171.32 162.1Z" fill="#B55B52"/>
<path d="M167.599 161.499H171.655C171.727 161.499 171.797 161.523 171.854 161.567C171.911 161.611 171.952 161.672 171.971 161.742L172.852 164.953C172.875 165.029 172.879 165.109 172.865 165.186C172.85 165.264 172.818 165.337 172.77 165.399C172.722 165.462 172.66 165.512 172.589 165.546C172.518 165.581 172.44 165.597 172.361 165.596C170.943 165.568 170.255 165.485 168.475 165.485C167.379 165.485 164.552 165.6 163.038 165.6C161.524 165.6 161.249 164.104 161.864 163.971C164.617 163.361 166.186 162.526 167.035 161.728C167.186 161.582 167.388 161.499 167.599 161.499Z" fill="#C8D2BF"/>
<path opacity="0.2" d="M167.723 158.374L167.732 160.365L171.311 160.384L171.301 158.232L167.723 158.374Z" fill="black"/>
<path d="M159.547 86.7836C158.964 91.1881 160.951 112.082 162.626 121.193C164.851 133.301 166.957 159.553 166.957 159.553L171.779 159.264C171.779 159.264 172.361 130.484 170.884 120.725C170.788 107.92 171.017 85.4944 171.017 85.4944L159.547 86.7836Z" fill="#263238"/>
<path opacity="0.2" d="M170.907 99.4508C170.907 96.2026 168.503 93.6379 167.902 99.8408C167.521 103.791 169.058 110.416 170.861 115.004C170.856 110.008 170.879 104.41 170.907 99.4508Z" fill="black"/>
<path d="M192.608 162.499L189.328 162.586L187.781 158.113L191.066 158.026L192.608 162.499Z" fill="#B55B52"/>
<path d="M192.53 161.499H188.483C188.451 161.496 188.419 161.501 188.39 161.513C188.36 161.524 188.333 161.542 188.311 161.566C188.289 161.589 188.272 161.617 188.263 161.647C188.253 161.678 188.25 161.71 188.254 161.742L188.552 164.953C188.583 165.127 188.672 165.285 188.805 165.402C188.937 165.519 189.105 165.587 189.282 165.596C190.686 165.568 191.346 165.486 193.126 165.486C194.223 165.486 195.663 165.6 197.178 165.6C198.692 165.6 198.416 164.105 197.756 163.972C194.787 163.361 194.324 162.526 193.168 161.728C192.983 161.589 192.761 161.509 192.53 161.499Z" fill="#C8D2BF"/>
<path opacity="0.2" d="M187.786 158.117L188.58 160.421L191.929 160.517L191.071 158.026L187.786 158.117Z" fill="black"/>
<path d="M165.053 86.1641C165.053 86.1641 172.49 113.394 176.224 121.427C178.651 133.838 187.336 159.847 187.336 159.847L192.383 159.498C192.383 159.498 186.878 133.182 183.492 120.959C181.656 109.604 180.459 90.6787 175.233 85.0171L165.053 86.1641Z" fill="#263238"/>
<path d="M157.845 66.5322C157.749 68.8262 157.551 71.0513 157.281 73.304C157.01 75.5567 156.68 77.7865 156.244 80.0208L156.074 80.8604L155.982 81.3192C155.925 81.5898 155.837 81.8531 155.721 82.1038C155.544 82.4982 155.271 82.8421 154.927 83.104C154.499 83.4174 153.979 83.5789 153.45 83.5628C153.106 83.5494 152.767 83.4748 152.449 83.3425C152.23 83.2514 152.02 83.1409 151.821 83.0122C151.245 82.6197 150.719 82.1574 150.256 81.6358C149.839 81.177 149.458 80.7182 149.096 80.2594C147.713 78.4268 146.486 76.4824 145.425 74.4464C145.314 74.2317 145.285 73.9835 145.345 73.7491C145.405 73.5147 145.549 73.3104 145.749 73.175C145.95 73.0396 146.193 72.9827 146.432 73.0149C146.672 73.0472 146.892 73.1664 147.049 73.3499C148.462 75.0199 149.889 76.7313 151.385 78.2361C151.752 78.6123 152.128 78.9748 152.504 79.2959C152.817 79.5845 153.162 79.8355 153.532 80.0438C153.592 80.0667 153.647 80.0942 153.651 80.0851C153.656 80.0759 153.624 80.0529 153.463 80.0392C153.215 80.0349 152.971 80.1122 152.771 80.2594C152.643 80.3473 152.538 80.4635 152.463 80.5989C152.436 80.6586 152.463 80.5989 152.463 80.5989L152.518 80.2181L152.633 79.406C152.922 77.2451 153.151 75.0612 153.362 72.8774C153.573 70.6935 153.734 68.4821 153.881 66.3257V66.2982C153.91 65.7731 154.147 65.2812 154.539 64.9306C154.93 64.58 155.446 64.3994 155.971 64.4286C156.496 64.4578 156.988 64.6944 157.338 65.0863C157.689 65.4782 157.869 65.9934 157.84 66.5184L157.845 66.5322Z" fill="#B55B52"/>
<path d="M156.161 63.4673C152.757 65.1327 153.289 69.5464 153.289 69.5464L158.735 73.3819C158.735 73.3819 160.726 68.5875 160.313 66.2889C159.886 63.9261 158.684 62.2515 156.161 63.4673Z" fill="#C8D2BF"/>
<path opacity="0.2" d="M155.597 67.1652C156.395 65.9081 157.767 66.2109 159.363 67.2111C159.735 67.5328 160.045 67.9181 160.281 68.3489C159.939 70.0757 159.432 71.7656 158.767 73.3957L154.927 70.6934C154.774 69.4762 155.008 68.2417 155.597 67.1652Z" fill="black"/>
<path d="M147.306 73.9737L146.494 70.8677L143.741 73.3452C143.741 73.3452 144.737 75.006 146.338 75.2308L147.306 73.9737Z" fill="#B55B52"/>
<path d="M144.384 69.6015L143.824 70.1567C143.399 70.573 143.152 71.1384 143.135 71.7334C143.119 72.3284 143.335 72.9064 143.737 73.3453L146.49 70.8678L145.719 69.7346C145.647 69.6291 145.552 69.5406 145.442 69.4754C145.332 69.4101 145.209 69.3698 145.082 69.3571C144.955 69.3444 144.827 69.3597 144.706 69.402C144.585 69.4442 144.475 69.5123 144.384 69.6015Z" fill="#B55B52"/>
<path d="M145.779 69.8127C145.083 68.88 144.453 67.9004 143.893 66.881C143.719 66.5323 143.154 67.0186 143.434 67.5279C143.714 68.0371 144.232 69.698 144.783 70.3036C145.333 70.9092 145.779 69.8127 145.779 69.8127Z" fill="#B55B52"/>
<path d="M154.899 65.9862C155.867 74.8502 158.758 81.0302 159.547 86.7835L175.21 85.0309C174.325 79.273 173.875 75.5063 174.976 64.8438C175.025 64.3801 174.976 63.9114 174.834 63.4676C174.691 63.0237 174.458 62.6144 174.148 62.2657C173.839 61.9169 173.46 61.6365 173.036 61.4421C172.612 61.2478 172.153 61.1437 171.687 61.1367C170.732 61.1367 169.677 61.1367 168.613 61.2055C166.226 61.2997 163.85 61.5665 161.501 62.0038C159.85 62.3434 158.093 62.8205 156.835 63.1875C156.238 63.356 155.717 63.7277 155.364 64.2385C155.01 64.7493 154.846 65.3673 154.899 65.9862Z" fill="#C8D2BF"/>
<path d="M161.501 61.9947C161.501 61.9947 158.987 64.7154 162.736 68.4179C164.131 65.5982 166.139 63.1262 168.613 61.1826L161.501 61.9947Z" fill="white"/>
<path d="M167.012 53.2637C166.819 55.6035 166.842 59.8474 168.613 61.1963C168.613 61.1963 164.699 63.3251 162.589 67.0689C159.836 64.3161 161.501 61.9946 161.501 61.9946C163.984 61.077 163.708 59.2097 163.061 57.4846L167.012 53.2637Z" fill="#B55B52"/>
<path opacity="0.2" d="M166.58 53.7271C166.699 55.0922 166.526 56.4671 166.071 57.7599C165.755 58.6499 164.663 59.1592 163.506 59.3748C163.451 58.725 163.296 58.0875 163.048 57.4846L166.58 53.7271Z" fill="black"/>
<path d="M170.333 49.9925C169.654 53.7821 169.443 55.4017 167.287 57.1359C164.039 59.7419 159.533 58.0765 159.07 54.1583C158.652 50.6302 159.841 45.0237 163.754 43.9409C164.616 43.6986 165.526 43.6809 166.398 43.8894C167.269 44.0978 168.072 44.5256 168.731 45.132C169.391 45.7383 169.884 46.5032 170.164 47.3539C170.445 48.2046 170.503 49.1129 170.333 49.9925Z" fill="#B55B52"/>
<path d="M167.411 46.9506C166.493 48.9785 167.296 52.4195 170.205 52.2084C167.851 54.8924 168.411 60.7788 168.411 60.7788C169.883 60.8837 171.354 60.5653 172.65 59.8612C172.65 59.8612 171.733 54.296 172.701 50.3916C173.49 47.2167 173.375 41.0551 166.493 42.3947C165.69 42.5507 160.46 43.9225 159.932 46.6707C159.891 46.9185 165.516 48.5472 167.411 46.9506Z" fill="#263238"/>
<path d="M171.196 52.1442C171.114 52.5038 170.962 52.8438 170.749 53.1446C170.536 53.4454 170.265 53.701 169.953 53.8968C169.113 54.4152 168.42 53.7316 168.425 52.7957C168.425 51.9515 168.884 50.6669 169.824 50.5292C170.033 50.5019 170.245 50.5273 170.442 50.6031C170.639 50.679 170.813 50.8028 170.949 50.9634C171.086 51.124 171.18 51.3162 171.223 51.5224C171.266 51.7287 171.257 51.9425 171.196 52.1442Z" fill="#B55B52"/>
<path opacity="0.2" d="M172.513 67.3855C172.452 68.1683 172.598 68.9533 172.936 69.6618C173.275 70.3704 173.793 70.9777 174.44 71.423C174.522 69.8355 174.66 68.0554 174.862 66.0092C174.063 65.1512 172.701 65.899 172.513 67.3855Z" fill="black"/>
<path d="M175.325 84.081L176.188 85.4024C176.256 85.5079 176.142 85.6318 175.958 85.6501L159.533 87.4853C159.391 87.4853 159.267 87.444 159.249 87.3568L158.946 85.9804C158.946 85.8841 159.042 85.7877 159.194 85.7694L175.059 83.9893C175.107 83.9802 175.157 83.9838 175.204 83.9999C175.251 84.016 175.292 84.0439 175.325 84.081Z" fill="#263238"/>
<path d="M173.412 86.0953L173.838 86.0448C173.921 86.0448 173.981 85.9852 173.972 85.9347L173.568 84.1317C173.568 84.0812 173.476 84.0445 173.389 84.0537L172.967 84.1041C172.88 84.1041 172.82 84.1638 172.834 84.2142L173.237 86.0127C173.247 86.0678 173.329 86.1045 173.412 86.0953Z" fill="#C8D2BF"/>
<path d="M160.763 87.513L161.185 87.4671C161.272 87.4671 161.332 87.4029 161.318 87.3524L160.914 85.5539C160.914 85.4989 160.822 85.4667 160.74 85.4759L160.313 85.5218C160.231 85.5218 160.171 85.5814 160.18 85.6365L160.584 87.435C160.598 87.4855 160.676 87.5222 160.763 87.513Z" fill="#C8D2BF"/>
<path d="M167.067 86.8019L167.493 86.756C167.576 86.756 167.636 86.6964 167.626 86.6413L167.223 84.8428C167.223 84.7924 167.131 84.7557 167.048 84.7648L166.622 84.8107C166.539 84.8107 166.479 84.8704 166.489 84.9254L166.892 86.7239C166.924 86.779 167.002 86.8111 167.067 86.8019Z" fill="#C8D2BF"/>
<path d="M163.855 50.3779C163.818 50.6899 163.626 50.9239 163.424 50.9009C163.222 50.878 163.084 50.6027 163.121 50.2953C163.158 49.9879 163.35 49.7493 163.557 49.7723C163.763 49.7952 163.906 50.0705 163.855 50.3779Z" fill="#263238"/>
<path d="M160.354 49.9651C160.318 50.277 160.125 50.511 159.923 50.4881C159.721 50.4651 159.584 50.1899 159.62 49.8825C159.657 49.5751 159.85 49.3365 160.079 49.3594C160.309 49.3824 160.391 49.6577 160.354 49.9651Z" fill="#263238"/>
<path d="M160.143 49.3868L159.418 49.084C159.418 49.084 159.726 49.7034 160.143 49.3868Z" fill="#263238"/>
<path d="M161.222 50.6211C160.861 51.2909 160.41 51.9083 159.882 52.4563C160.027 52.5881 160.199 52.6865 160.386 52.7443C160.573 52.8022 160.771 52.8182 160.965 52.7912L161.222 50.6211Z" fill="#A02724"/>
<path d="M161.836 53.8877C161.822 53.8777 161.81 53.8639 161.803 53.8477C161.796 53.8315 161.793 53.8136 161.795 53.796C161.797 53.7839 161.801 53.7722 161.807 53.7617C161.813 53.7512 161.822 53.742 161.831 53.7348C161.841 53.7275 161.852 53.7223 161.864 53.7194C161.876 53.7165 161.889 53.716 161.901 53.718C162.284 53.785 162.678 53.7606 163.05 53.6465C163.423 53.5325 163.763 53.3322 164.043 53.0619C164.051 53.0529 164.061 53.0455 164.072 53.0403C164.083 53.035 164.095 53.032 164.107 53.0314C164.119 53.0307 164.131 53.0325 164.143 53.0366C164.154 53.0406 164.165 53.0469 164.174 53.055C164.183 53.0631 164.19 53.073 164.196 53.084C164.201 53.0949 164.204 53.1068 164.204 53.119C164.205 53.1311 164.203 53.1433 164.199 53.1547C164.195 53.1662 164.189 53.1767 164.181 53.1858C163.883 53.4791 163.52 53.6971 163.121 53.8216C162.722 53.9461 162.299 53.9735 161.887 53.9015L161.836 53.8877Z" fill="#263238"/>
<path d="M165.539 48.7445C165.511 48.7305 165.489 48.708 165.475 48.6803C165.363 48.478 165.205 48.3048 165.013 48.1749C164.822 48.045 164.603 47.9619 164.374 47.9325C164.325 47.9325 164.278 47.9131 164.244 47.8787C164.209 47.8443 164.19 47.7976 164.19 47.749C164.19 47.7003 164.209 47.6536 164.244 47.6192C164.278 47.5848 164.325 47.5654 164.374 47.5654C164.663 47.5965 164.941 47.6959 165.184 47.8555C165.427 48.015 165.629 48.2301 165.773 48.483C165.785 48.5038 165.793 48.5268 165.797 48.5508C165.8 48.5747 165.799 48.5991 165.793 48.6226C165.787 48.646 165.777 48.6681 165.762 48.6874C165.748 48.7068 165.729 48.7231 165.709 48.7354C165.683 48.7495 165.654 48.7576 165.625 48.7592C165.595 48.7608 165.566 48.7558 165.539 48.7445Z" fill="#263238"/>
<path d="M159.428 48.1389L159.4 48.116C159.383 48.0993 159.369 48.0793 159.36 48.0573C159.351 48.0352 159.346 48.0115 159.346 47.9875C159.346 47.9635 159.351 47.9398 159.36 47.9178C159.369 47.8957 159.383 47.8757 159.4 47.859C159.584 47.6325 159.82 47.4531 160.087 47.3358C160.354 47.2185 160.646 47.1667 160.937 47.1846C160.986 47.1907 161.03 47.2159 161.06 47.2546C161.09 47.2933 161.104 47.3424 161.098 47.3911C161.092 47.4398 161.067 47.484 161.028 47.5141C160.989 47.5442 160.94 47.5577 160.891 47.5517C160.66 47.5388 160.43 47.5817 160.219 47.6767C160.008 47.7717 159.823 47.9161 159.68 48.0976C159.651 48.135 159.609 48.1601 159.562 48.1677C159.515 48.1754 159.467 48.1651 159.428 48.1389Z" fill="#263238"/>
<path d="M174.797 63.5544C176.146 64.9308 177.426 66.3072 178.674 67.7616C179.298 68.4865 179.927 69.216 180.509 69.9868C181.144 70.7802 181.731 71.6105 182.267 72.4735C182.437 72.742 182.59 73.0209 182.726 73.3085C182.823 73.5304 182.9 73.7607 182.955 73.9967C182.976 74.0921 182.991 74.1886 183.001 74.2857V74.4647C183.005 74.5441 183.005 74.6238 183.001 74.7032V74.8271V74.8822V74.928L182.978 75.0198C182.859 75.5153 182.771 76.0154 182.615 76.5017C182.341 77.4932 181.98 78.4588 181.537 79.3875C181.083 80.3303 180.521 81.2171 179.863 82.0302C179.525 82.4424 179.153 82.826 178.752 83.1772C178.55 83.3562 178.344 83.5259 178.119 83.6911C178.009 83.7691 177.89 83.8471 177.77 83.9205C177.651 83.9939 177.541 84.0581 177.348 84.159L176.353 82.4661C176.353 82.4431 176.454 82.3606 176.504 82.2963L176.697 82.0807C176.825 81.9293 176.949 81.7687 177.069 81.6219C177.304 81.283 177.52 80.9307 177.715 80.5667C178.107 79.8321 178.432 79.0645 178.688 78.2727C178.803 77.8598 178.931 77.4606 179.018 77.0339C179.106 76.6072 179.202 76.1989 179.271 75.7768C179.34 75.3547 179.39 74.9189 179.454 74.4922V74.4096V74.3729V74.4555C179.454 74.5059 179.454 74.5748 179.454 74.6069C179.452 74.6359 179.452 74.665 179.454 74.694V74.8087C179.454 74.9005 179.454 74.873 179.454 74.8363C179.454 74.7996 179.307 74.5977 179.202 74.4463C178.743 73.8177 178.165 73.1066 177.578 72.4322C176.991 71.7577 176.376 71.0558 175.743 70.3814L171.958 66.3164L174.797 63.5544Z" fill="#B55B52"/>
<path d="M178.339 83.5443L175.586 86.0998L173.802 83.1957C173.802 83.1957 175.518 81.9615 177.059 82.4249L178.339 83.5443Z" fill="#B55B52"/>
<path d="M173.49 86.6365L172.572 85.6776C172.398 85.4937 172.303 85.2486 172.308 84.9953C172.313 84.7419 172.418 84.5009 172.6 84.3242L173.774 83.1726L175.554 86.0997L174.788 86.7283C174.599 86.8771 174.361 86.9502 174.121 86.9332C173.881 86.9162 173.656 86.8105 173.49 86.6365Z" fill="#B55B52"/>
<path d="M168.59 63.4261C168.379 65.064 172.742 69.8493 172.742 69.8493L176.825 64.7383C176.825 64.7383 174.921 62.0681 173.467 61.4624C171.132 60.476 168.828 61.5588 168.59 63.4261Z" fill="#C8D2BF"/>
<path d="M163.658 49.7999L162.933 49.4971C162.933 49.4971 163.25 50.1256 163.658 49.7999Z" fill="#263238"/>
<path d="M59.5336 46.5884C57.8406 48.4649 55.7347 54.0897 62.2588 52.9611C68.7829 51.8324 59.5336 46.5884 59.5336 46.5884Z" fill="#263238"/>
<path d="M61.612 41.4177C62.0111 38.9218 57.4461 33.1914 55.6476 36.7288C53.4408 40.9864 61.612 41.4177 61.612 41.4177Z" fill="#263238"/>
<path d="M61.6257 42.9317C63.6949 41.4819 64.6217 34.2145 60.8182 35.3799C56.2348 36.7792 61.6257 42.9317 61.6257 42.9317Z" fill="#263238"/>
<path d="M72.0955 65.1925C72.0542 65.5779 72.0175 66.0597 71.9854 66.5001C71.9532 66.9406 71.9349 67.4177 71.9211 67.8765C71.9211 68.7941 71.8661 69.7117 71.8936 70.6063C71.9321 72.4186 72.0961 74.226 72.3845 76.0156C72.4488 76.4744 72.5497 76.8965 72.6323 77.3369L72.6598 77.4883C72.6589 77.5051 72.6589 77.522 72.6598 77.5388C72.6598 77.5388 72.6598 77.5388 72.6598 77.5801C72.6598 77.6214 72.88 77.7315 73.192 77.7636C73.5562 77.8066 73.9243 77.8066 74.2885 77.7636C76.0518 77.4788 77.7761 76.9907 79.4271 76.3092L80.3171 77.8921C79.8904 78.1994 79.4821 78.4564 79.0508 78.7133C78.6196 78.9702 78.1929 79.218 77.7387 79.4382C76.8135 79.9178 75.84 80.2976 74.8345 80.5714C74.2652 80.7235 73.6801 80.8082 73.0911 80.8238C72.3215 80.8459 71.5613 80.6503 70.898 80.2594C70.499 80.0119 70.1592 79.6799 69.9024 79.2868C69.7803 79.102 69.6773 78.9052 69.595 78.6995C69.5531 78.6037 69.5163 78.5057 69.4849 78.4059L69.439 78.2591L69.4161 78.1673C69.2922 77.681 69.1454 77.1901 69.0399 76.6992C68.6002 74.7386 68.3376 72.7424 68.2553 70.7348C68.2049 69.7392 68.1865 68.7482 68.2232 67.7526C68.2232 67.2525 68.2645 66.757 68.3012 66.2569C68.3379 65.7569 68.3838 65.2797 68.4572 64.72L72.0955 65.1925Z" fill="#FFB573"/>
<path d="M71.6367 60.8661C73.0131 61.4901 73.0131 67.6609 73.0131 67.6609L66.7827 70.4871C66.7827 70.4871 65.7182 62.9858 67.1176 61.5773C68.5169 60.1688 69.6226 59.9577 71.6367 60.8661Z" fill="#263238"/>
<path opacity="0.2" d="M71.2926 62.1829L72.2285 68.0325L68.8472 69.5603L71.2926 62.1829Z" fill="black"/>
<path d="M78.6288 77.0801L81.2302 74.231L82.0468 77.3691C82.0468 77.3691 80.3814 78.9612 78.9637 78.5024L78.6288 77.0801Z" fill="#FFB573"/>
<path d="M82.9048 74.139L83.2902 75.6943C83.3191 75.8167 83.3157 75.9444 83.2803 76.0651C83.2449 76.1858 83.1787 76.2951 83.0883 76.3825L82.0468 77.3689L81.2302 74.2307L81.7348 73.7719C81.8267 73.6888 81.9387 73.6311 82.0597 73.6046C82.1807 73.5781 82.3066 73.5837 82.4248 73.6207C82.543 73.6578 82.6495 73.7252 82.7337 73.816C82.8179 73.9069 82.8768 74.0183 82.9048 74.139Z" fill="#FFB573"/>
<path d="M72.4211 62.2884C72.2468 64.3851 71.1961 69.4961 66.9155 81.8837L52.5552 79.4016C53.7435 73.896 54.3674 70.3816 53.8169 59.4072C53.8036 59.1595 53.8415 58.9117 53.9281 58.6793C54.0147 58.4468 54.1483 58.2347 54.3204 58.0561C54.4926 57.8775 54.6996 57.7363 54.9287 57.6411C55.1578 57.546 55.404 57.499 55.6521 57.5032C57.0919 57.5162 58.53 57.6066 59.9602 57.7739C62.1567 57.9885 64.3352 58.358 66.4797 58.8796C68.2323 59.3384 70.1088 60.0082 71.242 60.4211C71.6177 60.5576 71.9374 60.8151 72.1509 61.1531C72.3643 61.4912 72.4594 61.8905 72.4211 62.2884Z" fill="#263238"/>
<path opacity="0.2" d="M54.0877 62.4766C55.331 63.0271 56.2899 64.6513 55.6935 67.2389C55.4082 68.413 54.7957 69.4821 53.9271 70.322C54.0464 68.2712 54.0648 65.8717 53.9684 62.7794L54.0877 62.4766Z" fill="black"/>
<path d="M61.8689 50.5432C61.9193 52.7133 61.667 56.6269 59.9557 57.7739C59.9557 57.7739 61.199 59.3292 64.6721 62.0086C67.9847 60.1734 66.4798 58.8979 66.4798 58.8979C64.2363 57.939 64.5941 56.2139 65.2823 54.654L61.8689 50.5432Z" fill="#FFB573"/>
<path opacity="0.2" d="M63.2636 52.2224L65.2823 54.6494C65.1162 55.0116 64.9826 55.3877 64.8831 55.7735C64.0114 55.489 62.736 54.4843 62.713 53.4795C62.6993 53.007 63.1489 52.4243 63.2636 52.2224Z" fill="black"/>
<path d="M60.1667 46.5471C60.364 50.1027 60.3686 51.5938 62.1533 53.429C64.8372 56.1818 69.1591 55.1725 70.0308 51.6305C70.8154 48.419 70.3612 43.1611 66.8927 41.7251C66.1275 41.4041 65.2928 41.2845 64.4683 41.3776C63.6437 41.4707 62.8568 41.7734 62.1824 42.2569C61.508 42.7403 60.9687 43.3884 60.6159 44.1395C60.263 44.8905 60.1084 45.7193 60.1667 46.5471Z" fill="#FFB573"/>
<path d="M60.1345 48.9284C61.6669 49.0063 63.4241 46.0517 62.7129 44.7166C63.5158 44.5377 66.9385 44.9231 66.9247 43.6614C68.4709 44.7395 71.866 44.7946 72.4303 43.331C72.9946 41.8675 71.71 40.5048 70.0399 41.037C68.8333 37.9264 63.0295 37.2841 60.864 40.2387C58.1204 40.1699 52.1606 44.6569 60.1345 48.9284Z" fill="#263238"/>
<path d="M66.3146 47.5286C66.3146 47.8177 66.4614 48.0517 66.6541 48.0517C66.8468 48.0517 66.9936 47.8223 66.9982 47.5332C67.0028 47.2442 66.8468 47.0056 66.6587 47.0056C66.4706 47.0056 66.3146 47.2396 66.3146 47.5286Z" fill="#263238"/>
<path d="M69.5812 47.5473C69.5812 47.8363 69.7326 48.0703 69.9207 48.0749C70.1089 48.0795 70.2648 47.8409 70.2694 47.5518C70.274 47.2628 70.118 47.0288 69.9299 47.0242C69.7418 47.0196 69.5858 47.2582 69.5812 47.5473Z" fill="#263238"/>
<path d="M69.8474 47.0425L70.5401 46.8452C70.5401 46.8452 70.1823 47.4095 69.8474 47.0425Z" fill="#263238"/>
<path d="M68.5719 48.061C68.8254 48.7167 69.1681 49.3343 69.5905 49.8962C69.4424 50.0006 69.2733 50.0716 69.095 50.104C68.9168 50.1365 68.7336 50.1298 68.5582 50.0843L68.5719 48.061Z" fill="#ED893E"/>
<path d="M66.8744 51.2267C67.0155 51.2495 67.1582 51.2602 67.3011 51.2588C67.3123 51.2595 67.3235 51.2578 67.3341 51.2539C67.3446 51.25 67.3543 51.2441 67.3625 51.2363C67.3706 51.2286 67.3771 51.2193 67.3816 51.209C67.386 51.1986 67.3883 51.1875 67.3883 51.1763C67.3871 51.1535 67.3776 51.132 67.3615 51.1158C67.3454 51.0997 67.3238 51.0902 67.3011 51.0891C66.9403 51.0934 66.5836 51.0125 66.2599 50.8531C65.9363 50.6937 65.6548 50.4601 65.4384 50.1715C65.4327 50.1614 65.4251 50.1526 65.4158 50.1457C65.4066 50.1388 65.3961 50.1339 65.3848 50.1313C65.3736 50.1287 65.3619 50.1285 65.3506 50.1306C65.3393 50.1328 65.3285 50.1374 65.3191 50.144C65.3039 50.1601 65.2955 50.1814 65.2955 50.2036C65.2955 50.2258 65.3039 50.2471 65.3191 50.2632C65.5024 50.5181 65.734 50.7344 66.0009 50.8997C66.2678 51.065 66.5646 51.1761 66.8744 51.2267Z" fill="#263238"/>
<path d="M66.3926 51.7131C66.5144 51.7858 66.6417 51.8487 66.7734 51.9012C66.7837 51.9057 66.7947 51.908 66.8058 51.9081C66.817 51.9082 66.828 51.9061 66.8383 51.9018C66.8486 51.8975 66.8579 51.8912 66.8657 51.8832C66.8735 51.8752 66.8795 51.8657 66.8836 51.8553C66.888 51.8451 66.8904 51.8341 66.8905 51.823C66.8906 51.8118 66.8884 51.8008 66.8841 51.7905C66.8798 51.7802 66.8735 51.7709 66.8655 51.7631C66.8575 51.7553 66.8481 51.7493 66.8377 51.7452C66.5042 51.6143 66.206 51.4071 65.9669 51.1402C65.7279 50.8733 65.5547 50.5541 65.4613 50.2083C65.4591 50.1973 65.4548 50.1869 65.4485 50.1776C65.4421 50.1684 65.434 50.1605 65.4246 50.1545C65.4151 50.1485 65.4046 50.1445 65.3935 50.1427C65.3825 50.1409 65.3712 50.1413 65.3604 50.144C65.3389 50.1485 65.3198 50.1609 65.3071 50.1787C65.2943 50.1966 65.2888 50.2186 65.2915 50.2404C65.3687 50.5464 65.5058 50.8341 65.6948 51.0869C65.8838 51.3396 66.121 51.5525 66.3926 51.7131Z" fill="#263238"/>
<path d="M59.0795 49.3181C59.2771 49.9769 59.7252 50.532 60.3274 50.8643C61.1303 51.2955 61.7313 50.6211 61.6762 49.7586C61.6258 48.9832 61.144 47.8224 60.254 47.749C60.0598 47.7364 59.8655 47.7725 59.6887 47.8539C59.512 47.9354 59.3583 48.0596 59.2417 48.2154C59.1251 48.3712 59.0492 48.5537 59.0208 48.7462C58.9925 48.9388 59.0126 49.1353 59.0795 49.3181Z" fill="#FFB573"/>
<path d="M64.8281 45.9139C64.8606 45.9295 64.8972 45.9344 64.9327 45.9278C64.9682 45.9212 65.0006 45.9035 65.0253 45.8772C65.5805 45.322 66.5807 45.4826 66.5898 45.4826C66.6341 45.4894 66.6793 45.4789 66.716 45.4533C66.7527 45.4276 66.7782 45.3889 66.7871 45.345C66.791 45.3226 66.7904 45.2998 66.7854 45.2777C66.7803 45.2556 66.7709 45.2347 66.7576 45.2163C66.7444 45.1979 66.7276 45.1824 66.7082 45.1706C66.6888 45.1588 66.6673 45.151 66.6449 45.1477C66.599 45.1477 65.4612 44.9596 64.7868 45.6386C64.7705 45.6544 64.7576 45.6733 64.7488 45.6942C64.74 45.7151 64.7355 45.7375 64.7355 45.7602C64.7355 45.7828 64.74 45.8053 64.7488 45.8262C64.7576 45.847 64.7705 45.8659 64.7868 45.8818L64.8281 45.9139Z" fill="#263238"/>
<path d="M70.6869 45.9782C70.7158 45.9821 70.7452 45.9787 70.7725 45.9683C70.7997 45.9578 70.8239 45.9408 70.8429 45.9186C70.8714 45.8838 70.885 45.8393 70.8807 45.7945C70.8764 45.7498 70.8545 45.7086 70.8199 45.68C70.6168 45.5027 70.3743 45.3765 70.1125 45.3118C69.8508 45.2472 69.5774 45.246 69.3151 45.3084C69.2727 45.3221 69.2374 45.3519 69.2168 45.3913C69.1962 45.4308 69.192 45.4768 69.205 45.5194C69.2107 45.5411 69.2209 45.5615 69.2347 45.5792C69.2486 45.5968 69.266 45.6115 69.2858 45.6223C69.3055 45.633 69.3273 45.6396 69.3497 45.6416C69.3721 45.6437 69.3946 45.6411 69.416 45.6341C69.6242 45.5866 69.8408 45.5897 70.0476 45.6432C70.2543 45.6966 70.4453 45.799 70.6043 45.9415C70.628 45.961 70.6565 45.9737 70.6869 45.9782Z" fill="#263238"/>
<path d="M65.5439 161.357H69.1316L68.9022 153.048H65.3145L65.5439 161.357Z" fill="#FFB573"/>
<path d="M69.3428 160.939H65.3099C65.2413 160.937 65.1745 160.961 65.1238 161.008C65.0732 161.054 65.0428 161.118 65.0392 161.187L64.741 164.376C64.738 164.458 64.7514 164.54 64.7807 164.617C64.8099 164.694 64.8543 164.764 64.9112 164.824C64.9681 164.883 65.0364 164.93 65.112 164.963C65.1876 164.996 65.2689 165.013 65.3512 165.013C66.7552 164.99 67.425 164.908 69.2005 164.908C70.2879 164.908 72.5498 165.018 74.0546 165.018C75.5595 165.018 75.5686 163.531 74.9309 163.394C72.091 162.788 70.9394 161.958 69.953 161.159C69.7802 161.019 69.5652 160.942 69.3428 160.939Z" fill="#263238"/>
<g opacity="0.2">
<path opacity="0.2" d="M68.9022 153.048L69.0215 157.333H65.4337L65.3145 153.048H68.9022Z" fill="black"/>
</g>
<path d="M66.9249 81.8835C66.9249 81.8835 69.1638 104.287 69.8612 115.215C70.5861 126.58 69.6364 156.507 69.6364 156.507H64.7869C64.7869 156.507 61.7909 122.795 61.7909 116.069C59.8823 103.878 54.6199 91.2522 56.4092 80.0713L66.9249 81.8835Z" fill="#C8D2BF"/>
<path opacity="0.6" d="M66.9249 81.8835C66.9249 81.8835 69.1638 104.287 69.8612 115.215C70.5861 126.58 69.6364 156.507 69.6364 156.507H64.7869C64.7869 156.507 61.7909 122.795 61.7909 116.069C59.8823 103.878 54.6199 91.2522 56.4092 80.0713L66.9249 81.8835Z" fill="white"/>
<path opacity="0.2" d="M59.3042 90.7522C58.284 91.0263 57.3747 91.6117 56.7028 92.4268C57.4415 97.0744 58.6894 101.841 59.8364 106.613C60.6577 101.428 60.1667 92.6929 59.3042 90.7522Z" fill="#C8D2BF"/>
<path d="M64.3648 156.677H70.0585L70.476 154.86L64.0987 154.64L64.3648 156.677Z" fill="#263238"/>
<path d="M70.7191 161.567C71.0261 161.594 71.333 161.516 71.5908 161.347C71.6486 161.297 71.6927 161.232 71.7192 161.16C71.7456 161.088 71.7535 161.01 71.7422 160.934C71.7397 160.887 71.7254 160.841 71.7005 160.801C71.6757 160.761 71.6411 160.728 71.6 160.705C71.1412 160.466 69.7281 161.196 69.5675 161.278C69.5518 161.286 69.5392 161.299 69.5317 161.315C69.5243 161.331 69.5223 161.349 69.5262 161.366C69.5284 161.383 69.5356 161.399 69.5471 161.412C69.5585 161.425 69.5736 161.435 69.5904 161.439C69.9619 161.516 70.3397 161.559 70.7191 161.567ZM71.3614 160.824C71.4153 160.821 71.4692 160.832 71.5174 160.856C71.5351 160.864 71.5501 160.877 71.5607 160.893C71.5713 160.91 71.5769 160.929 71.577 160.948C71.5841 160.998 71.5785 161.049 71.5609 161.096C71.5433 161.144 71.5141 161.186 71.4761 161.219C71.2604 161.416 70.6686 161.448 69.8749 161.32C70.334 161.072 70.8321 160.904 71.3476 160.824H71.3614Z" fill="#C8D2BF"/>
<path d="M69.5951 161.439H69.6272C70.0585 161.246 70.9027 160.471 70.8384 160.063C70.8384 159.966 70.7513 159.847 70.5173 159.824C70.4349 159.817 70.3519 159.826 70.2731 159.851C70.1944 159.877 70.1214 159.917 70.0585 159.971C69.5997 160.347 69.5263 161.311 69.5217 161.347C69.5213 161.362 69.5245 161.377 69.5308 161.391C69.5372 161.404 69.5466 161.416 69.5584 161.425C69.5695 161.433 69.582 161.437 69.5951 161.439ZM70.4485 159.985H70.4989C70.6549 159.985 70.6641 160.063 70.6687 160.081C70.71 160.329 70.1365 160.934 69.7006 161.201C69.735 160.792 69.8953 160.404 70.1594 160.09C70.2408 160.023 70.3428 159.986 70.4485 159.985Z" fill="#C8D2BF"/>
<path d="M35.8091 155.723L39.1262 157.09L42.5167 149.501L39.2042 148.134L35.8091 155.723Z" fill="#FFB573"/>
<path d="M39.3878 157.062L35.8826 155.071C35.8231 155.036 35.7527 155.024 35.685 155.037C35.6172 155.051 35.5568 155.089 35.5155 155.144L33.5565 157.672C33.5094 157.738 33.4767 157.814 33.4607 157.893C33.4446 157.973 33.4455 158.055 33.4632 158.134C33.4809 158.213 33.5152 158.288 33.5636 158.353C33.6121 158.418 33.6738 158.472 33.7446 158.512C34.9787 159.182 35.6073 159.429 37.1488 160.32C38.094 160.861 40.0026 162.072 41.3101 162.815C42.6177 163.559 43.4252 162.306 42.948 161.898C40.8009 159.98 40.2503 158.709 39.819 157.553C39.7404 157.342 39.5869 157.167 39.3878 157.062Z" fill="#263238"/>
<g opacity="0.2">
<path opacity="0.2" d="M42.5168 149.506L40.7688 153.415L37.4517 152.048L39.1997 148.134L42.5168 149.506Z" fill="black"/>
</g>
<path d="M62.892 81.1861C62.892 81.1861 57.0285 106.934 56.0375 117.835C53.5463 127.96 41.8148 152.933 41.8148 152.933L37.3278 151.098C37.3278 151.098 44.3611 124.419 48.2242 117.069C48.5912 104.883 48.527 90.2015 52.3993 79.3784L62.892 81.1861Z" fill="#C8D2BF"/>
<path opacity="0.6" d="M62.892 81.1861C62.892 81.1861 57.0285 106.934 56.0375 117.835C53.5463 127.96 41.8148 152.933 41.8148 152.933L37.3278 151.098C37.3278 151.098 44.3611 124.419 48.2242 117.069C48.5912 104.883 48.527 90.2015 52.3993 79.3784L62.892 81.1861Z" fill="white"/>
<path d="M36.8506 151.089L42.113 153.259L43.1912 151.74L37.3828 149.102L36.8506 151.089Z" fill="#263238"/>
<path d="M40.2503 158.255C40.5045 158.43 40.8098 158.514 41.1175 158.494C41.1926 158.478 41.2627 158.444 41.3212 158.394C41.3797 158.345 41.4248 158.281 41.4524 158.209C41.4749 158.169 41.4867 158.123 41.4867 158.076C41.4867 158.03 41.4749 157.984 41.4524 157.943C41.1909 157.512 39.5851 157.443 39.4061 157.439C39.3887 157.436 39.3711 157.44 39.3561 157.449C39.3411 157.459 39.3296 157.473 39.3236 157.489C39.3135 157.503 39.308 157.52 39.308 157.537C39.308 157.554 39.3135 157.571 39.3236 157.585C39.6114 157.836 39.9216 158.061 40.2503 158.255ZM41.1679 157.925C41.2167 157.95 41.259 157.986 41.2918 158.03C41.3019 158.047 41.3073 158.066 41.3073 158.085C41.3073 158.105 41.3019 158.124 41.2918 158.141C41.2735 158.187 41.2443 158.228 41.2068 158.261C41.1693 158.293 41.1245 158.317 41.0762 158.329C40.7871 158.388 40.2595 158.127 39.6309 157.622C40.1582 157.635 40.6795 157.737 41.1725 157.925H41.1679Z" fill="#C8D2BF"/>
<path d="M39.3465 157.594C39.3465 157.594 39.3465 157.594 39.3786 157.594C39.8374 157.636 40.966 157.379 41.1083 156.993C41.1404 156.902 41.1404 156.764 40.9477 156.626C40.8817 156.58 40.8071 156.547 40.7284 156.53C40.6497 156.513 40.5682 156.511 40.4889 156.525C39.9108 156.626 39.3648 157.443 39.3419 157.443C39.3342 157.455 39.3301 157.47 39.3301 157.484C39.3301 157.499 39.3342 157.513 39.3419 157.526C39.337 157.536 39.3348 157.548 39.3356 157.56C39.3364 157.572 39.3402 157.584 39.3465 157.594ZM40.8055 156.755C40.8226 156.76 40.8382 156.77 40.8514 156.782C40.9752 156.869 40.9569 156.929 40.9477 156.947C40.8605 157.181 40.0622 157.406 39.5713 157.443C39.8016 157.104 40.1321 156.846 40.5164 156.704C40.6157 156.689 40.7172 156.707 40.8055 156.755Z" fill="#C8D2BF"/>
<path d="M66.5899 47.0196L67.2827 46.8269C67.2827 46.8269 66.9111 47.3637 66.5899 47.0196Z" fill="#263238"/>
<path d="M52.4956 78.5252L51.9084 79.7456C51.8396 79.8373 51.9405 79.9566 52.1057 79.9887L66.8835 82.5397C67.012 82.5626 67.1313 82.5396 67.1542 82.4341L67.5075 81.1724C67.5304 81.0853 67.4295 80.9889 67.2873 80.966L52.748 78.4564C52.7035 78.4451 52.657 78.4456 52.6128 78.4576C52.5686 78.4697 52.5282 78.4929 52.4956 78.5252Z" fill="#263238"/>
<path d="M54.2023 80.4936L53.8123 80.4293C53.7343 80.4293 53.6839 80.3651 53.6976 80.3146L54.1564 78.6767C54.1564 78.6308 54.2436 78.6033 54.3216 78.6171L54.7116 78.6813C54.7896 78.6813 54.84 78.7455 54.8263 78.796L54.3675 80.4339C54.3675 80.4798 54.2941 80.5073 54.2023 80.4936Z" fill="#C8D2BF"/>
<g opacity="0.6">
<path opacity="0.6" d="M54.2023 80.4936L53.8123 80.4293C53.7343 80.4293 53.6839 80.3651 53.6976 80.3146L54.1564 78.6767C54.1564 78.6308 54.2436 78.6033 54.3216 78.6171L54.7116 78.6813C54.7896 78.6813 54.84 78.7455 54.8263 78.796L54.3675 80.4339C54.3675 80.4798 54.2941 80.5073 54.2023 80.4936Z" fill="white"/>
</g>
<path d="M65.764 82.4893L65.3787 82.4205C65.3007 82.4205 65.2456 82.3563 65.2594 82.3104L65.7182 80.6725C65.7182 80.622 65.8053 80.5945 65.8833 80.6083L66.2733 80.6771C66.3513 80.6771 66.4018 80.7413 66.388 80.7872L65.9292 82.4251C65.92 82.4756 65.842 82.5031 65.764 82.4893Z" fill="#C8D2BF"/>
<g opacity="0.6">
<path opacity="0.6" d="M65.764 82.4893L65.3787 82.4205C65.3007 82.4205 65.2456 82.3563 65.2594 82.3104L65.7182 80.6725C65.7182 80.622 65.8053 80.5945 65.8833 80.6083L66.2733 80.6771C66.3513 80.6771 66.4018 80.7413 66.388 80.7872L65.9292 82.4251C65.92 82.4756 65.842 82.5031 65.764 82.4893Z" fill="white"/>
</g>
<path d="M60.0154 81.4984L59.6254 81.4296C59.5474 81.4296 59.4969 81.3653 59.5107 81.3195L59.9695 79.677C59.9695 79.6311 60.0566 79.6036 60.1346 79.6173L60.5246 79.6816C60.598 79.6816 60.6531 79.7458 60.6393 79.7963L60.1805 81.4342C60.1668 81.48 60.0934 81.5076 60.0154 81.4984Z" fill="#C8D2BF"/>
<g opacity="0.6">
<path opacity="0.6" d="M60.0154 81.4984L59.6254 81.4296C59.5474 81.4296 59.4969 81.3653 59.5107 81.3195L59.9695 79.677C59.9695 79.6311 60.0566 79.6036 60.1346 79.6173L60.5246 79.6816C60.598 79.6816 60.6531 79.7458 60.6393 79.7963L60.1805 81.4342C60.1668 81.48 60.0934 81.5076 60.0154 81.4984Z" fill="white"/>
</g>
<path d="M50.9266 81.3238L53.6151 84.1133L49.9769 84.3565C49.9769 84.3565 48.7335 82.4158 49.4584 81.1128L50.9266 81.3238Z" fill="#FFB573"/>
<path d="M54.7805 62.3572C53.7436 64.0089 52.67 65.6514 51.5964 67.2801C50.5229 68.9088 49.4263 70.5605 48.4445 72.1388L48.2885 72.3865C48.2885 72.3865 48.2885 72.414 48.2518 72.4462C48.2141 72.5511 48.1909 72.6607 48.183 72.7719C48.1539 73.135 48.1709 73.5004 48.2335 73.8592C48.3873 74.7362 48.6145 75.5987 48.9125 76.4377C49.2061 77.3186 49.5502 78.2041 49.931 79.0804C50.3118 79.9567 50.7064 80.8467 51.1055 81.7047L49.564 82.6682C48.3328 81.0514 47.2574 79.3216 46.3524 77.5021C45.8704 76.5349 45.4862 75.5221 45.2054 74.4786C45.0469 73.8796 44.9636 73.2631 44.9576 72.6434C44.9591 72.2644 45.0068 71.8869 45.0999 71.5194C45.1594 71.3056 45.2362 71.0969 45.3293 70.8954L45.4394 70.6752L45.5311 70.4963C46.0175 69.5787 46.5038 68.7253 47.0085 67.8628C47.5131 67.0002 48.0178 66.1652 48.5317 65.3256C49.5594 63.6418 50.6054 61.9856 51.702 60.3477L54.7805 62.3572Z" fill="#FFB573"/>
<path d="M55.7531 57.5857C52.2295 56.98 49.5823 62.4168 49.5823 62.4168L53.7115 67.5003C53.7115 67.5003 56.3587 64.541 56.946 62.6462C57.5699 60.6734 57.469 57.8839 55.7531 57.5857Z" fill="#263238"/>
<path d="M53.9271 87.1141L50.8669 87.1508L49.9769 84.3567L53.6151 84.1135L53.9271 87.1141Z" fill="#FFB573"/>
<path d="M174.921 21.5653C176.084 21.5665 177.236 21.7969 178.31 22.2433C179.384 22.6897 180.36 23.3434 181.181 24.1669C182.003 24.9905 182.654 25.9679 183.098 27.0432C183.541 28.1185 183.769 29.2707 183.767 30.4339V97.8037C183.764 100.149 182.832 102.397 181.173 104.056C179.515 105.714 177.266 106.647 174.921 106.649H152.486C150.661 106.649 148.91 107.374 147.62 108.665C146.329 109.956 145.604 111.706 145.604 113.531V120.055L131.881 108.301C130.634 107.234 129.045 106.648 127.404 106.649H55.5237C53.1785 106.647 50.93 105.714 49.2716 104.056C47.6133 102.397 46.6805 100.149 46.6781 97.8037V30.4339C46.6805 28.0886 47.6133 25.8401 49.2716 24.1818C50.93 22.5234 53.1785 21.5907 55.5237 21.5883H174.921V21.5653ZM174.921 14.7063H55.5237C51.3562 14.7184 47.3629 16.3793 44.416 19.3262C41.4691 22.273 39.8082 26.2664 39.7961 30.4339V97.8037C39.8082 101.971 41.4691 105.965 44.416 108.911C47.3629 111.858 51.3562 113.519 55.5237 113.531H127.404L152.486 135.012V113.531H174.921C179.089 113.519 183.082 111.858 186.029 108.911C188.976 105.965 190.637 101.971 190.649 97.8037V30.4339C190.637 26.2664 188.976 22.273 186.029 19.3262C183.082 16.3793 179.089 14.7184 174.921 14.7063Z" fill="#0B777D"/>
<path d="M110.111 162.724C110.534 162.724 110.933 162.669 111.061 162.481C111.096 162.431 111.115 162.372 111.115 162.311C111.115 162.25 111.096 162.191 111.061 162.141C111.033 162.096 110.996 162.057 110.953 162.026C110.91 161.995 110.861 161.974 110.809 161.962C110.263 161.815 109.148 162.462 109.098 162.49C109.084 162.498 109.073 162.511 109.068 162.526C109.062 162.541 109.061 162.557 109.065 162.572C109.068 162.588 109.076 162.602 109.088 162.613C109.099 162.623 109.114 162.63 109.13 162.632C109.453 162.693 109.782 162.724 110.111 162.724ZM110.607 162.095C110.657 162.09 110.708 162.09 110.758 162.095C110.821 162.111 110.875 162.15 110.91 162.205C110.969 162.302 110.951 162.347 110.933 162.375C110.79 162.586 109.965 162.591 109.354 162.508C109.742 162.294 110.167 162.159 110.607 162.109V162.095Z" fill="#C8D2BF"/>
<path d="M109.125 162.636H109.157C109.543 162.462 110.295 161.755 110.222 161.388C110.222 161.301 110.139 161.191 109.928 161.173C109.852 161.164 109.775 161.17 109.701 161.192C109.628 161.214 109.56 161.251 109.501 161.301C109.102 161.645 109.042 162.522 109.042 162.558C109.043 162.572 109.046 162.586 109.053 162.599C109.059 162.612 109.068 162.623 109.079 162.632C109.094 162.638 109.11 162.639 109.125 162.636ZM109.868 161.315H109.919C110.056 161.315 110.066 161.384 110.07 161.402C110.116 161.622 109.611 162.177 109.212 162.421C109.233 162.052 109.371 161.7 109.607 161.416C109.678 161.35 109.771 161.314 109.868 161.315Z" fill="#C8D2BF"/>
<path d="M105.533 162.558H108.795L108.836 155.007H105.574L105.533 162.558Z" fill="#CE7A63"/>
<path d="M108.763 162.182H105.198C105.134 162.181 105.073 162.203 105.024 162.243C104.975 162.284 104.943 162.34 104.932 162.403L104.395 165.321C104.382 165.392 104.385 165.466 104.404 165.536C104.423 165.606 104.457 165.671 104.504 165.727C104.551 165.783 104.609 165.827 104.675 165.858C104.741 165.888 104.813 165.904 104.886 165.903C106.17 165.88 108.024 165.802 109.639 165.802C111.525 165.802 111.759 165.908 113.975 165.908C115.314 165.908 115.631 164.554 115.067 164.431C112.497 163.871 111.814 163.811 109.561 162.453C109.324 162.292 109.048 162.198 108.763 162.182Z" fill="#263238"/>
<path opacity="0.2" d="M108.836 155.007L108.818 158.902H105.551L105.574 155.007H108.836Z" fill="black"/>
<path d="M83.9417 161.599C83.9666 161.254 83.8601 160.911 83.6435 160.641C83.5942 160.605 83.5347 160.585 83.4738 160.585C83.4128 160.585 83.3534 160.605 83.304 160.641C83.2604 160.667 83.2231 160.702 83.1945 160.744C83.166 160.786 83.147 160.834 83.1388 160.884C83.0196 161.425 83.7307 162.567 83.7628 162.618C83.7715 162.631 83.784 162.642 83.7986 162.649C83.8133 162.655 83.8295 162.657 83.8454 162.655C83.8605 162.653 83.8746 162.646 83.8854 162.635C83.8962 162.624 83.9031 162.61 83.905 162.595C83.9438 162.265 83.956 161.932 83.9417 161.599ZM83.2811 161.076C83.2741 161.028 83.2741 160.978 83.2811 160.93C83.285 160.899 83.2957 160.869 83.3123 160.843C83.329 160.817 83.3512 160.795 83.3774 160.778C83.4738 160.723 83.5196 160.746 83.5472 160.778C83.7674 160.93 83.8179 161.755 83.7674 162.361C83.5244 161.968 83.3593 161.532 83.2811 161.076Z" fill="#C8D2BF"/>
<path d="M83.905 162.568C83.9077 162.557 83.9077 162.546 83.905 162.535C83.7077 162.141 82.9598 161.356 82.5928 161.411C82.5056 161.411 82.4001 161.485 82.3909 161.7C82.3861 161.857 82.4419 162.01 82.5469 162.127C82.9138 162.424 83.3615 162.603 83.8315 162.641C83.8449 162.643 83.8585 162.641 83.8708 162.635C83.883 162.63 83.8933 162.62 83.9004 162.609C83.9064 162.596 83.908 162.582 83.905 162.568ZM82.5286 161.76V161.714C82.5286 161.577 82.5882 161.567 82.6066 161.567C82.8268 161.531 83.4094 162.063 83.6756 162.485C83.2955 162.447 82.9358 162.295 82.6433 162.049C82.5797 161.973 82.5427 161.878 82.5377 161.778L82.5286 161.76Z" fill="#C8D2BF"/>
<path d="M83.8546 162.604L87.0524 162.829L88.3691 155.218L85.1759 154.993L83.8546 162.604Z" fill="#CE7A63"/>
<path d="M83.8223 161.875L87.3505 161.563C87.4164 161.557 87.4823 161.573 87.5379 161.609C87.5936 161.645 87.6358 161.698 87.6579 161.76L88.7315 164.591C88.7564 164.656 88.7661 164.726 88.7598 164.796C88.7534 164.866 88.7313 164.933 88.695 164.993C88.6587 165.053 88.6092 165.103 88.5503 165.141C88.4914 165.179 88.4247 165.202 88.3553 165.21C87.0798 165.302 85.2263 165.389 83.6251 165.532C81.7578 165.697 82.9736 165.692 80.7805 165.889C79.4546 166.009 78.8857 164.692 79.4041 164.513C81.8449 163.733 82.2624 163.196 83.0745 162.191C83.1716 162.091 83.2878 162.012 83.4163 161.957C83.5448 161.903 83.6828 161.875 83.8223 161.875Z" fill="#263238"/>
<path opacity="0.2" d="M88.3691 155.222L87.6901 159.145L84.4922 158.92L85.1713 154.993L88.3691 155.222Z" fill="black"/>
<path d="M110.011 79.594C110.011 79.594 104.046 104.649 101.789 113.949C99.2976 124.129 89.5298 157.915 89.5298 157.915L83.7031 156.654C83.7031 156.654 90.0345 127.626 92.5257 113.421C94.4389 102.516 98.7608 79.594 98.7608 79.594H110.011Z" fill="#263238"/>
<path d="M90.4474 156.145L90.0161 158.388L83.0562 157.645L82.9598 155.59L90.4474 156.145Z" fill="#C8D2BF"/>
<path opacity="0.3" d="M106.574 91.2063C102.445 91.7523 101.697 106.223 101.601 114.71L101.789 113.944C103.028 108.87 105.363 99.0838 107.235 91.2522C107.021 91.1879 106.795 91.1722 106.574 91.2063Z" fill="black"/>
<path d="M116.2 79.594C116.2 79.594 114.608 103.993 113.906 113.926C113.167 124.258 110.235 158.145 110.235 158.145H104.67C104.67 158.145 104.087 124.877 103.927 114.715C103.748 103.64 104.725 79.594 104.725 79.594H116.2Z" fill="#263238"/>
<path d="M110.983 155.947C111.006 155.947 110.758 158.241 110.758 158.241H104.037L103.775 156.19L110.983 155.947Z" fill="#C8D2BF"/>
<path d="M100.77 56.1268C99.8803 57.9298 98.9765 59.8247 98.1415 61.6874C97.3065 63.5501 96.4852 65.4358 95.8475 67.3168L95.5997 68.0188L95.3795 68.7162L95.2786 69.0327C95.2867 68.958 95.2867 68.8826 95.2786 68.8079C95.2475 68.499 95.0998 68.2135 94.8657 68.0096C94.6867 67.8903 94.6821 67.9408 94.751 67.9775C94.8786 68.0366 95.0125 68.0812 95.1501 68.1105C95.5615 68.197 95.9785 68.2538 96.398 68.2803C98.4063 68.3421 100.416 68.2823 102.417 68.1014H102.473C102.769 68.079 103.063 68.1642 103.301 68.3413C103.54 68.5184 103.706 68.7755 103.771 69.0655C103.835 69.3555 103.792 69.6589 103.651 69.92C103.509 70.1812 103.278 70.3825 103 70.4871C100.917 71.3273 98.733 71.8918 96.5036 72.1663C95.8632 72.232 95.2181 72.2381 94.5766 72.1847C94.1888 72.1533 93.8048 72.0857 93.4296 71.9828C92.8784 71.8395 92.367 71.5728 91.9339 71.2028C91.6207 70.9345 91.3635 70.6071 91.1769 70.2394C90.9893 69.8576 90.8771 69.4432 90.8466 69.019C90.8275 68.6805 90.8538 68.3411 90.9246 68.0096L91.0255 67.5508L91.2182 66.7204L91.4384 65.9083C92.0412 63.7978 92.7689 61.7249 93.6177 59.7008C94.4619 57.6912 95.3566 55.7597 96.398 53.8052C96.7039 53.2333 97.2222 52.8045 97.8412 52.6111C98.4602 52.4177 99.1305 52.4752 99.7075 52.7712C100.285 53.0672 100.722 53.5781 100.926 54.1938C101.13 54.8094 101.084 55.4805 100.798 56.0625L100.77 56.1268Z" fill="#CF7A64"/>
<path d="M102.509 68.2251L104.537 67.4268L104.436 71.1981C103.618 71.1408 102.828 70.8737 102.142 70.4227C101.974 70.3009 101.847 70.1304 101.779 69.9343C101.711 69.7382 101.705 69.526 101.761 69.3262L101.876 68.9133C101.919 68.7565 101.999 68.6123 102.109 68.4926C102.22 68.3729 102.357 68.2812 102.509 68.2251Z" fill="#CE7A63"/>
<path d="M107.877 67L107.148 70.2666L104.436 71.1934L104.537 67.4267L107.877 67Z" fill="#CE7A63"/>
<path d="M111.653 39.2519C111.708 39.5088 111.887 39.6878 112.052 39.6556C112.217 39.6235 112.318 39.385 112.263 39.128C112.208 38.8711 112.034 38.6692 111.864 38.7197C111.694 38.7702 111.603 38.9904 111.653 39.2519Z" fill="#263238"/>
<path d="M111.859 39.6924C112.327 40.4189 112.894 41.0767 113.543 41.6469C113.392 41.8087 113.208 41.9357 113.002 42.0189C112.797 42.1021 112.576 42.1395 112.355 42.1286L111.859 39.6924Z" fill="#BA4D3C"/>
<path d="M110.419 38.0086C110.38 38.0081 110.342 37.9935 110.313 37.9673C110.299 37.9533 110.288 37.9365 110.28 37.918C110.272 37.8994 110.268 37.8796 110.268 37.8595C110.268 37.8395 110.272 37.8196 110.28 37.8011C110.288 37.7826 110.299 37.7658 110.313 37.7517C110.476 37.5672 110.68 37.4244 110.909 37.335C111.138 37.2456 111.386 37.2123 111.63 37.2379C111.67 37.2457 111.705 37.2687 111.728 37.3021C111.752 37.3356 111.761 37.3767 111.754 37.4168C111.751 37.4368 111.744 37.456 111.734 37.4733C111.724 37.4906 111.71 37.5057 111.694 37.5177C111.678 37.5297 111.659 37.5383 111.64 37.543C111.62 37.5477 111.6 37.5485 111.58 37.5452C111.386 37.5264 111.191 37.5546 111.01 37.6272C110.83 37.6999 110.669 37.815 110.543 37.9628C110.527 37.9787 110.507 37.9911 110.486 37.999C110.464 38.0069 110.442 38.0102 110.419 38.0086Z" fill="#263238"/>
<path d="M104.496 43.9409C104.955 46.3267 105.244 49.6346 103.578 51.2266C103.578 51.2266 104.234 53.6445 108.666 53.6445C113.539 53.6445 111.011 51.5203 111.011 51.5203C108.983 50.8917 109.001 48.584 109.465 46.7304L104.496 43.9409Z" fill="#CE7A63"/>
<path d="M97.7377 51.2358C94.6775 51.9378 92.6634 60.187 92.6634 60.187L97.7882 64.0225C99.6851 62.6607 101.03 60.663 101.578 58.3931C102.606 54.2914 100.862 50.5201 97.7377 51.2358Z" fill="#C8D2BF"/>
<path opacity="0.2" d="M100.358 56.9753C98.6109 58.8348 97.5943 61.2623 97.4946 63.8114L97.7653 64.0225C99.6607 62.6592 101.005 60.6621 101.555 58.393C101.615 58.1499 101.67 57.9021 101.716 57.6635L100.358 56.9753Z" fill="black"/>
<path d="M117.058 54.507C117.718 57.9984 118.714 66.2843 116.851 80.3694C116.834 80.4849 116.78 80.5918 116.697 80.6744C116.615 80.7569 116.508 80.8109 116.392 80.8282C114.794 81.017 113.177 80.9954 111.584 80.764C108.373 80.3052 105.707 80.5025 102.592 80.764C101.218 80.8707 99.8389 80.8906 98.4626 80.8236C98.3887 80.8198 98.3163 80.8008 98.2501 80.7676C98.1839 80.7345 98.1253 80.6881 98.0779 80.6312C98.0305 80.5743 97.9953 80.5082 97.9747 80.4371C97.9541 80.366 97.9484 80.2914 97.958 80.218C98.4397 76.5935 100.188 63.1186 97.7607 51.2495C99.6882 50.88 101.638 50.6348 103.597 50.5155C106.067 50.3708 108.545 50.3708 111.015 50.5155C111.832 50.5889 112.635 50.7081 113.351 50.832C114.267 51 115.111 51.4408 115.772 52.0965C116.434 52.7522 116.882 53.5924 117.058 54.507Z" fill="#C8D2BF"/>
<path d="M102.945 40.4496C103.78 43.5786 104.115 45.4505 106.042 46.7489C108.946 48.708 112.557 46.4599 112.672 43.1474C112.773 40.1652 111.387 35.5543 108.033 34.9211C107.294 34.7779 106.53 34.8262 105.815 35.0615C105.099 35.2968 104.456 35.7112 103.946 36.2653C103.436 36.8195 103.076 37.4949 102.901 38.2273C102.726 38.9597 102.741 39.7247 102.945 40.4496Z" fill="#CE7A63"/>
<path d="M110.263 41.4084C111.24 43.5648 110.933 45.5376 109.717 46.4552C108.34 47.5013 104.482 47.6618 103.018 46.1799C103.574 45.6248 103.881 44.932 103.17 43.9456C102.459 42.9592 99.8481 41.4268 99.7977 39.3209C99.7472 37.215 101.142 36.9764 101.059 36.9764C99.8252 36.4259 99.9032 34.4439 101.261 33.3519C102.702 32.1912 105.042 31.87 107.827 32.4343C109.584 32.783 111.309 32.7509 111.006 31.6406C113.075 32.8289 112.048 37.2288 110.047 37.8069C110.364 38.6006 111.749 39.8623 111.749 39.8623C111.749 39.8623 111.41 41.1744 110.263 41.4084Z" fill="#263238"/>
<path d="M101.261 36.5497C101.261 36.5497 100.509 37.0085 98.5314 36.4304C99.0636 37.4168 101.041 37.4535 101.518 37.2287C101.995 37.0039 101.261 36.5497 101.261 36.5497Z" fill="#263238"/>
<path d="M109.006 40.6192C109.186 41.3565 109.605 42.0133 110.199 42.4865C110.983 43.1058 111.575 42.5369 111.575 41.6285C111.543 40.8119 111.116 39.5089 110.226 39.2428C109.336 38.9767 108.799 39.7291 109.006 40.6192Z" fill="#CE7A63"/>
<path d="M117.182 54.0299C117.59 54.9796 117.975 55.9385 118.37 56.8928C118.764 57.8471 119.15 58.806 119.531 59.7649L121.797 65.4953C122.178 66.4404 122.559 67.3809 122.944 68.2848L123.238 68.9363L123.311 69.0968V69.1335C123.311 69.1335 123.311 69.1335 123.284 69.0877C123.218 68.9728 123.143 68.8638 123.059 68.7619C122.888 68.5737 122.684 68.4183 122.458 68.3031C122.292 68.2101 122.112 68.1436 121.926 68.1058C121.811 68.0802 121.694 68.0648 121.577 68.06C121.505 68.0553 121.433 68.0553 121.361 68.06C121.29 68.0646 121.219 68.0769 121.15 68.0967C121.111 68.104 121.074 68.118 121.04 68.1379C121.178 68.1118 121.311 68.0654 121.435 68.0003C121.618 67.9177 121.825 67.8168 122.027 67.7067C122.862 67.2479 123.742 66.7478 124.619 66.2385C125.495 65.7293 126.403 65.2154 127.312 64.7291H127.339C127.594 64.5917 127.889 64.5475 128.172 64.604C128.456 64.6606 128.711 64.8143 128.894 65.0388C129.077 65.2632 129.175 65.5443 129.173 65.8337C129.17 66.1231 129.067 66.4025 128.881 66.6239C127.509 68.2887 125.971 69.8105 124.293 71.166C124.068 71.3404 123.834 71.5147 123.573 71.6936C123.261 71.912 122.929 72.0995 122.582 72.2534C122.433 72.3168 122.28 72.369 122.123 72.4094C121.992 72.4437 121.858 72.4667 121.724 72.4782C121.618 72.4851 121.513 72.4851 121.407 72.4782C121.253 72.4755 121.099 72.4571 120.948 72.4231C120.732 72.3751 120.524 72.2979 120.329 72.1937C120.071 72.0563 119.843 71.871 119.655 71.6478C119.559 71.5341 119.473 71.4128 119.398 71.2853L119.356 71.2073L119.329 71.1614L119.228 70.9733C119.086 70.721 118.966 70.4824 118.833 70.2347C118.333 69.2712 117.879 68.3215 117.457 67.3672C116.571 65.4632 115.741 63.5637 114.929 61.6551C114.525 60.7008 114.128 59.7435 113.736 58.7831C113.346 57.8242 112.956 56.8653 112.584 55.9018C112.337 55.2934 112.341 54.6116 112.596 54.0063C112.851 53.401 113.336 52.9218 113.945 52.6742C114.553 52.4266 115.235 52.4308 115.84 52.6859C116.446 52.941 116.925 53.4261 117.172 54.0345L117.182 54.0299Z" fill="#CF7A64"/>
<path d="M129.156 62.8297C128.57 63.1653 128.056 63.6132 127.644 64.1478C127.231 64.6824 126.928 65.293 126.752 65.9449L127.885 67.3993L130.363 66.6331C130.559 66.5712 130.729 66.4451 130.845 66.2752L132.115 64.3987C132.214 64.2161 132.259 64.009 132.245 63.8017C132.23 63.5945 132.156 63.3958 132.033 63.2288L130.689 61.4211L129.156 62.8297Z" fill="#CE7A63"/>
<path d="M110.446 56.3193C110.731 59.9576 114.736 64.7107 114.736 64.7107L120.384 60.476C120.384 60.476 119.526 55.3604 116.599 52.5847C112.979 49.1575 110.176 52.915 110.446 56.3193Z" fill="#C8D2BF"/>
<path d="M111.818 50.5018C111.295 48.9694 105.28 48.7033 101.656 49.0704C98.0313 49.4374 99.8573 52.259 100.468 52.6536C98.825 53.2638 99.7013 56.1634 102.762 57.5857C105.822 59.0079 112.47 52.3508 111.818 50.5018Z" fill="#263238"/>
<path d="M164.536 19.2792C164.21 22.3804 163.029 25.3302 161.126 27.7998C159.222 30.2693 156.669 32.1616 153.753 33.2656C150.837 34.3696 147.671 34.642 144.609 34.0523C141.547 33.4626 138.709 32.0341 136.412 29.926L127.994 31.1635L132.208 23.8799C131.152 21.3167 130.753 18.5308 131.046 15.7743C131.588 11.3959 133.827 7.40517 137.28 4.6598C140.734 1.91443 145.127 0.63363 149.515 1.09271C153.903 1.5518 157.935 3.71411 160.746 7.11486C163.556 10.5156 164.921 14.8833 164.545 19.2792H164.536Z" fill="white"/>
<path d="M164.536 19.2792C164.198 22.3703 163.022 25.3103 161.135 27.7815C160.205 29.0298 159.09 30.1288 157.828 31.0408C156.589 31.9866 155.221 32.7501 153.766 33.3081C152.316 33.8781 150.792 34.2407 149.241 34.385C148.461 34.4417 147.678 34.4417 146.898 34.385C146.115 34.3645 145.335 34.2824 144.565 34.1394C141.461 33.5732 138.578 32.1497 136.242 30.0299L136.44 30.0866L128.023 31.3808L127.418 31.4753L127.72 30.9368L131.915 23.6437V23.9271C130.93 21.5352 130.505 18.9501 130.67 16.3688C130.835 13.7874 131.587 11.2778 132.869 9.03086C134.15 6.78396 135.927 4.85902 138.065 3.40255C140.203 1.94609 142.644 0.996479 145.204 0.626004C147.764 0.25553 150.375 0.473948 152.838 1.26465C155.301 2.05535 157.551 3.39748 159.417 5.18889C161.283 6.98031 162.715 9.1738 163.606 11.6024C164.496 14.031 164.82 16.6307 164.554 19.2036L164.536 19.2792ZM164.536 19.2792C164.801 16.7443 164.483 14.1822 163.604 11.7897C162.725 9.39727 161.309 7.23818 159.465 5.47835C157.621 3.71852 155.399 2.4048 152.968 1.63814C150.537 0.871485 147.963 0.672299 145.443 1.05589C142.947 1.4325 140.569 2.37262 138.49 3.80496C136.429 5.24976 134.708 7.12595 133.445 9.30314C132.203 11.4851 131.473 13.9208 131.31 16.4262C131.159 18.9279 131.565 21.432 132.501 23.7571L132.557 23.9083L132.482 24.0405L128.24 31.3147L127.938 30.8707L136.364 29.6898H136.487L136.563 29.7654C138.814 31.8736 141.607 33.3129 144.631 33.9221C145.384 34.0753 146.149 34.1669 146.917 34.1961C147.681 34.2527 148.448 34.2527 149.212 34.1961C150.75 34.0751 152.263 33.7413 153.709 33.2041C155.165 32.6804 156.534 31.9416 157.771 31.0124C158.395 30.5571 158.988 30.0616 159.548 29.5292C160.096 28.9816 160.61 28.4011 161.087 27.791C162.996 25.3237 164.189 22.379 164.536 19.2792Z" fill="#263238"/>
<path d="M149.278 21.3471C149.278 20.7419 149.108 20.2622 148.769 19.9079C148.437 19.5463 147.868 19.2142 147.064 18.9116C146.259 18.609 145.566 18.3101 144.982 18.0148C144.399 17.7122 143.898 17.369 143.477 16.9853C143.064 16.5941 142.739 16.1365 142.503 15.6125C142.274 15.0885 142.159 14.4648 142.159 13.7415C142.159 12.4942 142.558 11.472 143.355 10.6749C144.152 9.87785 145.211 9.41288 146.532 9.28003V6.91089H148.304V9.31324C149.61 9.49775 150.632 10.0439 151.37 10.9517C152.108 11.8521 152.477 13.0219 152.477 14.4611H149.278C149.278 13.5755 149.093 12.9149 148.724 12.4795C148.363 12.0366 147.876 11.8152 147.263 11.8152C146.658 11.8152 146.189 11.9887 145.857 12.3356C145.525 12.6751 145.359 13.1474 145.359 13.7526C145.359 14.3135 145.521 14.7637 145.846 15.1032C146.171 15.4427 146.772 15.7896 147.651 16.1439C148.536 16.4981 149.263 16.834 149.831 17.1513C150.4 17.4613 150.879 17.8156 151.271 18.2141C151.662 18.6053 151.961 19.0555 152.167 19.5647C152.374 20.0666 152.477 20.6534 152.477 21.325C152.477 22.5797 152.086 23.5982 151.304 24.3805C150.522 25.1628 149.444 25.6241 148.071 25.7644V27.9674H146.311V25.7754C144.798 25.6131 143.624 25.078 142.79 24.1702C141.964 23.255 141.551 22.0409 141.551 20.5279H144.75C144.75 21.4062 144.957 22.0815 145.37 22.5538C145.791 23.0188 146.392 23.2513 147.174 23.2513C147.824 23.2513 148.337 23.0816 148.713 22.742C149.09 22.3952 149.278 21.9302 149.278 21.3471Z" fill="#0B777D"/>
</svg>
