<svg width="231" height="172" viewBox="0 0 231 172" fill="none" xmlns="http://www.w3.org/2000/svg">
<path d="M230.324 150.794H0.437744V150.909H230.324V150.794Z" fill="#E0E0E0"/>
<path d="M174.844 155.034H159.027V155.149H174.844V155.034Z" fill="#E0E0E0"/>
<path d="M193.451 154.707H184.549V154.822H193.451V154.707Z" fill="#E0E0E0"/>
<path d="M114.158 154.979H102.351V155.093H114.158V154.979Z" fill="#E0E0E0"/>
<path d="M122.687 156.611H114.622V156.726H122.687V156.611Z" fill="#E0E0E0"/>
<path d="M66.9532 153.815H42.5898V153.93H66.9532V153.815Z" fill="#E0E0E0"/>
<path d="M109.404 130.289H20.6264C19.9309 130.287 19.2643 130.01 18.773 129.518C18.2816 129.026 18.0057 128.359 18.0057 127.663V2.86697C18.0117 2.17548 18.2904 1.5143 18.7811 1.02705C19.2718 0.539804 19.9349 0.265833 20.6264 0.264648H109.404C110.1 0.264648 110.768 0.541243 111.26 1.03358C111.753 1.52592 112.029 2.19368 112.029 2.88995V127.663C112.029 128.36 111.753 129.027 111.26 129.52C110.768 130.012 110.1 130.289 109.404 130.289ZM20.6264 0.356603C19.9614 0.357821 19.3241 0.622842 18.8543 1.09349C18.3845 1.56415 18.1206 2.20197 18.1206 2.86697V127.663C18.1206 128.328 18.3845 128.966 18.8543 129.437C19.3241 129.907 19.9614 130.172 20.6264 130.174H109.404C110.069 130.172 110.707 129.908 111.178 129.437C111.648 128.967 111.913 128.329 111.914 127.663V2.86697C111.913 2.20155 111.648 1.56373 111.178 1.09321C110.707 0.622693 110.069 0.357819 109.404 0.356603H20.6264Z" fill="#E0E0E0"/>
<path d="M208.858 130.289H120.075C119.379 130.287 118.712 130.01 118.22 129.518C117.728 129.026 117.451 128.359 117.45 127.663V2.86697C117.457 2.17506 117.737 1.51389 118.228 1.02677C118.72 0.539643 119.383 0.26582 120.075 0.264648H208.858C209.548 0.267041 210.21 0.541547 210.7 1.02867C211.19 1.51579 211.468 2.17627 211.474 2.86697V127.663C211.474 128.358 211.198 129.024 210.708 129.516C210.218 130.008 209.552 130.286 208.858 130.289ZM120.075 0.356603C119.41 0.357819 118.772 0.622693 118.302 1.09321C117.831 1.56373 117.566 2.20155 117.565 2.86697V127.663C117.566 128.329 117.831 128.967 118.302 129.437C118.772 129.908 119.41 130.172 120.075 130.174H208.858C209.523 130.172 210.161 129.908 210.631 129.437C211.102 128.967 211.367 128.329 211.368 127.663V2.86697C211.367 2.20155 211.102 1.56373 210.631 1.09321C210.161 0.622693 209.523 0.357819 208.858 0.356603H120.075Z" fill="#E0E0E0"/>
<path d="M199.993 11.4233H130.705V70.9916H199.993V11.4233Z" fill="#E0E0E0"/>
<path d="M201.533 11.4233H132.246V70.9916H201.533V11.4233Z" fill="#F0F0F0"/>
<path d="M198.77 68.1962V14.2188L135.009 14.2188V68.1962H198.77Z" fill="#FAFAFA"/>
<path d="M178.393 68.1964V14.219H174.228V68.1964H178.393Z" fill="#E0E0E0"/>
<path d="M156.48 68.1962V14.2188H152.315V68.1962H156.48Z" fill="#E0E0E0"/>
<path d="M179.86 69.9663V12.136H175.694V69.9663H179.86Z" fill="#F0F0F0"/>
<path d="M157.942 69.9709V12.1406H153.777V69.9709H157.942Z" fill="#F0F0F0"/>
<path d="M198.77 68.1918V14.2144H197.607V68.1918H198.77Z" fill="#E0E0E0"/>
<path d="M81.974 58.4673C81.974 58.4673 73.5417 43.943 85.243 32.3613C85.243 32.3613 88.2959 34.3522 88.2499 37.028C88.2039 39.7039 84.9763 40.3798 85.6706 42.6143C86.3648 44.8488 89.4039 47.0327 87.4085 48.881C85.4131 50.7293 87.7303 52.3661 87.597 54.6282C87.4637 56.8902 81.974 58.4673 81.974 58.4673Z" fill="#E0E0E0"/>
<path d="M83.298 60.8443C83.298 60.8443 86.7188 44.3936 71.9692 37.1016C71.9692 37.1016 69.6979 39.9522 70.5899 42.4763C71.4819 45.0005 74.7509 44.6235 74.7968 46.9637C74.8428 49.304 72.6497 52.3385 75.1233 53.4603C77.5969 54.5822 75.9187 56.8718 76.7601 58.9776C77.6014 61.0833 83.298 60.8443 83.298 60.8443Z" fill="#E6E6E6"/>
<path d="M75.79 56.665C75.79 56.665 75.9371 70.8674 81.6153 70.8674C87.2935 70.8674 87.436 56.665 87.436 56.665H75.79Z" fill="#F0F0F0"/>
<path d="M41.6748 65.5249C41.6748 65.5249 41.992 70.8675 54.1163 70.8675C66.2405 70.8675 66.5623 65.5249 66.5623 65.5249H41.6748Z" fill="#E6E6E6"/>
<path d="M169.496 97.7366H163.096C162.299 97.7366 161.653 98.3829 161.653 99.1803V109.764C161.653 110.562 162.299 111.208 163.096 111.208H169.496C170.294 111.208 170.94 110.562 170.94 109.764V99.1803C170.94 98.3829 170.294 97.7366 169.496 97.7366Z" fill="#F0F0F0"/>
<path d="M186.471 102.141H182.163C181.627 102.141 181.193 102.576 181.193 103.111V110.238C181.193 110.774 181.627 111.208 182.163 111.208H186.471C187.007 111.208 187.441 110.774 187.441 110.238V103.111C187.441 102.576 187.007 102.141 186.471 102.141Z" fill="#E6E6E6"/>
<path d="M187.115 101.263H181.52C181.339 101.263 181.193 101.409 181.193 101.59V101.957C181.193 102.138 181.339 102.284 181.52 102.284H187.115C187.295 102.284 187.441 102.138 187.441 101.957V101.59C187.441 101.409 187.295 101.263 187.115 101.263Z" fill="#F0F0F0"/>
<path d="M146.839 103.714C146.839 103.714 147.069 111.208 155.846 111.208C164.623 111.208 164.857 103.714 164.857 103.714H146.839Z" fill="#E6E6E6"/>
<path d="M125.009 93.8147H138.292V91.194H125.009V93.8147Z" fill="#E0E0E0"/>
<path d="M204.329 91.1987H138.292V93.8194H204.329V91.1987Z" fill="#F0F0F0"/>
<path d="M125.009 113.829H138.292V111.208H125.009V113.829Z" fill="#E0E0E0"/>
<path d="M204.329 111.208H138.292V113.829H204.329V111.208Z" fill="#F0F0F0"/>
<path d="M129.795 93.8147H127.344V150.79H129.795V93.8147Z" fill="#E0E0E0"/>
<path d="M140.742 93.8147H138.292V150.79H140.742V93.8147Z" fill="#F0F0F0"/>
<path d="M195.832 93.8147H193.382V150.79H195.832V93.8147Z" fill="#E0E0E0"/>
<path d="M204.329 93.8147H201.878V150.79H204.329V93.8147Z" fill="#F0F0F0"/>
<path d="M41.6748 74.2007H29.1138V147.346H41.6748V74.2007Z" fill="#E6E6E6"/>
<path d="M93.4683 147.342H31.5276V150.794H93.4683V147.342Z" fill="#E6E6E6"/>
<path d="M41.6748 147.342H95.8775L95.8775 74.1962H41.6748L41.6748 147.342Z" fill="#F0F0F0"/>
<path d="M46.6127 119.705H90.9395V101.838H46.6127V119.705Z" fill="#E6E6E6"/>
<path d="M46.6127 140.827H90.9395V122.96H46.6127V140.827Z" fill="#E6E6E6"/>
<path d="M73.7532 103.797H63.7991C63.4751 103.795 63.1648 103.666 62.9357 103.437C62.7066 103.208 62.5773 102.898 62.5761 102.574C62.5761 102.249 62.7048 101.937 62.934 101.707C63.1633 101.477 63.4743 101.347 63.7991 101.346H73.7532C74.078 101.347 74.389 101.477 74.6183 101.707C74.8475 101.937 74.9762 102.249 74.9762 102.574C74.975 102.898 74.8458 103.208 74.6167 103.437C74.3876 103.666 74.0772 103.795 73.7532 103.797Z" fill="#F0F0F0"/>
<path d="M46.6127 98.5781H90.9395V80.7113H46.6127V98.5781Z" fill="#E6E6E6"/>
<path d="M73.7532 82.6745H63.7991C63.4743 82.6733 63.1633 82.5434 62.934 82.3133C62.7048 82.0832 62.5761 81.7717 62.5761 81.4469C62.5773 81.1229 62.7066 80.8125 62.9357 80.5834C63.1648 80.3543 63.4751 80.2251 63.7991 80.2239H73.7532C74.0772 80.2251 74.3876 80.3543 74.6167 80.5834C74.8458 80.8125 74.975 81.1229 74.9762 81.4469C74.9762 81.7717 74.8475 82.0832 74.6183 82.3133C74.389 82.5434 74.078 82.6733 73.7532 82.6745Z" fill="#F0F0F0"/>
<path d="M73.7532 124.918H63.7991C63.4751 124.917 63.1648 124.788 62.9357 124.559C62.7066 124.33 62.5773 124.019 62.5761 123.695C62.5761 123.371 62.7048 123.059 62.934 122.829C63.1633 122.599 63.4743 122.469 63.7991 122.468H73.7532C74.078 122.469 74.389 122.599 74.6183 122.829C74.8475 123.059 74.9762 123.371 74.9762 123.695C74.975 124.019 74.8458 124.33 74.6167 124.559C74.3876 124.788 74.0772 124.917 73.7532 124.918Z" fill="#F0F0F0"/>
<path d="M97.5511 70.8674H41.6748V74.2008H97.5511V70.8674Z" fill="#E6E6E6"/>
<path d="M27.3575 74.1963H41.6748V70.8629H27.3575V74.1963Z" fill="#E0E0E0"/>
<path d="M55.6749 14.2188H35.3529V36.5362H55.6749V14.2188Z" fill="#E6E6E6"/>
<path d="M57.8772 14.2188H36.884V36.5362H57.8772V14.2188Z" fill="#F0F0F0"/>
<path d="M56.1163 34.7752V15.9751L38.6403 15.9751V34.7752H56.1163Z" fill="#FAFAFA"/>
<path d="M51.8818 30.2189V20.5315H42.8794V30.2189H51.8818Z" fill="#F0F0F0"/>
<path d="M77.1003 7.63013H61.6887V24.1866H77.1003V7.63013Z" fill="#E6E6E6"/>
<path d="M78.7371 7.63013H63.1646V24.1866H78.7371V7.63013Z" fill="#F0F0F0"/>
<path d="M77.4315 22.881V8.93604H64.4704V22.881H77.4315Z" fill="#FAFAFA"/>
<path d="M70.9486 12.3796L67.4037 18.5222H74.4935L70.9486 12.3796Z" fill="#F0F0F0"/>
<path d="M115.381 171.558C164.615 171.558 204.527 169.228 204.527 166.353C204.527 163.479 164.615 161.149 115.381 161.149C66.1474 161.149 26.2356 163.479 26.2356 166.353C26.2356 169.228 66.1474 171.558 115.381 171.558Z" fill="#F5F5F5"/>
<path d="M193.451 42.0212H148.347C145.968 42.0212 144.039 43.95 144.039 46.3293V58.5961C144.039 60.9754 145.968 62.9042 148.347 62.9042H193.451C195.83 62.9042 197.759 60.9754 197.759 58.5961V46.3293C197.759 43.95 195.83 42.0212 193.451 42.0212Z" fill="#A6D3D6"/>
<path d="M184.503 45.543H149.271C148.855 45.543 148.517 45.8806 148.517 46.297V47.1246C148.517 47.541 148.855 47.8786 149.271 47.8786H184.503C184.92 47.8786 185.257 47.541 185.257 47.1246V46.297C185.257 45.8806 184.92 45.543 184.503 45.543Z" fill="#0B777D"/>
<path d="M173.345 51.1709H149.271C148.855 51.1709 148.517 51.5085 148.517 51.9249V52.7525C148.517 53.169 148.855 53.5065 149.271 53.5065H173.345C173.761 53.5065 174.099 53.169 174.099 52.7525V51.9249C174.099 51.5085 173.761 51.1709 173.345 51.1709Z" fill="#0B777D"/>
<path d="M166.89 56.7983H149.271C148.855 56.7983 148.517 57.1359 148.517 57.5524V58.38C148.517 58.7964 148.855 59.134 149.271 59.134H166.89C167.306 59.134 167.644 58.7964 167.644 58.38V57.5524C167.644 57.1359 167.306 56.7983 166.89 56.7983Z" fill="#0B777D"/>
<path d="M188.724 56.7983H171.106C170.689 56.7983 170.352 57.1359 170.352 57.5524V58.38C170.352 58.7964 170.689 59.134 171.106 59.134H188.724C189.141 59.134 189.478 58.7964 189.478 58.38V57.5524C189.478 57.1359 189.141 56.7983 188.724 56.7983Z" fill="#0B777D"/>
<g opacity="0.5">
<path opacity="0.5" d="M184.503 45.543H149.271C148.855 45.543 148.517 45.8806 148.517 46.297V47.1246C148.517 47.541 148.855 47.8786 149.271 47.8786H184.503C184.92 47.8786 185.257 47.541 185.257 47.1246V46.297C185.257 45.8806 184.92 45.543 184.503 45.543Z" fill="white"/>
<path opacity="0.5" d="M173.345 51.1707H149.271C148.854 51.1707 148.517 51.5082 148.517 51.9247V52.7523C148.517 53.1687 148.854 53.5063 149.271 53.5063H173.345C173.761 53.5063 174.099 53.1687 174.099 52.7523V51.9247C174.099 51.5082 173.761 51.1707 173.345 51.1707Z" fill="white"/>
<path opacity="0.5" d="M166.889 56.7983H149.271C148.854 56.7983 148.517 57.1359 148.517 57.5524V58.38C148.517 58.7964 148.854 59.134 149.271 59.134H166.889C167.306 59.134 167.643 58.7964 167.643 58.38V57.5524C167.643 57.1359 167.306 56.7983 166.889 56.7983Z" fill="white"/>
<path opacity="0.5" d="M188.724 56.7983H171.106C170.689 56.7983 170.352 57.1359 170.352 57.5524V58.38C170.352 58.7964 170.689 59.134 171.106 59.134H188.724C189.141 59.134 189.478 58.7964 189.478 58.38V57.5524C189.478 57.1359 189.141 56.7983 188.724 56.7983Z" fill="white"/>
</g>
<path d="M157.322 37.1523H106.126C102.637 37.1523 99.8086 39.9807 99.8086 43.4696V61.456C99.8086 64.9449 102.637 67.7733 106.126 67.7733H157.322C160.811 67.7733 163.639 64.9449 163.639 61.456V43.4696C163.639 39.9807 160.811 37.1523 157.322 37.1523Z" fill="#0B777D"/>
<path d="M159.133 42.3154H107.482C106.87 42.3154 106.374 42.8115 106.374 43.4235V44.6327C106.374 45.2446 106.87 45.7407 107.482 45.7407H159.133C159.745 45.7407 160.241 45.2446 160.241 44.6327V43.4235C160.241 42.8115 159.745 42.3154 159.133 42.3154Z" fill="#0B777D"/>
<path d="M142.77 50.5684H107.482C106.87 50.5684 106.374 51.0645 106.374 51.6764V52.8856C106.374 53.4976 106.87 53.9937 107.482 53.9937H142.77C143.382 53.9937 143.878 53.4976 143.878 52.8856V51.6764C143.878 51.0645 143.382 50.5684 142.77 50.5684Z" fill="#0B777D"/>
<path d="M133.308 58.8213H107.482C106.87 58.8213 106.374 59.3174 106.374 59.9293V61.1385C106.374 61.7505 106.87 62.2466 107.482 62.2466H133.308C133.92 62.2466 134.416 61.7505 134.416 61.1385V59.9293C134.416 59.3174 133.92 58.8213 133.308 58.8213Z" fill="#0B777D"/>
<path d="M161.014 58.8213H139.496C138.884 58.8213 138.388 59.3174 138.388 59.9293V61.1385C138.388 61.7505 138.884 62.2466 139.496 62.2466H161.014C161.626 62.2466 162.122 61.7505 162.122 61.1385V59.9293C162.122 59.3174 161.626 58.8213 161.014 58.8213Z" fill="#0B777D"/>
<g opacity="0.5">
<path opacity="0.5" d="M159.133 42.3154H107.482C106.87 42.3154 106.374 42.8115 106.374 43.4235V44.6327C106.374 45.2446 106.87 45.7407 107.482 45.7407H159.133C159.745 45.7407 160.241 45.2446 160.241 44.6327V43.4235C160.241 42.8115 159.745 42.3154 159.133 42.3154Z" fill="white"/>
<path opacity="0.5" d="M142.77 50.5686H107.482C106.87 50.5686 106.374 51.0647 106.374 51.6767V52.8859C106.374 53.4978 106.87 53.9939 107.482 53.9939H142.77C143.382 53.9939 143.878 53.4978 143.878 52.8859V51.6767C143.878 51.0647 143.382 50.5686 142.77 50.5686Z" fill="white"/>
<path opacity="0.5" d="M133.308 58.8215H107.482C106.87 58.8215 106.374 59.3176 106.374 59.9296V61.1388C106.374 61.7507 106.87 62.2468 107.482 62.2468H133.308C133.92 62.2468 134.416 61.7507 134.416 61.1388V59.9296C134.416 59.3176 133.92 58.8215 133.308 58.8215Z" fill="white"/>
<path opacity="0.5" d="M161.014 58.8215H139.496C138.884 58.8215 138.388 59.3176 138.388 59.9296V61.1388C138.388 61.7507 138.884 62.2468 139.496 62.2468H161.014C161.626 62.2468 162.122 61.7507 162.122 61.1388V59.9296C162.122 59.3176 161.626 58.8215 161.014 58.8215Z" fill="white"/>
</g>
<path d="M125.491 73.3228H100.834C99.2036 73.3228 97.8821 74.6443 97.8821 76.2745V113.213C97.8821 114.843 99.2036 116.164 100.834 116.164H125.491C127.122 116.164 128.443 114.843 128.443 113.213V76.2745C128.443 74.6443 127.122 73.3228 125.491 73.3228Z" fill="#0B777D"/>
<path opacity="0.4" d="M125.491 73.3228H100.834C99.2036 73.3228 97.8821 74.6443 97.8821 76.2745V113.213C97.8821 114.843 99.2036 116.164 100.834 116.164H125.491C127.122 116.164 128.443 114.843 128.443 113.213V76.2745C128.443 74.6443 127.122 73.3228 125.491 73.3228Z" fill="black"/>
<path d="M124.36 77.7915H101.96C101.661 77.7915 101.418 78.0344 101.418 78.334V79.1478C101.418 79.4475 101.661 79.6904 101.96 79.6904H124.36C124.66 79.6904 124.903 79.4475 124.903 79.1478V78.334C124.903 78.0344 124.66 77.7915 124.36 77.7915Z" fill="#FAFAFA"/>
<path d="M117.229 82.3618H101.96C101.661 82.3618 101.418 82.6047 101.418 82.9044V83.7181C101.418 84.0178 101.661 84.2607 101.96 84.2607H117.229C117.529 84.2607 117.772 84.0178 117.772 83.7181V82.9044C117.772 82.6047 117.529 82.3618 117.229 82.3618Z" fill="#FAFAFA"/>
<path d="M124.36 86.9365H101.96C101.661 86.9365 101.418 87.1794 101.418 87.4791V88.2929C101.418 88.5925 101.661 88.8354 101.96 88.8354H124.36C124.66 88.8354 124.903 88.5925 124.903 88.2929V87.4791C124.903 87.1794 124.66 86.9365 124.36 86.9365Z" fill="#FAFAFA"/>
<path d="M110.287 91.5068H101.96C101.661 91.5068 101.418 91.7497 101.418 92.0494V92.8632C101.418 93.1628 101.661 93.4057 101.96 93.4057H110.287C110.586 93.4057 110.829 93.1628 110.829 92.8632V92.0494C110.829 91.7497 110.586 91.5068 110.287 91.5068Z" fill="#FAFAFA"/>
<path d="M121.937 91.5068H113.611C113.311 91.5068 113.068 91.7497 113.068 92.0494V92.8632C113.068 93.1628 113.311 93.4057 113.611 93.4057H121.937C122.237 93.4057 122.48 93.1628 122.48 92.8632V92.0494C122.48 91.7497 122.237 91.5068 121.937 91.5068Z" fill="#FAFAFA"/>
<path d="M124.36 96.0813H101.96C101.661 96.0813 101.418 96.3242 101.418 96.6238V97.4376C101.418 97.7373 101.661 97.9802 101.96 97.9802H124.36C124.66 97.9802 124.903 97.7373 124.903 97.4376V96.6238C124.903 96.3242 124.66 96.0813 124.36 96.0813Z" fill="#FAFAFA"/>
<path d="M124.36 100.651H101.96C101.661 100.651 101.418 100.894 101.418 101.194V102.008C101.418 102.307 101.661 102.55 101.96 102.55H124.36C124.66 102.55 124.903 102.307 124.903 102.008V101.194C124.903 100.894 124.66 100.651 124.36 100.651Z" fill="#FAFAFA"/>
<path d="M120.388 105.226H101.96C101.661 105.226 101.418 105.469 101.418 105.769V106.583C101.418 106.882 101.661 107.125 101.96 107.125H120.388C120.688 107.125 120.931 106.882 120.931 106.583V105.769C120.931 105.469 120.688 105.226 120.388 105.226Z" fill="#FAFAFA"/>
<path d="M110.558 109.796H101.96C101.661 109.796 101.418 110.039 101.418 110.339V111.153C101.418 111.452 101.661 111.695 101.96 111.695H110.558C110.858 111.695 111.101 111.452 111.101 111.153V110.339C111.101 110.039 110.858 109.796 110.558 109.796Z" fill="#FAFAFA"/>
<path d="M132.163 73.0605H97.9603L113.082 85.0928L136.269 93.8285V77.1571C136.266 76.0698 135.833 75.0278 135.063 74.2598C134.293 73.4919 133.25 73.0605 132.163 73.0605Z" fill="#0B777D"/>
<path opacity="0.4" d="M132.163 73.0605H97.9603L113.082 85.0928L136.269 93.8285V77.1571C136.266 76.0698 135.833 75.0278 135.063 74.2598C134.293 73.4919 133.25 73.0605 132.163 73.0605Z" fill="black"/>
<path d="M130.669 79.2583H105.643C105.267 79.2583 104.963 79.563 104.963 79.9388V81.2077C104.963 81.5836 105.267 81.8882 105.643 81.8882H130.669C131.044 81.8882 131.349 81.5836 131.349 81.2077V79.9388C131.349 79.563 131.044 79.2583 130.669 79.2583Z" fill="#FAFAFA"/>
<path d="M191.313 105.631V81.5757C191.313 79.7322 189.818 78.2378 187.975 78.2378H146.204C144.361 78.2378 142.866 79.7322 142.866 81.5757V105.631C142.866 107.475 144.361 108.969 146.204 108.969H187.975C189.818 108.969 191.313 107.475 191.313 105.631Z" fill="#0B777D"/>
<path d="M198.94 98.008V73.9527C198.94 72.1092 197.446 70.6147 195.602 70.6147H153.832C151.988 70.6147 150.494 72.1092 150.494 73.9527V98.008C150.494 99.8515 151.988 101.346 153.832 101.346H195.602C197.446 101.346 198.94 99.8515 198.94 98.008Z" fill="#0B777D"/>
<path opacity="0.5" d="M198.94 98.008V73.9527C198.94 72.1092 197.446 70.6147 195.602 70.6147H153.832C151.988 70.6147 150.494 72.1092 150.494 73.9527V98.008C150.494 99.8515 151.988 101.346 153.832 101.346H195.602C197.446 101.346 198.94 99.8515 198.94 98.008Z" fill="white"/>
<path d="M194.701 89.7641V74.9548C194.701 74.1346 194.036 73.4697 193.216 73.4697H179.566C178.745 73.4697 178.08 74.1346 178.08 74.9548V89.7641C178.08 90.5843 178.745 91.2492 179.566 91.2492H193.216C194.036 91.2492 194.701 90.5843 194.701 89.7641Z" fill="#0B777D"/>
<path opacity="0.7" d="M194.701 89.7641V74.9548C194.701 74.1346 194.036 73.4697 193.216 73.4697H179.566C178.745 73.4697 178.08 74.1346 178.08 74.9548V89.7641C178.08 90.5843 178.745 91.2492 179.566 91.2492H193.216C194.036 91.2492 194.701 90.5843 194.701 89.7641Z" fill="white"/>
<path d="M175.478 96.9274V85.5802C175.478 84.9504 174.968 84.4399 174.338 84.4399H163.878C163.248 84.4399 162.738 84.9504 162.738 85.5802V96.9274C162.738 97.5571 163.248 98.0676 163.878 98.0676H174.338C174.968 98.0676 175.478 97.5571 175.478 96.9274Z" fill="#0B777D"/>
<path opacity="0.3" d="M175.478 96.9274V85.5802C175.478 84.9504 174.968 84.4399 174.338 84.4399H163.878C163.248 84.4399 162.738 84.9504 162.738 85.5802V96.9274C162.738 97.5571 163.248 98.0676 163.878 98.0676H174.338C174.968 98.0676 175.478 97.5571 175.478 96.9274Z" fill="white"/>
<path d="M169.106 24.9821V18.8533C169.106 16.9794 167.586 15.4602 165.712 15.4602L53.468 15.4602C51.594 15.4602 50.0748 16.9794 50.0748 18.8533V24.9821C50.0748 26.8561 51.594 28.3752 53.468 28.3752L165.712 28.3752C167.586 28.3752 169.106 26.8561 169.106 24.9821Z" fill="#0B777D"/>
<path d="M147.869 30.5361V26.0901L115.57 26.0901V30.5361H147.869Z" fill="#0B777D"/>
<path opacity="0.5" d="M147.869 30.5361V26.0901L115.57 26.0901V30.5361H147.869Z" fill="white"/>
<path d="M60.3737 64.2928C59.9691 65.2123 59.5231 66.2054 59.1323 67.1755C58.7415 68.1457 58.3369 69.1434 57.9829 70.1365C57.2565 72.0725 56.6741 74.0595 56.2403 76.0814L56.107 76.817L56.061 77.0929C56.061 77.171 56.061 77.2722 56.0334 77.3641C56.016 77.8118 56.0252 78.2601 56.061 78.7067C56.1484 79.6768 56.3047 80.7159 56.5208 81.755C56.907 83.8377 57.399 85.9849 57.9001 88.0998L55.5415 89.0194C54.442 87.0151 53.5056 84.9256 52.7415 82.7711C52.3389 81.6497 52.0132 80.5022 51.7667 79.3365C51.6287 78.6916 51.5426 78.0366 51.5093 77.3779C51.5093 77.194 51.5093 77.0193 51.5093 76.8216C51.5093 76.6239 51.5093 76.4032 51.5415 76.2745L51.6334 75.3549C51.7708 74.1706 51.9812 72.996 52.2633 71.8376C52.5208 70.6882 52.8518 69.571 53.1829 68.4675C53.5139 67.364 53.9277 66.279 54.3645 65.2123C54.5806 64.679 54.8242 64.1502 55.0357 63.6215C55.2472 63.0928 55.4955 62.587 55.7898 62.0215L60.3737 64.2928Z" fill="#E4897B"/>
<path d="M57.7761 87.479L59.5693 89.2307L55.6566 91.0698C55.6566 91.0698 54.7094 89.4101 55.3669 87.9112L57.7761 87.479Z" fill="#E4897B"/>
<path d="M61.0175 91.8379L57.7117 93.1896L55.6611 91.0517L59.5692 89.231L61.0175 91.8379Z" fill="#E4897B"/>
<path opacity="0.4" d="M127.984 89.9529C121.478 89.2224 115.335 86.5796 110.332 82.3586C105.328 78.1376 101.688 72.5278 99.8725 66.2384C98.0567 59.9491 98.1463 53.2625 100.13 47.0241C102.114 40.7857 105.903 35.2755 111.018 31.1901C116.133 27.1047 122.344 24.6275 128.867 24.0717C135.389 23.5159 141.93 24.9065 147.663 28.0676C153.395 31.2287 158.062 36.0184 161.072 41.8313C164.083 47.6442 165.302 54.2191 164.577 60.725C164.095 65.0476 162.766 69.2327 160.665 73.0413C158.565 76.8499 155.735 80.2073 152.337 82.9217C148.938 85.636 145.038 87.6541 140.86 88.8605C136.681 90.067 132.306 90.4381 127.984 89.9529Z" fill="#FAFAFA"/>
<path opacity="0.4" d="M152.066 30.9727L101.721 71.1983C101.51 70.7385 101.303 70.2787 101.11 69.819C99.8476 66.8168 99.0403 63.6431 98.7144 60.4028L142.2 25.6577C145.77 26.8486 149.108 28.6467 152.066 30.9727Z" fill="#FAFAFA"/>
<path opacity="0.4" d="M163.685 48.596L116.351 86.4124C111.854 84.0683 107.958 80.7205 104.963 76.6284L156.646 35.3315C159.977 39.1554 162.386 43.6937 163.685 48.596Z" fill="#FAFAFA"/>
<path d="M94.4108 44.403L93.9741 44.2558C94.7305 42.0237 95.6813 39.8621 96.8155 37.796L97.2155 38.0167C96.0963 40.0597 95.1578 42.1966 94.4108 44.403ZM99.9925 33.6719L99.6201 33.4006C103.399 28.2915 108.344 24.1598 114.043 21.3499L114.25 21.7637C108.615 24.5446 103.727 28.6322 99.9925 33.6857V33.6719ZM150.379 22.3936C148.877 21.5878 147.322 20.8827 145.726 20.2833L145.892 19.8511C147.503 20.4646 149.073 21.1834 150.591 22.0028L150.379 22.3936Z" fill="#0B777D"/>
<path opacity="0.3" d="M94.4108 44.403L93.9741 44.2558C94.7305 42.0237 95.6813 39.8621 96.8155 37.796L97.2155 38.0167C96.0963 40.0597 95.1578 42.1966 94.4108 44.403ZM99.9925 33.6719L99.6201 33.4006C103.399 28.2915 108.344 24.1598 114.043 21.3499L114.25 21.7637C108.615 24.5446 103.727 28.6322 99.9925 33.6857V33.6719ZM150.379 22.3936C148.877 21.5878 147.322 20.8827 145.726 20.2833L145.892 19.8511C147.503 20.4646 149.073 21.1834 150.591 22.0028L150.379 22.3936Z" fill="black"/>
<path d="M165.896 40.1455C161.639 31.3157 154.147 24.4628 144.974 21.0075C135.8 17.5522 125.649 17.7594 116.624 21.5863C107.6 25.4131 100.394 32.5661 96.5002 41.5623C92.6068 50.5585 92.3245 60.708 95.712 69.9067C92.6407 70.9825 89.6062 72.1366 86.5901 73.3274C82.2406 75.0531 77.931 76.8554 73.6613 78.7343C69.3946 80.624 65.1463 82.5504 60.9393 84.5642C58.829 85.5528 56.7462 86.5964 54.645 87.6079C53.552 88.0776 52.5616 88.7571 51.7301 89.608C51.2801 90.0791 50.8838 90.5988 50.5484 91.1574C50.1393 91.8181 49.8295 92.5353 49.6289 93.2861C49.2829 94.6391 49.4325 96.0713 50.0507 97.3235C50.6688 98.5758 51.7146 99.5656 52.999 100.114C53.7123 100.413 54.4648 100.608 55.2335 100.693C55.8828 100.767 56.5383 100.767 57.1876 100.693C58.3675 100.55 59.5078 100.177 60.5439 99.5942C62.6267 98.5414 64.7233 97.5253 66.7922 96.4448C70.9302 94.3344 75.0682 92.1321 79.1556 89.8976C83.2429 87.6631 87.3349 85.3229 91.3258 82.9228C94.0844 81.2539 96.8706 79.5481 99.6017 77.7642C104.846 86.0432 113.074 91.9872 122.582 94.3646C132.089 96.742 142.147 95.3705 150.671 90.5344C159.195 85.6983 165.531 77.7682 168.367 68.3874C171.204 59.0065 170.322 48.8941 165.906 40.1455H165.896ZM144.995 84.0677C139.652 86.7051 133.647 87.6989 127.739 86.9235C121.831 86.148 116.285 83.6382 111.804 79.7113C107.322 75.7844 104.106 70.6168 102.561 64.8619C101.016 59.107 101.212 53.0232 103.125 47.3799C105.037 41.7365 108.581 36.787 113.306 33.1572C118.031 29.5274 123.727 27.3803 129.673 26.9873C135.618 26.5944 141.547 27.9733 146.709 30.9497C151.871 33.926 156.035 38.3662 158.673 43.7088C160.426 47.2568 161.462 51.1153 161.723 55.0639C161.984 59.0125 161.464 62.9738 160.194 66.7216C158.924 70.4694 156.928 73.9302 154.32 76.9065C151.712 79.8828 148.544 82.3162 144.995 84.0677Z" fill="#0B777D"/>
<path opacity="0.3" d="M165.896 40.1455C161.639 31.3157 154.147 24.4628 144.974 21.0075C135.8 17.5522 125.649 17.7594 116.624 21.5863C107.6 25.4131 100.394 32.5661 96.5002 41.5623C92.6068 50.5585 92.3245 60.708 95.712 69.9067C92.6407 70.9825 89.6062 72.1366 86.5901 73.3274C82.2406 75.0531 77.931 76.8554 73.6613 78.7343C69.3946 80.624 65.1463 82.5504 60.9393 84.5642C58.829 85.5528 56.7462 86.5964 54.645 87.6079C53.552 88.0776 52.5616 88.7571 51.7301 89.608C51.2801 90.0791 50.8838 90.5988 50.5484 91.1574C50.1393 91.8181 49.8295 92.5353 49.6289 93.2861C49.2829 94.6391 49.4325 96.0713 50.0507 97.3235C50.6688 98.5758 51.7146 99.5656 52.999 100.114C53.7123 100.413 54.4648 100.608 55.2335 100.693C55.8828 100.767 56.5383 100.767 57.1876 100.693C58.3675 100.55 59.5078 100.177 60.5439 99.5942C62.6267 98.5414 64.7233 97.5253 66.7922 96.4448C70.9302 94.3344 75.0682 92.1321 79.1556 89.8976C83.2429 87.6631 87.3349 85.3229 91.3258 82.9228C94.0844 81.2539 96.8706 79.5481 99.6017 77.7642C104.846 86.0432 113.074 91.9872 122.582 94.3646C132.089 96.742 142.147 95.3705 150.671 90.5344C159.195 85.6983 165.531 77.7682 168.367 68.3874C171.204 59.0065 170.322 48.8941 165.906 40.1455H165.896ZM144.995 84.0677C139.652 86.7051 133.647 87.6989 127.739 86.9235C121.831 86.148 116.285 83.6382 111.804 79.7113C107.322 75.7844 104.106 70.6168 102.561 64.8619C101.016 59.107 101.212 53.0232 103.125 47.3799C105.037 41.7365 108.581 36.787 113.306 33.1572C118.031 29.5274 123.727 27.3803 129.673 26.9873C135.618 26.5944 141.547 27.9733 146.709 30.9497C151.871 33.926 156.035 38.3662 158.673 43.7088C160.426 47.2568 161.462 51.1153 161.723 55.0639C161.984 59.0125 161.464 62.9738 160.194 66.7216C158.924 70.4694 156.928 73.9302 154.32 76.9065C151.712 79.8828 148.544 82.3162 144.995 84.0677Z" fill="black"/>
<path d="M73.082 47.8743C73.082 48.1456 73.2246 48.3662 73.4039 48.3662C73.5832 48.3662 73.7257 48.1456 73.7257 47.8743C73.7257 47.603 73.5832 47.3823 73.4039 47.3823C73.2246 47.3823 73.082 47.6214 73.082 47.8743Z" fill="#263238"/>
<path d="M73.2107 48.3662C73.5361 49.1989 73.9739 49.9832 74.5119 50.6973C74.3259 50.8303 74.113 50.9211 73.8883 50.9632C73.6635 51.0053 73.4322 50.9977 73.2107 50.9409V48.3662Z" fill="#DE5753"/>
<path d="M72.1302 46.3616C72.1046 46.3616 72.0793 46.3558 72.0562 46.3447C72.0331 46.3335 72.0128 46.3173 71.9969 46.2972C71.9729 46.2621 71.9634 46.2192 71.9702 46.1772C71.9771 46.1353 71.9998 46.0976 72.0337 46.0719C72.2362 45.9184 72.4728 45.816 72.7233 45.7736C72.9739 45.7312 73.231 45.7499 73.4728 45.8283C73.4945 45.8342 73.5147 45.8446 73.5322 45.8588C73.5496 45.873 73.5639 45.8907 73.574 45.9108C73.5842 45.9309 73.59 45.9529 73.5912 45.9754C73.5923 45.9978 73.5887 46.0203 73.5807 46.0413C73.5726 46.0623 73.5602 46.0814 73.5443 46.0973C73.5284 46.1132 73.5093 46.1256 73.4883 46.1337C73.4673 46.1418 73.4448 46.1454 73.4224 46.1442C73.3999 46.1431 73.3779 46.1373 73.3578 46.1271C73.1658 46.0682 72.9624 46.0563 72.7648 46.0923C72.5672 46.1283 72.3811 46.2112 72.2222 46.334C72.1949 46.3521 72.1629 46.3617 72.1302 46.3616Z" fill="#263238"/>
<path d="M63.7945 49.9204C64.2543 52.3894 64.7601 56.9182 63.0313 58.5687C63.0313 58.5687 63.7072 61.0745 68.3003 61.0745C73.3578 61.0745 70.7095 58.5687 70.7095 58.5687C67.9509 57.9067 68.0291 55.8653 68.5072 53.9434L63.7945 49.9204Z" fill="#E4897B"/>
<path d="M60.9669 59.8697C61.514 59.0192 60.5945 56.9548 60.5945 56.9548C60.5945 56.9548 68.7233 54.9088 72.0474 58.049C72.7371 58.6973 71.9739 59.6537 71.9739 59.6537L60.9669 59.8697Z" fill="#0B777D"/>
<path opacity="0.1" d="M60.9669 59.8697C61.514 59.0192 60.5945 56.9548 60.5945 56.9548C60.5945 56.9548 68.7233 54.9088 72.0474 58.049C72.7371 58.6973 71.9739 59.6537 71.9739 59.6537L60.9669 59.8697Z" fill="black"/>
<path d="M47.5186 153.677C47.091 153.677 46.406 152.965 46.2037 152.698C46.195 152.685 46.1903 152.67 46.1903 152.654C46.1903 152.639 46.195 152.624 46.2037 152.611C46.2111 152.598 46.2218 152.587 46.2348 152.58C46.2477 152.573 46.2624 152.569 46.2772 152.569C46.3278 152.569 47.4542 152.671 47.7623 153.071C47.7958 153.113 47.8197 153.162 47.8324 153.214C47.8451 153.267 47.8463 153.321 47.8358 153.374C47.8318 153.442 47.8067 153.508 47.7639 153.561C47.721 153.615 47.6627 153.654 47.5968 153.673L47.5186 153.677ZM46.4519 152.758C46.7876 153.144 47.3255 153.581 47.5554 153.526C47.5554 153.526 47.6473 153.503 47.6749 153.356C47.681 153.325 47.68 153.293 47.672 153.263C47.664 153.233 47.6493 153.205 47.6289 153.181C47.2883 152.923 46.8785 152.772 46.4519 152.749V152.758Z" fill="#0B777D"/>
<path d="M46.5025 152.749C46.4199 152.757 46.3367 152.757 46.2542 152.749C46.2397 152.747 46.2258 152.742 46.2143 152.733C46.2029 152.724 46.1943 152.712 46.1898 152.698C46.1834 152.685 46.18 152.671 46.18 152.657C46.18 152.642 46.1834 152.628 46.1898 152.615C46.222 152.588 46.8979 151.884 47.4082 151.884C47.4693 151.883 47.53 151.894 47.5862 151.918C47.6425 151.942 47.6931 151.977 47.7347 152.022C47.7804 152.06 47.8118 152.113 47.8235 152.172C47.8352 152.23 47.8266 152.291 47.799 152.344C47.6657 152.601 46.9622 152.749 46.5025 152.749ZM46.4427 152.588C46.9025 152.588 47.5691 152.445 47.6795 152.243C47.6795 152.243 47.7117 152.183 47.6381 152.109C47.6114 152.08 47.5786 152.057 47.542 152.042C47.5055 152.027 47.4661 152.02 47.4266 152.022C47.0497 152.109 46.7072 152.305 46.4427 152.588Z" fill="#0B777D"/>
<path d="M77.859 164.114C77.5105 164.112 77.1629 164.079 76.8199 164.017C76.8029 164.014 76.7876 164.005 76.7766 163.992C76.7657 163.978 76.7599 163.961 76.7602 163.944C76.7576 163.928 76.7597 163.912 76.7662 163.897C76.7728 163.882 76.7834 163.87 76.7969 163.861C76.8475 163.834 78.0245 163.158 78.5901 163.314C78.6425 163.326 78.692 163.348 78.7354 163.38C78.7789 163.411 78.8155 163.452 78.8429 163.498C78.8789 163.549 78.8983 163.61 78.8983 163.673C78.8983 163.735 78.8789 163.796 78.8429 163.847C78.7096 164.054 78.2912 164.114 77.859 164.114ZM77.082 163.898C77.7073 163.99 78.5625 163.985 78.7188 163.765C78.7418 163.737 78.7602 163.686 78.7188 163.59C78.6837 163.533 78.6276 163.491 78.5625 163.475C78.2038 163.383 77.4912 163.686 77.082 163.898Z" fill="#0B777D"/>
<path d="M76.8384 164.022C76.8234 164.027 76.8074 164.027 76.7924 164.022C76.7797 164.014 76.7697 164.002 76.764 163.988C76.7582 163.974 76.7569 163.959 76.7602 163.944C76.7914 163.466 76.9751 163.01 77.2844 162.643C77.3469 162.589 77.4204 162.549 77.4997 162.526C77.579 162.503 77.6624 162.498 77.7441 162.51C77.9648 162.51 78.0292 162.643 78.043 162.73C78.1028 163.112 77.2982 163.843 76.889 164.027L76.8384 164.022ZM77.6614 162.643C77.5602 162.642 77.4622 162.678 77.3855 162.744C77.1255 163.035 76.9645 163.4 76.9257 163.788C77.3395 163.535 77.8913 162.965 77.8453 162.735C77.8453 162.735 77.8453 162.657 77.689 162.643H77.6614Z" fill="#0B777D"/>
<path d="M73.1233 163.939H76.5026L76.8383 156.119H73.4589L73.1233 163.939Z" fill="#E4897B"/>
<path d="M43.0312 150.514L45.8542 152.362L52.0887 147.098L49.2611 145.245L43.0312 150.514Z" fill="#E4897B"/>
<path d="M46.3185 152.188L43.3852 149.783C43.3333 149.741 43.2683 149.717 43.2013 149.717C43.1342 149.717 43.0692 149.741 43.0173 149.783L40.5989 151.682C40.5405 151.729 40.4933 151.788 40.4609 151.855C40.4285 151.922 40.4116 151.996 40.4116 152.071C40.4116 152.145 40.4285 152.219 40.4609 152.286C40.4933 152.353 40.5405 152.413 40.5989 152.459C41.638 153.282 42.1852 153.631 43.4771 154.689C44.2725 155.337 46.2358 157.323 47.3438 158.22C48.4519 159.117 49.468 158.151 49.1001 157.687C47.4496 155.595 46.8013 153.806 46.6128 152.698C46.5802 152.498 46.4756 152.316 46.3185 152.188Z" fill="#263238"/>
<path d="M76.4796 163.549H72.8015C72.7344 163.549 72.6693 163.572 72.6168 163.614C72.5643 163.655 72.5273 163.713 72.5118 163.779L71.8451 166.781C71.8284 166.854 71.8284 166.929 71.8452 167.002C71.862 167.075 71.8951 167.143 71.9421 167.201C71.9891 167.259 72.0486 167.306 72.1163 167.337C72.1839 167.369 72.2578 167.385 72.3325 167.383C73.6612 167.36 75.5831 167.282 77.2567 167.282C79.2107 167.282 80.9027 167.388 83.1923 167.388C84.5717 167.388 84.9671 165.986 84.3832 165.861C81.7441 165.282 79.5831 165.222 77.3026 163.811C77.0579 163.649 76.773 163.558 76.4796 163.549Z" fill="#263238"/>
<path d="M56.3737 59.5754C53.445 60.9547 51.776 70.1962 51.776 70.1962L58.9347 73.0514C59.9825 70.4928 60.8295 67.8564 61.468 65.1663C62.4519 60.9088 59.3715 58.1501 56.3737 59.5754Z" fill="#263238"/>
<path d="M60.1715 64.7846C58.4014 66.5777 57.5922 70.0904 57.2382 72.3755L58.9531 73.0605C59.9712 70.5746 60.8011 68.0156 61.4359 65.4053C61.2842 64.4306 60.9071 64.0398 60.1715 64.7846Z" fill="#203048"/>
<path d="M75.905 59.5111C75.905 59.5111 79.5005 63.5755 76.1073 88.7067H58.0428C57.9187 85.9481 59.6612 72.4077 56.9854 59.341C58.9817 58.9539 61.0014 58.6989 63.0314 58.5777C65.5885 58.4259 68.1524 58.4259 70.7096 58.5777C72.4629 58.7542 74.1999 59.0662 75.905 59.5111Z" fill="#263238"/>
<path d="M77.5555 69.2675L74.5118 64.0215C73.9242 66.4692 73.6843 68.9874 73.7991 71.502C73.8819 73.3043 75.5325 79.9802 77.0176 80.9549C77.4116 77.072 77.5912 73.1702 77.5555 69.2675Z" fill="#203048"/>
<path d="M77.9785 63.1021C78.4383 65.3366 78.8981 67.6262 79.3901 69.8699C79.882 72.1136 80.3924 74.3665 80.9855 76.5412C81.1372 77.0792 81.2797 77.6309 81.4452 78.1458L81.5694 78.5412L81.6292 78.7389V78.716C81.597 78.6746 81.5602 78.67 81.5878 78.716C81.7767 78.9223 82.0183 79.0733 82.2866 79.1527C82.7213 79.3145 83.1689 79.4391 83.6246 79.5252C85.7983 79.8697 87.9993 80.0128 90.1993 79.9528L90.6361 82.4539C90.02 82.6516 89.4453 82.7942 88.8384 82.9367C88.2315 83.0792 87.6338 83.1988 87.0223 83.2907C85.7571 83.5013 84.4744 83.5876 83.1924 83.5482C82.4798 83.529 81.7711 83.4365 81.0774 83.2723C80.1954 83.0794 79.3666 82.6948 78.6498 82.1459C78.1817 81.7679 77.7953 81.2986 77.5142 80.7666C77.4406 80.6286 77.3763 80.4723 77.3165 80.339L77.2337 80.1229L77.0636 79.6631C76.8291 79.0792 76.636 78.5045 76.4245 77.9297C75.6475 75.6309 74.9992 73.309 74.4291 70.9918C73.859 68.6745 73.367 66.3618 72.9578 63.9848L77.9785 63.1021Z" fill="#E4897B"/>
<path d="M71.3946 61.9755C70.4428 65.0606 74.3003 74.2606 74.3003 74.2606L81.9831 72.3296C81.9831 72.3296 81.6889 67.548 79.9372 63.7548C77.2981 58.0352 72.5348 58.2743 71.3946 61.9755Z" fill="#263238"/>
<path d="M90.135 79.9525L93.9603 79.856L92.1212 83.8376C92.1212 83.8376 90.5626 84.0445 89.2844 81.9433L87.9373 80.3341L89.4867 80.0261C89.7 79.9812 89.917 79.9565 90.135 79.9525Z" fill="#E4897B"/>
<path d="M96.3741 80.5962L94.1856 83.8974L92.1212 83.8376L93.9603 79.856L96.3741 80.5962Z" fill="#E4897B"/>
<path d="M76.8383 156.119L76.6636 160.151H73.2843L73.459 156.119H76.8383Z" fill="#CE6F64"/>
<path d="M49.2611 145.245L52.0887 147.098L48.8703 149.811L46.0473 147.962L49.2611 145.245Z" fill="#CE6F64"/>
<path d="M64.0061 47.2903C64.2084 50.6329 64.1578 52.6053 65.8452 54.3202C68.3831 56.9088 72.5165 55.3777 73.3165 52.0214C74.0383 49.0145 73.5878 44.0489 70.3142 42.7156C69.5919 42.424 68.8073 42.3207 68.0342 42.4155C67.261 42.5102 66.5246 42.7998 65.894 43.2571C65.2635 43.7144 64.7594 44.3244 64.4292 45.0299C64.0989 45.7353 63.9534 46.5132 64.0061 47.2903Z" fill="#E4897B"/>
<path d="M60.0704 46.7016C60.9026 49.7499 62.8612 53.2626 65.3946 53.4879C68.5394 53.7637 69.9601 50.5131 70.3739 47.1568C72.259 45.8648 71.2705 44.4441 73.1601 44.2648C75.5877 44.0349 74.8107 39.5935 71.6153 38.8809C71.6153 38.8809 72.6866 40.8809 70.4383 39.8694C68.3001 38.8532 65.9247 38.4414 63.5692 38.6786C63.5692 38.6786 66.4382 40.113 63.6336 40.7521C60.829 41.3912 59.9922 43.12 61.2842 44.1636C61.2842 44.1682 59.5232 44.697 60.0704 46.7016Z" fill="#263238"/>
<path d="M68.4566 47.8466C68.5184 48.6775 68.853 49.4647 69.4083 50.0857C70.144 50.8995 70.9118 50.3938 71.0405 49.4053C71.1601 48.5179 70.9164 47.0236 70.0152 46.5731C69.1141 46.1225 68.3968 46.8443 68.4566 47.8466Z" fill="#E4897B"/>
<path d="M69.698 88.7067C69.698 88.7067 72.99 112.546 70.3969 122.1C66.2865 137.227 50.5715 149.995 50.5715 149.995L45.2427 146.5C45.2427 146.5 58.6267 135.719 60.2635 123.052C61.7347 111.682 58.0428 97.9298 58.0428 88.7021L69.698 88.7067Z" fill="#407BFF"/>
<path d="M71.0589 102.334C70.1825 101.33 69.2177 100.407 68.1761 99.5757C68.7371 107.314 69.1968 118.776 68.6865 126.918C69.3727 125.357 69.9443 123.749 70.3969 122.105C71.6612 117.438 71.5279 109.378 71.0589 102.334Z" fill="#0B777D"/>
<path opacity="0.3" d="M71.0589 102.334C70.1825 101.33 69.2177 100.407 68.1761 99.5757C68.7371 107.314 69.1968 118.776 68.6865 126.918C69.3727 125.357 69.9443 123.749 70.3969 122.105C71.6612 117.438 71.5279 109.378 71.0589 102.334Z" fill="#407BFF"/>
<path d="M52.7186 148.804C52.7415 148.804 50.6542 150.183 50.6542 150.183L44.8334 146.367L46.6725 144.845L52.7186 148.804Z" fill="#0B777D"/>
<path opacity="0.3" d="M52.7186 148.804C52.7415 148.804 50.6542 150.183 50.6542 150.183L44.8334 146.367L46.6725 144.845L52.7186 148.804Z" fill="black"/>
<path d="M76.1073 88.7065C76.1073 88.7065 81.1924 110.27 81.551 120.573C81.9556 132.123 77.9234 159.369 77.9234 159.369H72.1992C72.1992 159.369 71.4957 131.911 71.2429 121.392C70.9624 109.92 64.2313 88.7065 64.2313 88.7065H76.1073Z" fill="#407BFF"/>
<path d="M79.0222 157.093C79.0498 157.093 78.7004 159.466 78.7004 159.466H71.7394L71.5509 157.346L79.0222 157.093Z" fill="#0B777D"/>
<path opacity="0.3" d="M79.0222 157.093C79.0498 157.093 78.7004 159.466 78.7004 159.466H71.7394L71.5509 157.346L79.0222 157.093Z" fill="black"/>
<path d="M164.117 67.9849C164.508 68.3527 164.816 68.6653 165.138 69.0148C165.46 69.3642 165.763 69.7044 166.057 70.0584C166.655 70.7619 167.216 71.5021 167.759 72.247C168.842 73.7411 169.806 75.3184 170.641 76.9642L170.811 77.2999C170.894 77.4623 170.964 77.6315 171.018 77.8056C171.129 78.1421 171.197 78.4912 171.221 78.8447C171.251 79.4681 171.165 80.0916 170.968 80.6838C170.632 81.6674 170.133 82.5876 169.492 83.4057C168.337 84.8894 166.974 86.1994 165.446 87.2954L164.301 85.9804C164.839 85.3505 165.4 84.6746 165.901 83.9988C166.411 83.3439 166.872 82.6524 167.28 81.9298C167.662 81.2993 167.944 80.6139 168.117 79.8976C168.177 79.6414 168.187 79.3762 168.149 79.116C168.133 79.0284 168.105 78.9434 168.067 78.8631C168.049 78.8278 168.029 78.794 168.007 78.762L167.86 78.5137C166.973 77.0679 166.011 75.6697 164.977 74.3251C164.467 73.6493 163.919 73.001 163.368 72.3619C163.096 72.0401 162.816 71.7274 162.535 71.4148C162.255 71.1021 161.952 70.7895 161.708 70.5458L164.117 67.9849Z" fill="#E4897B"/>
<path d="M164.742 85.5941L161.308 85.0332L163.106 88.0401C163.106 88.0401 165.317 87.962 165.947 86.6608L164.742 85.5941Z" fill="#E4897B"/>
<path d="M158.77 86.4217L160.407 88.8631L163.106 88.0401L161.308 85.0332L158.77 86.4217Z" fill="#E4897B"/>
<path d="M164.577 164.073C164.343 164.093 164.11 164.029 163.919 163.894C163.862 163.839 163.819 163.771 163.796 163.695C163.772 163.619 163.769 163.539 163.786 163.461C163.789 163.412 163.806 163.365 163.834 163.324C163.863 163.283 163.902 163.251 163.947 163.231C164.347 163.052 165.395 163.723 165.515 163.802C165.528 163.81 165.539 163.823 165.545 163.838C165.551 163.853 165.551 163.869 165.547 163.884C165.545 163.9 165.538 163.915 165.528 163.926C165.517 163.938 165.503 163.946 165.487 163.949C165.189 164.024 164.884 164.066 164.577 164.073ZM164.117 163.36C164.083 163.355 164.049 163.355 164.016 163.36C163.996 163.37 163.978 163.385 163.966 163.403C163.954 163.422 163.947 163.444 163.947 163.466C163.935 163.517 163.936 163.571 163.95 163.622C163.965 163.672 163.992 163.718 164.03 163.756C164.204 163.912 164.655 163.935 165.257 163.815C164.912 163.587 164.524 163.433 164.117 163.36Z" fill="#0B777D"/>
<path d="M165.496 163.944H165.455C165.129 163.756 164.499 163.024 164.577 162.624C164.592 162.561 164.627 162.505 164.676 162.464C164.726 162.422 164.788 162.398 164.853 162.395C164.915 162.386 164.978 162.391 165.038 162.41C165.098 162.429 165.152 162.462 165.198 162.505C165.575 162.836 165.579 163.829 165.579 163.884C165.578 163.898 165.574 163.912 165.567 163.924C165.56 163.936 165.55 163.946 165.538 163.953L165.496 163.944ZM164.908 162.565H164.871C164.77 162.565 164.747 162.62 164.738 162.661C164.692 162.896 165.083 163.457 165.409 163.719C165.417 163.333 165.306 162.954 165.092 162.634C165.064 162.608 165.032 162.589 164.996 162.577C164.96 162.565 164.922 162.561 164.885 162.565H164.908Z" fill="#0B777D"/>
<path d="M148.908 164.073C148.614 164.101 148.32 164.026 148.076 163.861C148.02 163.812 147.978 163.751 147.951 163.682C147.925 163.613 147.916 163.539 147.924 163.466C147.927 163.421 147.941 163.378 147.965 163.34C147.989 163.302 148.022 163.271 148.062 163.25C148.489 163.011 149.859 163.71 150.016 163.797C150.03 163.806 150.042 163.819 150.049 163.835C150.056 163.85 150.059 163.867 150.057 163.884C150.054 163.9 150.047 163.915 150.035 163.927C150.024 163.938 150.009 163.946 149.993 163.949C149.636 164.024 149.273 164.066 148.908 164.073ZM148.296 163.36C148.244 163.357 148.191 163.368 148.144 163.392C148.128 163.4 148.114 163.413 148.104 163.428C148.094 163.443 148.089 163.461 148.089 163.48C148.082 163.528 148.087 163.576 148.103 163.622C148.119 163.668 148.146 163.709 148.181 163.742C148.393 163.93 148.958 163.962 149.722 163.834C149.276 163.597 148.795 163.437 148.296 163.36Z" fill="#0B777D"/>
<path d="M149.979 163.944H149.942C149.533 163.76 148.719 163.024 148.784 162.624C148.784 162.533 148.866 162.418 149.092 162.395C149.174 162.386 149.257 162.394 149.336 162.418C149.415 162.443 149.488 162.483 149.551 162.537C149.984 162.896 150.066 163.824 150.066 163.866C150.068 163.88 150.066 163.894 150.06 163.907C150.055 163.92 150.046 163.931 150.034 163.939C150.017 163.947 149.997 163.949 149.979 163.944ZM149.156 162.565H149.105C148.958 162.565 148.949 162.638 148.944 162.657C148.908 162.891 149.459 163.475 149.864 163.728C149.824 163.335 149.663 162.964 149.404 162.666C149.334 162.606 149.247 162.571 149.156 162.565Z" fill="#0B777D"/>
<path d="M155.414 57.4146C155.28 59.4927 154.922 63.7134 156.517 64.8813C156.517 64.8813 156.227 67.01 152.462 67.5066C148.324 68.0445 150.213 65.7089 150.213 65.7089C152.407 64.8721 152.126 63.2031 151.528 61.6767L155.414 57.4146Z" fill="#E4897B"/>
<path d="M146.848 53.741C146.825 53.741 146.803 53.7361 146.782 53.7266C146.761 53.717 146.743 53.7031 146.728 53.6858C146.597 53.5298 146.431 53.407 146.243 53.3271C146.055 53.2472 145.851 53.2126 145.648 53.226C145.626 53.2299 145.604 53.2294 145.583 53.2245C145.562 53.2197 145.542 53.2105 145.524 53.1976C145.506 53.1847 145.492 53.1683 145.48 53.1495C145.469 53.1306 145.462 53.1098 145.459 53.0881C145.454 53.0448 145.466 53.0013 145.493 52.9669C145.52 52.9324 145.559 52.9099 145.602 52.9042C145.862 52.8822 146.123 52.9235 146.363 53.0243C146.603 53.1252 146.815 53.2828 146.981 53.4835C147.001 53.5075 147.014 53.5366 147.018 53.5675C147.022 53.5984 147.017 53.6298 147.004 53.6581C146.992 53.6865 146.971 53.7106 146.945 53.7277C146.919 53.7448 146.888 53.7542 146.857 53.7547L146.848 53.741Z" fill="#263238"/>
<path d="M146.131 55.7778C145.968 56.4373 145.715 57.0715 145.381 57.6629C145.535 57.7455 145.705 57.7933 145.879 57.8028C146.053 57.8123 146.227 57.7834 146.388 57.7181L146.131 55.7778Z" fill="#DE5753"/>
<path d="M146.315 55.2721C146.351 55.5479 146.236 55.787 146.057 55.8146C145.878 55.8422 145.699 55.6307 145.666 55.3548C145.634 55.079 145.744 54.8399 145.924 54.8169C146.103 54.7939 146.282 54.9778 146.315 55.2721Z" fill="#263238"/>
<path d="M146.007 54.8216L145.322 54.7158C145.322 54.7158 145.726 55.1894 146.007 54.8216Z" fill="#263238"/>
<path d="M153.768 163.87H150.319L150.089 155.893H153.538L153.768 163.87Z" fill="#E4897B"/>
<path d="M169.423 163.87H165.975L164.866 155.893H168.315L169.423 163.87Z" fill="#E4897B"/>
<path d="M165.763 163.484H169.634C169.7 163.484 169.764 163.507 169.814 163.55C169.864 163.593 169.897 163.653 169.906 163.719L170.365 166.785C170.374 166.863 170.366 166.941 170.342 167.015C170.318 167.089 170.279 167.157 170.227 167.215C170.174 167.272 170.111 167.319 170.04 167.35C169.968 167.381 169.891 167.397 169.814 167.397C168.467 167.374 167.814 167.296 166.113 167.296C165.064 167.296 163.533 167.401 162.09 167.401C160.646 167.401 160.568 165.972 161.17 165.843C163.869 165.263 164.296 164.463 165.202 163.696C165.36 163.564 165.558 163.49 165.763 163.484Z" fill="#263238"/>
<path d="M150.204 163.484H154.071C154.138 163.483 154.202 163.507 154.253 163.55C154.303 163.593 154.337 163.653 154.347 163.719L154.807 166.785C154.815 166.863 154.807 166.941 154.783 167.015C154.759 167.089 154.72 167.157 154.668 167.215C154.616 167.272 154.552 167.319 154.481 167.35C154.41 167.381 154.333 167.397 154.255 167.397C152.908 167.374 152.255 167.296 150.554 167.296C149.505 167.296 147.335 167.401 145.892 167.401C144.448 167.401 144.37 165.972 144.972 165.843C147.671 165.263 148.733 164.463 149.643 163.696C149.801 163.564 149.999 163.49 150.204 163.484Z" fill="#263238"/>
<path d="M150.089 155.893L150.209 160.008H153.657L153.538 155.893H150.089Z" fill="#CE6F64"/>
<path d="M168.315 155.893H164.866L165.441 160.008H168.885L168.315 155.893Z" fill="#CE6F64"/>
<path d="M155.46 53.111C155.694 56.5225 155.864 57.9616 154.384 59.9248C152.154 62.872 147.915 62.4168 146.664 59.1432C145.538 56.1961 145.345 51.1156 148.48 49.3317C149.17 48.9363 149.949 48.7238 150.744 48.7142C151.539 48.7046 152.324 48.8983 153.023 49.2769C153.722 49.6555 154.313 50.2064 154.739 50.8774C155.166 51.5484 155.414 52.3173 155.46 53.111Z" fill="#E4897B"/>
<path d="M157.446 56.2789C159.358 57.3456 160.779 54.7157 160.779 54.7157C160.779 54.7157 157.349 55.0881 157.657 53.0467C158.062 50.3387 156.122 47.0467 151.257 47.4697C150.986 47.4927 150.728 47.5249 150.476 47.5662C149.966 47.3248 149.39 47.2625 148.841 47.3894C148.292 47.5162 147.802 47.8248 147.45 48.2651C146.071 48.38 144.209 50.026 145.473 52.2007C145.562 51.9509 145.699 51.7211 145.878 51.5249C145.984 52.7985 147.096 54.8215 148.485 54.9548C148.784 56.6973 147.625 58.7157 148.025 60.5364C148.618 63.1617 153.046 63.7549 153.046 63.7549C152.893 63.427 152.836 63.0627 152.882 62.7039C152.927 62.3451 153.073 62.0065 153.303 61.7272C156.31 63.1066 158.292 61.7594 158.292 61.7594C156.241 60.9962 156.862 59.6353 156.862 59.6353C157.57 59.9497 158.372 59.9773 159.1 59.7123C159.828 59.4474 160.425 58.9105 160.765 58.2146C160.084 58.2469 159.408 58.0813 158.819 57.7379C158.23 57.3944 157.753 56.8877 157.446 56.2789Z" fill="#263238"/>
<path d="M149.685 55.4786C149.693 55.806 149.636 56.1318 149.518 56.4372C149.399 56.7426 149.222 57.0215 148.995 57.258C148.388 57.8878 147.643 57.4465 147.441 56.6419C147.262 55.9154 147.363 54.7154 148.154 54.3844C148.328 54.316 148.516 54.2922 148.702 54.3151C148.887 54.3381 149.064 54.4071 149.216 54.5158C149.369 54.6245 149.491 54.7696 149.573 54.9377C149.655 55.1059 149.693 55.2918 149.685 55.4786Z" fill="#E4897B"/>
<path d="M151.549 87.2631C151.549 87.2631 152.423 109.957 154.501 123.282C156.174 134.05 163.609 159.208 163.609 159.208H168.308C168.308 159.208 164.432 134.909 163.581 124.266C161.43 97.3275 167.016 91.5436 161.742 85.9343L151.549 87.2631Z" fill="#263238"/>
<path d="M156.476 94.4401C156.476 94.4401 154.351 94.0723 153.11 98.1183C153.57 105.783 154.356 115.953 155.501 123.282C155.754 124.914 156.14 126.882 156.614 129.038C155.717 116.091 156.476 94.4401 156.476 94.4401Z" fill="#161F33"/>
<path d="M148.885 87.7412C148.885 87.7412 145.014 112.849 145.239 123.355C145.473 134.284 149.478 159.218 149.478 159.218H154.135C154.135 159.218 153.4 134.932 153.809 124.201C154.269 112.5 159.046 86.4216 159.046 86.4216L148.885 87.7412Z" fill="#263238"/>
<path d="M169.988 159.429H163.74L163.253 157.333L169.942 157.378L169.988 159.429Z" fill="#0B777D"/>
<path opacity="0.2" d="M169.988 159.429H163.74L163.253 157.333L169.942 157.378L169.988 159.429Z" fill="black"/>
<path d="M162.508 64.8858C164.306 65.0605 167.037 70.1686 167.037 70.1686L162.499 73.6491C162.499 73.6491 158.742 70.3525 159.188 68.4996C159.653 66.5731 160.784 64.7248 162.508 64.8858Z" fill="#EC9308"/>
<path d="M161.152 67.0835C160.693 66.96 160.219 66.9073 159.745 66.9272C159.503 67.4299 159.317 67.957 159.188 68.4996C158.729 70.3387 162.499 73.6491 162.499 73.6491L162.834 73.3916L161.152 67.0835Z" fill="#0B777D"/>
<path opacity="0.3" d="M161.152 67.0835C160.693 66.96 160.219 66.9073 159.745 66.9272C159.503 67.4299 159.317 67.957 159.188 68.4996C158.729 70.3387 162.499 73.6491 162.499 73.6491L162.834 73.3916L161.152 67.0835Z" fill="black"/>
<path d="M147.345 71.9892C146.034 75.3042 144.655 78.6743 143.556 81.9985C143.482 82.21 143.423 82.4122 143.358 82.6191L143.202 83.1295C143.159 83.2798 143.159 83.439 143.202 83.5893C143.462 84.1641 143.873 84.657 144.393 85.0146C145.767 86.0009 147.265 86.8031 148.848 87.4008L148.434 89.0928C146.487 88.836 144.604 88.2219 142.88 87.2812C141.819 86.7145 140.955 85.8391 140.402 84.7709C140.084 84.0881 139.974 83.3272 140.085 82.5824C140.095 82.4912 140.111 82.4006 140.131 82.3111L140.177 82.118L140.255 81.7686C140.31 81.5341 140.365 81.3088 140.425 81.0789C140.885 79.2398 141.473 77.4927 142.094 75.7593C142.715 74.026 143.363 72.3156 144.094 70.6099L147.345 71.9892Z" fill="#E4897B"/>
<path d="M144.554 67.3363C144.554 67.3363 143 68.1225 148.885 87.741L162.761 85.9295C161.786 80.3111 161.326 76.8306 162.508 64.8857C160.518 64.7432 158.521 64.7432 156.531 64.8857C154.412 65.0089 152.306 65.2855 150.227 65.7133C147.565 66.3064 144.554 67.3363 144.554 67.3363Z" fill="#FAA31B"/>
<path d="M162.862 85.0884L163.657 86.2424C163.717 86.3344 163.616 86.4447 163.46 86.4677L148.908 88.3712C148.784 88.3712 148.669 88.339 148.65 88.2608L148.365 87.0332C148.342 86.9505 148.443 86.8631 148.581 86.8447L162.632 85.0056C162.674 84.9989 162.717 85.0029 162.758 85.0174C162.798 85.0319 162.834 85.0563 162.862 85.0884Z" fill="#7D8485"/>
<path d="M161.179 86.9045L161.556 86.8539C161.63 86.8539 161.68 86.7988 161.671 86.7528L161.285 85.162C161.27 85.1348 161.247 85.1136 161.218 85.1018C161.19 85.0901 161.158 85.0886 161.129 85.0976L160.751 85.1436C160.673 85.1436 160.623 85.1987 160.637 85.2493L161.023 86.8355C161.032 86.8861 161.106 86.9137 161.179 86.9045Z" fill="#263238"/>
<path d="M152.057 88.0813L152.434 88.0307C152.508 88.0307 152.563 87.9755 152.549 87.9296L152.163 86.3387C152.148 86.3119 152.124 86.2907 152.096 86.2782C152.068 86.2658 152.037 86.2628 152.007 86.2698L151.63 86.3204C151.556 86.3204 151.501 86.3755 151.515 86.4215L151.901 88.0123C151.91 88.0813 151.984 88.1089 152.057 88.0813Z" fill="#263238"/>
<path d="M145.202 73.994C145.584 75.7687 146.122 78.017 146.908 80.863L147.078 73.6492L145.202 73.994Z" fill="#0B777D"/>
<path opacity="0.3" d="M145.202 73.994C145.584 75.7687 146.122 78.017 146.908 80.863L147.078 73.6492L145.202 73.994Z" fill="black"/>
<path d="M144.554 67.3367C142.83 68.0309 141.335 73.9298 141.335 73.9298L147.266 76.8172C147.266 76.8172 150.131 69.6033 148.848 68.1964C147.565 66.7895 146.54 66.5413 144.554 67.3367Z" fill="#EC9308"/>
<path d="M154.931 159.429H148.682L148.195 157.333L155.151 157.378L154.931 159.429Z" fill="#0B777D"/>
<path opacity="0.2" d="M154.931 159.429H148.682L148.195 157.333L155.151 157.378L154.931 159.429Z" fill="black"/>
<path d="M148.944 86.8308L148.443 86.6239C148.32 86.5738 148.186 86.5572 148.054 86.5757C147.922 86.5943 147.798 86.6473 147.693 86.7295C147.589 86.8117 147.508 86.92 147.459 87.0436C147.41 87.1672 147.394 87.3015 147.413 87.4331L147.777 89.8285C147.794 89.9484 147.838 90.0629 147.905 90.1638C147.972 90.2647 148.061 90.3494 148.165 90.4119C148.268 90.4744 148.385 90.513 148.505 90.525C148.626 90.537 148.748 90.5221 148.862 90.4814C149.044 90.4152 149.215 90.3205 149.367 90.2009C149.534 90.063 149.665 89.888 149.752 89.69C149.838 89.4919 149.876 89.2764 149.864 89.0607L149.813 88.0676C149.805 87.7992 149.718 87.5393 149.563 87.3196C149.409 87.0999 149.194 86.93 148.944 86.8308Z" fill="#E4897B"/>
</svg>
