<svg width="246" height="183" viewBox="0 0 246 183" fill="none" xmlns="http://www.w3.org/2000/svg">
<path d="M245.943 160.732H0.757355V160.831H245.943V160.732Z" fill="#D3E2F4"/>
<path d="M211.47 167.156H197.544V167.303H211.47V167.156Z" fill="#D3E2F4"/>
<path d="M193.964 167.205H181.508V167.352H193.964V167.205Z" fill="#D3E2F4"/>
<path d="M136.443 164.361H119.673V164.459H136.443V164.361Z" fill="#D3E2F4"/>
<path d="M168.023 168.137H144.731V168.284H168.023V168.137Z" fill="#D3E2F4"/>
<path d="M70.7825 164.214H48.2744V164.361H70.7825V164.214Z" fill="#D3E2F4"/>
<path d="M81.1783 164.214H73.5285V164.361H81.1783V164.214Z" fill="#D3E2F4"/>
<path d="M51.1185 166.421H31.4055V166.568H51.1185V166.421Z" fill="#D3E2F4"/>
<path d="M116.975 138.862H22.2846C20.7645 138.862 19.4895 137.587 19.4895 136.067V2.97969C19.4895 1.45954 20.7645 0.18457 22.2846 0.18457H116.975C118.496 0.18457 119.771 1.45954 119.771 2.97969V136.067C119.771 137.587 118.545 138.862 116.975 138.862ZM22.2846 0.282645C20.8135 0.282645 19.5876 1.45954 19.5876 2.97969V136.067C19.5876 137.538 20.7645 138.764 22.2846 138.764H116.975C118.447 138.764 119.673 137.587 119.673 136.067V2.97969C119.673 1.50858 118.496 0.282645 116.975 0.282645H22.2846Z" fill="#D3E2F4"/>
<path d="M223.043 138.862H128.352C126.832 138.862 125.557 137.587 125.557 136.067V2.97969C125.557 1.45954 126.832 0.18457 128.352 0.18457H223.043C224.563 0.18457 225.838 1.45954 225.838 2.97969V136.067C225.838 137.587 224.612 138.862 223.043 138.862ZM128.352 0.282645C126.881 0.282645 125.655 1.45954 125.655 2.97969V136.067C125.655 137.538 126.832 138.764 128.352 138.764H223.043C224.514 138.764 225.74 137.587 225.74 136.067V2.97969C225.74 1.50858 224.563 0.282645 223.043 0.282645H128.352Z" fill="#D3E2F4"/>
<path d="M161.795 12.1006H35.7698V75.6528H161.795V12.1006Z" fill="#D3E2F4"/>
<path d="M163.414 12.1006H37.3881V75.6528H163.414V12.1006Z" fill="#F3F8FD"/>
<path d="M160.471 15.043H40.3303V72.6126H160.471V15.043Z" fill="#F5FBFE"/>
<path d="M49.2551 72.6126L81.8158 15.043H97.0663L64.5056 72.6126H49.2551Z" fill="white"/>
<path d="M69.6546 72.6126L102.215 15.043H117.466L84.9051 72.6126H69.6546Z" fill="white"/>
<path d="M112.072 72.6126L144.632 15.043H150.958L118.349 72.6126H112.072Z" fill="white"/>
<path d="M121.389 15.043H116.926V72.6126H121.389V15.043Z" fill="#D3E2F4"/>
<path d="M80.6389 15.043H76.1765V72.6126H80.6389V15.043Z" fill="#D3E2F4"/>
<path d="M122.958 12.8362H118.496V74.525H122.958V12.8362Z" fill="#F3F8FD"/>
<path d="M82.2081 12.8362H77.7457V74.525H82.2081V12.8362Z" fill="#F3F8FD"/>
<path d="M160.471 15.043H159.246V72.6126H160.471V15.043Z" fill="#D3E2F4"/>
<path d="M192.885 94.3851C192.885 94.3851 183.911 78.8894 196.367 66.532C196.367 66.532 199.603 68.6406 199.554 71.4847C199.505 74.3289 196.072 75.0645 196.808 77.4182C197.544 79.8211 200.78 82.1258 198.671 84.0873C196.563 86.0488 199.015 87.8141 198.868 90.217C198.77 92.7179 192.885 94.3851 192.885 94.3851Z" fill="#D3E2F4"/>
<path d="M194.307 96.886C194.307 96.886 197.936 79.3306 182.244 71.5828C182.244 71.5828 179.841 74.6231 180.773 77.3201C181.705 80.0172 185.186 79.6249 185.235 82.1258C185.284 84.6267 182.93 87.8631 185.578 89.04C188.226 90.2169 186.412 92.6688 187.344 94.9245C188.226 97.1802 194.307 96.886 194.307 96.886Z" fill="#E4EDF8"/>
<path d="M186.314 92.4724C186.314 92.4724 186.461 99.779 192.542 99.779C198.622 99.779 198.77 92.4724 198.77 92.4724H186.314Z" fill="#F3F8FD"/>
<path d="M144.338 94.0908C144.338 94.0908 144.534 99.7791 152.527 99.7791C160.521 99.7791 160.717 94.0908 160.717 94.0908H144.338Z" fill="#E4EDF8"/>
<path d="M162.776 95.4639C162.776 95.4639 162.923 99.7301 168.906 99.7301C174.888 99.7301 175.036 95.4639 175.036 95.4639H162.776Z" fill="#E4EDF8"/>
<path d="M149.928 103.31H136.541V157.055H149.928V103.31Z" fill="#E4EDF8"/>
<path d="M205.144 157.055H139.091V160.732H205.144V157.055Z" fill="#E4EDF8"/>
<path d="M207.743 103.31H149.928V157.055H207.743V103.31Z" fill="#F3F8FD"/>
<path d="M202.447 108.508H155.175V127.583H202.447V108.508Z" fill="#E4EDF8"/>
<path d="M202.447 131.065H155.175V150.14H202.447V131.065Z" fill="#E4EDF8"/>
<path d="M184.156 110.616H173.564C172.829 110.616 172.24 110.028 172.24 109.292C172.24 108.557 172.829 107.968 173.564 107.968H184.156C184.892 107.968 185.48 108.557 185.48 109.292C185.431 110.028 184.843 110.616 184.156 110.616Z" fill="#F3F8FD"/>
<path d="M184.156 133.124H173.564C172.829 133.124 172.24 132.536 172.24 131.8C172.24 131.065 172.829 130.476 173.564 130.476H184.156C184.892 130.476 185.48 131.065 185.48 131.8C185.431 132.536 184.843 133.124 184.156 133.124Z" fill="#F3F8FD"/>
<path d="M209.509 99.7791H149.928V103.359H209.509V99.7791Z" fill="#E4EDF8"/>
<path d="M149.879 99.7791H134.629V103.359H149.879V99.7791Z" fill="#D3E2F4"/>
<path d="M206.517 21.0254H177.487V54.4688H206.517V21.0254Z" fill="#E4EDF8"/>
<path d="M209.803 21.0254H178.37V54.4688H209.803V21.0254Z" fill="#F3F8FD"/>
<path d="M207.204 23.6733H181.018V51.8207H207.204V23.6733Z" fill="white"/>
<path d="M187.344 42.6998V32.7942C187.344 31.5193 188.374 30.4895 189.649 30.4895H198.524C199.799 30.4895 200.829 31.5193 200.829 32.7942V42.6998C200.829 43.9747 199.799 45.0045 198.524 45.0045H189.649C188.374 45.0045 187.344 43.9747 187.344 42.6998Z" fill="#F3F8FD"/>
<path d="M132.716 129.594H129.333V160.732H132.716V129.594Z" fill="#D3E2F4"/>
<g opacity="0.5">
<g opacity="0.5">
<path opacity="0.5" d="M132.716 129.594H131.049V160.732H132.716V129.594Z" fill="#F3F8FD"/>
</g>
</g>
<path d="M117.956 138.322H115.651C116.142 137.881 116.485 137.293 116.485 136.557H89.0243C89.0243 137.244 89.3185 137.881 89.8579 138.322H87.5532C85.8368 138.322 84.4638 139.696 84.4638 141.412V150.435C84.4638 152.151 85.8368 153.524 87.5532 153.524H117.956C119.673 153.524 121.046 152.151 121.046 150.435V141.412C121.046 139.696 119.673 138.322 117.956 138.322Z" fill="#F3F8FD"/>
<path d="M92.604 153.524H74.166C73.0382 153.524 72.1064 152.592 72.1064 151.464V147.1C72.1064 145.972 73.0382 145.041 74.166 145.041H92.604C93.7319 145.041 94.6636 145.972 94.6636 147.1V151.464C94.6636 152.592 93.7319 153.524 92.604 153.524Z" fill="#E4EDF8"/>
<path d="M93.977 145.286H72.793C72.4007 145.286 72.1064 144.991 72.1064 144.599V143.814C72.1064 143.422 72.4007 143.128 72.793 143.128H93.977C94.3693 143.128 94.6636 143.422 94.6636 143.814V144.599C94.6636 144.991 94.3693 145.286 93.977 145.286Z" fill="#D3E2F4"/>
<path d="M96.7721 115.716C96.7721 115.716 97.0663 126.014 109.129 126.014C121.193 126.014 121.487 115.716 121.487 115.716H96.7721Z" fill="#E4EDF8"/>
<path d="M53.6194 126.014H38.565V129.594H53.6194V126.014Z" fill="#D3E2F4"/>
<path d="M144.387 126.014H53.6194V129.594H144.387V126.014Z" fill="#F3F8FD"/>
<path d="M53.6194 153.524H38.565V157.104H53.6194V153.524Z" fill="#D3E2F4"/>
<path d="M41.9486 129.594H38.565V160.732H41.9486V129.594Z" fill="#D3E2F4"/>
<g opacity="0.5">
<g opacity="0.5">
<path opacity="0.5" d="M41.9485 129.594H40.2813V160.732H41.9485V129.594Z" fill="#F3F8FD"/>
</g>
</g>
<path d="M55.3357 129.594H51.9521V160.732H55.3357V129.594Z" fill="#F3F8FD"/>
<path d="M53.6194 129.594H51.9521V160.732H53.6194V129.594Z" fill="#D3E2F4"/>
<path d="M144.387 129.594H141.004V160.732H144.387V129.594Z" fill="#F3F8FD"/>
<path d="M142.671 129.594H141.004V160.732H142.671V129.594Z" fill="#D3E2F4"/>
<path d="M144.387 153.524H53.6194V157.104H144.387V153.524Z" fill="#F3F8FD"/>
<path d="M77.7948 123.856H59.5039V125.965H77.7948V123.856Z" fill="#D3E2F4"/>
<path d="M84.4148 123.856H77.8438V125.965H84.4148V123.856Z" fill="#E4EDF8"/>
<path d="M218.433 177.307C218.433 180.396 175.869 182.848 123.35 182.848C70.8315 182.848 28.2672 180.347 28.2672 177.307C28.2672 174.217 70.8315 171.766 123.35 171.766C175.869 171.766 218.433 174.267 218.433 177.307Z" fill="#F1F6FC"/>
<path d="M107.609 47.1132C107.658 52.9486 103.49 52.8506 103.539 51.0362C103.637 49.2218 102.608 44.9065 103.539 45.3479C104.471 45.7402 107.56 44.5633 107.609 47.1132Z" fill="#13274B"/>
<path d="M104.961 57.6561C105.55 57.6071 106.678 58.1465 106.776 59.6666C106.874 61.1868 108.051 61.8733 108.051 61.8733C108.051 61.8733 106.138 62.1185 104.912 61.1378C103.883 60.3532 103.441 58.5878 103.981 58.1955C104.52 57.8032 104.961 57.6561 104.961 57.6561Z" fill="#13274B"/>
<path d="M104.226 53.488C105.207 54.3707 106.089 56.6264 103.883 57.7543C101.676 58.8331 98.1942 56.3322 98.1942 56.3322L102.019 54.5669L104.226 53.488Z" fill="#13274B"/>
<path d="M105.305 57.8522C105.256 57.558 105.158 57.1657 105.059 56.9205C105.01 56.8225 104.863 56.7734 104.765 56.8225L103.392 57.7051C103.294 57.8032 103.294 57.9503 103.392 58.0484C103.539 58.1465 103.785 58.3426 104.03 58.3916C104.324 58.5388 104.961 58.1465 105.256 57.9994C105.305 57.9994 105.305 57.9013 105.305 57.8522Z" fill="#325BA9"/>
<path d="M90.6916 55.4495C90.1521 55.2533 88.8772 55.4985 88.4358 56.9697C87.9945 58.4408 86.6705 58.784 86.6705 58.784C86.6705 58.784 88.4849 59.4705 89.907 58.784C91.0839 58.2446 91.9175 56.6264 91.5252 56.136C91.1329 55.6456 90.6916 55.4495 90.6916 55.4495Z" fill="#13274B"/>
<path d="M96.0856 45.446C94.0751 45.9855 91.4271 48.3392 92.604 51.2324C91.4271 52.017 89.956 54.3218 91.6723 55.7929C93.5357 57.3621 98.1942 55.1554 98.1942 55.1554L98.2433 54.4199L98.7827 48.7806L96.0856 45.446Z" fill="#13274B"/>
<path d="M90.2993 55.5476C90.3973 55.2533 90.6425 54.9101 90.7896 54.7139C90.8877 54.6159 91.0348 54.6159 91.0838 54.7139L92.1627 55.9399C92.2607 56.0379 92.2117 56.2341 92.1136 56.2831C91.9175 56.3812 91.6723 56.4302 91.4271 56.4793C91.0838 56.5283 90.5444 56.0379 90.3483 55.7928C90.2993 55.6947 90.2993 55.6456 90.2993 55.5476Z" fill="#325BA9"/>
<path d="M108.198 65.9434C109.13 66.6789 110.159 67.4635 111.189 68.15C112.219 68.8856 113.249 69.5721 114.327 70.2096C115.406 70.8471 116.485 71.4846 117.564 72.073L118.398 72.5143L119.231 72.9066C119.525 73.0538 119.771 73.1518 120.065 73.2499L120.506 73.397C120.653 73.4461 120.8 73.4951 120.898 73.5441C121.34 73.6912 121.879 73.7893 122.468 73.8874C123.056 73.9855 123.645 74.0345 124.282 74.0835C125.508 74.1816 126.783 74.1816 128.058 74.1816C129.333 74.1816 130.608 74.1816 131.883 74.1326C133.158 74.1326 134.433 74.0835 135.708 74.0345L135.953 75.9469C133.354 76.4864 130.804 76.8296 128.156 77.1238C126.832 77.2219 125.508 77.32 124.184 77.32C123.497 77.32 122.811 77.32 122.124 77.271C121.438 77.2219 120.702 77.1238 119.869 76.8787C119.624 76.8296 119.476 76.7806 119.329 76.6825L118.839 76.5354C118.496 76.4373 118.201 76.2902 117.858 76.1921L116.926 75.7998L115.995 75.4075C114.769 74.8191 113.543 74.2306 112.415 73.5441C111.238 72.8576 110.11 72.1711 109.031 71.3865C107.953 70.6019 106.874 69.8663 105.795 68.9346L108.198 65.9434Z" fill="#F58A7C"/>
<path d="M103.098 63.7367C104.324 62.805 109.326 65.8944 110.895 67.2184L109.767 73.9365C109.767 73.9365 102.559 70.8962 102.117 68.8366C101.627 66.679 102.166 64.4723 103.098 63.7367Z" fill="#14365B"/>
<path d="M135.119 74.1817L138.16 71.8279L138.405 75.4566C138.405 75.4566 136.296 76.7316 134.923 75.947L135.119 74.1817Z" fill="#F58A7C"/>
<path d="M140.857 71.4846L142.426 73.2009L138.356 75.4566L138.111 71.8279L140.857 71.4846Z" fill="#F58A7C"/>
<path d="M83.287 172.55L87.1119 172.796L88.4849 164.018L84.66 163.724L83.287 172.55Z" fill="#F58A7C"/>
<path d="M56.2674 160.242L59.5039 162.302L65.2903 155.437L62.0048 153.377L56.2674 160.242Z" fill="#F58A7C"/>
<path d="M60.5337 161.566L57.4934 158.526C57.3953 158.428 57.1992 158.379 57.1011 158.477L54.355 160.536C54.0608 160.733 54.0608 161.223 54.306 161.468C55.3848 162.498 55.9732 162.988 57.2972 164.312C58.1309 165.146 59.2097 166.421 60.3866 167.549C61.5144 168.677 62.6913 167.647 62.3481 167.058C60.6808 164.459 60.975 163.528 60.8769 162.204C60.7789 161.958 60.6808 161.713 60.5337 161.566Z" fill="#14365B"/>
<path d="M87.357 172.256H83.0417C82.8946 172.256 82.7475 172.354 82.6985 172.501L82.012 175.885C81.9629 176.228 82.2081 176.571 82.6004 176.571C84.1206 176.522 84.8071 176.473 86.7195 176.473C87.8964 176.473 91.1329 176.571 92.7511 176.571C94.3203 176.571 94.5164 175.002 93.879 174.855C90.9367 174.218 88.9262 173.335 87.9455 172.452C87.7983 172.354 87.6022 172.256 87.357 172.256Z" fill="#14365B"/>
<path d="M88.4849 164.018L87.7003 168.922L83.9734 168.284L84.66 163.724L88.4849 164.018Z" fill="#EA6F63"/>
<path d="M62.0048 153.377L65.2903 155.437L62.8875 158.281L59.553 156.319L62.0048 153.377Z" fill="#EA6F63"/>
<path d="M86.1801 84.0874C89.1223 84.6758 95.3991 85.9017 101.431 87.0786C109.326 65.6984 107.609 65.0119 107.609 65.0119C107.609 65.0119 106.089 64.1292 104.177 63.3937C104.079 63.3446 104.03 63.3446 103.981 63.2956C103 62.9523 102.804 62.9033 101.48 62.511C99.224 61.9716 97.1645 61.5303 94.5655 61.138C94.4184 61.138 94.2222 61.0889 94.0751 61.0889C93.5847 61.0399 93.1434 60.9908 92.7021 60.9418C92.4078 60.8928 92.1136 60.8928 91.8194 60.8437C91.4761 60.8437 91.1329 60.7947 90.8386 60.7947C89.1714 60.6966 87.9455 60.7457 87.9455 60.7457C88.3868 74.0838 87.6512 77.9577 86.1801 84.0874Z" fill="#14365B"/>
<path d="M96.7722 53.488C96.7722 55.7928 96.429 59.9609 94.5656 61.1869C94.5656 61.1869 94.7127 63.5897 98.8808 64.3743C103.441 65.257 101.48 62.5599 101.48 62.5599C99.126 61.4811 99.5183 59.6667 100.303 57.9995L96.7722 53.488Z" fill="#F58A7C"/>
<path d="M98.2433 55.3513L100.352 57.9993C100.156 58.3916 100.009 58.7839 99.9106 59.1762C98.9789 58.833 97.9001 57.558 97.9981 56.5282C97.9981 56.0378 98.0962 55.5475 98.2433 55.3513Z" fill="#EA6F63"/>
<path d="M96.576 48.1919C96.0856 51.9678 95.7914 53.537 97.3116 55.8417C99.5673 59.2743 104.324 59.0782 105.942 55.4985C107.413 52.311 107.953 46.6718 104.618 44.4651C101.235 42.3075 97.0664 44.416 96.576 48.1919Z" fill="#F58A7C"/>
<path d="M108.835 42.2096C108.884 42.9451 108.835 43.5336 108.688 43.9749C108.639 43.7788 108.59 43.5826 108.541 43.3865C107.217 38.9241 101.137 40.0029 99.3221 41.9153C96.3799 41.0817 93.5848 41.7682 93.9771 45.3479C94.1242 46.5739 94.4675 47.3585 94.9578 47.8979C94.5165 49.1728 94.9578 51.1834 96.478 51.2324C98.5866 51.3305 100.597 48.5354 101.431 46.9662C102.853 47.2114 105.01 47.4565 106.629 47.0642C106.923 47.2114 107.119 47.3585 107.119 47.3585C108.786 46.4758 110.061 45.5931 108.835 42.2096Z" fill="#13274B"/>
<path d="M95.252 50.7418C95.154 51.5264 95.4972 52.2619 95.8895 52.7523C96.527 53.4879 97.3606 53.0465 97.6549 52.1638C97.9 51.3793 97.851 50.0552 97.0174 49.6139C96.1837 49.2707 95.3501 49.8591 95.252 50.7418Z" fill="#F58A7C"/>
<path d="M101.235 87.0785C101.235 87.0785 101.284 117.383 98.8317 128.809C96.2327 140.676 88.681 167.696 88.681 167.696L83.1888 166.96C83.1888 166.96 87.5041 139.646 89.3185 127.877C91.329 115.03 90.1031 84.8718 90.1031 84.8718L101.235 87.0785Z" fill="#325BA9"/>
<path d="M89.5637 168.186L82.2081 167.205L82.5023 164.606L90.8877 165.587L89.5637 168.186Z" fill="#14365B"/>
<path d="M97.4097 86.2938C97.4097 86.2938 89.1714 111.352 85.1014 125.769C80.7861 140.97 64.3096 157.839 64.3096 157.839L59.553 155.093C59.553 155.093 70.8315 139.107 74.9997 124.886C83.4341 96.0522 79.9525 89.9226 86.1802 84.0872L97.4097 86.2938Z" fill="#325BA9"/>
<path d="M65.0941 158.624L58.4741 154.799L60.1414 152.445L67.4479 156.466L65.0941 158.624Z" fill="#14365B"/>
<path d="M102.019 50.3497C101.97 50.6439 102.068 50.9381 102.264 50.9872C102.46 51.0362 102.657 50.791 102.706 50.4968C102.755 50.2026 102.657 49.9083 102.46 49.8593C102.264 49.8103 102.068 50.0555 102.019 50.3497Z" fill="#13274B"/>
<path d="M105.452 50.9872C105.403 51.2814 105.501 51.5756 105.697 51.6247C105.893 51.6737 106.089 51.4285 106.138 51.1343C106.187 50.8401 106.089 50.5459 105.893 50.4968C105.697 50.4968 105.501 50.693 105.452 50.9872Z" fill="#13274B"/>
<path d="M105.795 50.5457L106.58 50.4967C106.58 50.4476 106.089 50.938 105.795 50.5457Z" fill="#13274B"/>
<path d="M104.422 51.3303C104.422 51.3303 104.667 52.7524 105.109 53.488C104.618 53.7822 103.981 53.488 103.981 53.488L104.422 51.3303Z" fill="#F15855"/>
<path d="M102.706 54.4689C101.284 54.1747 100.793 53.0958 100.793 53.0468C100.793 52.9978 100.793 52.9487 100.842 52.9487C100.891 52.9487 100.94 52.9487 100.94 52.9978C100.94 52.9978 101.382 54.0766 102.706 54.3218C102.755 54.3218 102.804 54.3708 102.755 54.4198C102.804 54.4198 102.755 54.4689 102.706 54.4689Z" fill="#13274B"/>
<path d="M101.235 49.0257C101.186 49.0257 101.136 49.0257 101.087 48.9766C101.038 48.8786 101.038 48.7805 101.087 48.7315C101.823 48.0449 102.657 48.2901 102.657 48.2901C102.755 48.3392 102.804 48.4372 102.804 48.5353C102.755 48.6334 102.657 48.6824 102.559 48.6824C102.51 48.6824 101.921 48.5353 101.284 49.0747C101.284 49.0257 101.284 49.0257 101.235 49.0257Z" fill="#13274B"/>
<path d="M107.315 49.7122C107.266 49.7122 107.168 49.6632 107.168 49.6141C106.874 48.8786 106.187 48.7314 106.187 48.7314C106.089 48.7314 106.04 48.6334 106.04 48.5353C106.04 48.4372 106.138 48.3882 106.236 48.3882C106.285 48.3882 107.07 48.5353 107.462 49.467C107.511 49.5651 107.462 49.6631 107.364 49.7122C107.364 49.7122 107.364 49.7122 107.315 49.7122Z" fill="#13274B"/>
<path d="M102.411 53.0467C102.117 53.0467 101.823 52.8996 101.627 52.6545C101.186 52.1641 101.038 51.2324 101.235 50.2026C101.529 48.6334 102.51 47.4075 103.392 47.4075C103.686 47.4075 103.981 47.5546 104.177 47.7998C104.618 48.2901 104.765 49.2218 104.569 50.2516C104.324 51.7718 103.343 53.0467 102.411 53.0467ZM103.392 47.5055C102.51 47.5055 101.627 48.7315 101.333 50.2026C101.137 51.1833 101.284 52.066 101.676 52.5564C101.872 52.8016 102.117 52.8996 102.362 52.8996C103.245 52.8996 104.128 51.6737 104.422 50.2026H104.471H104.422C104.618 49.2218 104.471 48.3392 104.079 47.8488C103.932 47.6527 103.686 47.5055 103.392 47.5055Z" fill="#DDE8F6"/>
<path d="M106.236 53.537C106.236 53.537 106.187 53.537 106.236 53.537C105.893 53.537 105.599 53.3899 105.403 53.1447C105.01 52.6543 104.863 51.8207 105.01 50.889C105.256 49.4669 106.187 48.29 107.119 48.29C107.413 48.29 107.707 48.4371 107.953 48.6823C108.345 49.1727 108.492 50.0063 108.345 50.938C108.051 52.3601 107.119 53.537 106.236 53.537ZM107.07 48.3391C106.236 48.3391 105.354 49.4669 105.108 50.84C104.961 51.7226 105.108 52.5563 105.501 52.9976C105.697 53.2428 105.942 53.3409 106.236 53.3899C107.07 53.3899 107.953 52.262 108.198 50.889C108.345 50.0063 108.198 49.1727 107.805 48.7314C107.658 48.4862 107.364 48.3391 107.07 48.3391C107.119 48.3391 107.119 48.3391 107.07 48.3391Z" fill="#DDE8F6"/>
<path d="M61.6615 163.331C61.6615 163.331 61.6125 163.331 61.6615 163.331C61.1711 163.282 60.6317 162.596 60.3865 162.154C60.3865 162.105 60.3865 162.105 60.3865 162.056C60.3865 162.007 60.4356 162.007 60.4846 162.007C60.6317 162.056 62.0048 162.351 62.1519 162.792C62.2009 162.841 62.2009 162.988 62.1028 163.086C61.9557 163.282 61.8086 163.331 61.6615 163.331ZM60.6317 162.253C61.024 162.841 61.3673 163.135 61.6615 163.184C61.7596 163.184 61.8577 163.135 61.9557 163.037C62.0048 162.988 62.0048 162.939 62.0048 162.89C61.8577 162.596 61.1711 162.351 60.6317 162.253Z" fill="#325BA9"/>
<path d="M60.8279 162.252C60.6317 162.252 60.4846 162.252 60.3866 162.203C60.3375 162.203 60.3375 162.154 60.3375 162.154C60.3375 162.105 60.3375 162.105 60.3375 162.056C60.3866 162.007 61.1221 161.272 61.6615 161.272H61.7106C61.8577 161.272 61.9558 161.321 62.0538 161.468C62.2009 161.664 62.1519 161.811 62.1029 161.86C61.9558 162.105 61.3183 162.252 60.8279 162.252ZM60.6317 162.056C61.0731 162.105 61.8577 161.958 62.0048 161.762C62.0538 161.713 62.0538 161.664 61.9558 161.566C61.9067 161.517 61.8086 161.468 61.7106 161.468C61.4163 161.419 60.8769 161.811 60.6317 162.056Z" fill="#325BA9"/>
<path d="M88.7791 172.943C88.3378 172.943 87.8964 172.894 87.6022 172.796C87.5532 172.796 87.5532 172.747 87.5532 172.697C87.5532 172.648 87.5532 172.599 87.6022 172.599C87.7984 172.501 89.3675 171.717 89.8089 172.011C89.907 172.06 89.956 172.158 89.956 172.256C89.956 172.452 89.9069 172.599 89.7598 172.697C89.4656 172.894 89.1224 172.943 88.7791 172.943ZM87.8474 172.697C88.681 172.845 89.3185 172.796 89.5637 172.599C89.6618 172.501 89.7108 172.452 89.7108 172.305C89.7108 172.256 89.6618 172.207 89.6618 172.207C89.4166 172.06 88.5339 172.354 87.8474 172.697Z" fill="#325BA9"/>
<path d="M87.5532 172.795H87.5042C87.4551 172.795 87.4551 172.746 87.4551 172.697C87.4551 172.648 87.7003 171.079 88.534 171.079H88.583C88.8282 171.128 88.8772 171.226 88.9263 171.324C89.0243 171.766 88.0926 172.599 87.5532 172.795C87.6022 172.795 87.6022 172.795 87.5532 172.795ZM88.583 171.275C88.0436 171.275 87.7984 172.158 87.7003 172.55C88.1907 172.256 88.8282 171.619 88.7791 171.373C88.7791 171.373 88.7791 171.275 88.632 171.275H88.583Z" fill="#325BA9"/>
<path d="M102.362 49.8593L103.147 49.8103C103.147 49.8103 102.657 50.3007 102.362 49.8593Z" fill="#13274B"/>
<path d="M99.0278 67.6108C92.653 65.208 90.6425 61.5793 90.7896 60.7947C91.0838 60.7947 91.4271 60.8437 91.7703 60.8437C91.8194 60.8437 91.8684 60.8437 91.9175 60.8437C92.1626 60.8437 92.4078 60.8928 92.653 60.8928C93.0943 60.9418 93.5847 60.9908 94.0261 61.0399C94.1732 61.0399 94.3693 61.0889 94.5164 61.0889C97.1154 61.4812 99.224 61.7754 101.431 62.4619C102.46 62.7562 102.804 62.8542 103.392 63.0504C103.539 63.0994 103.686 63.1485 103.932 63.2465C103.981 63.2956 104.079 63.2956 104.128 63.3446C104.667 64.4725 104.569 66.7282 99.0278 67.6108Z" fill="#F58A7C"/>
<path d="M99.0278 67.6108C92.653 65.208 90.6425 61.5793 90.7896 60.7947C91.0838 60.7947 91.4271 60.8437 91.7703 60.8437C91.8194 60.8437 91.8684 60.8437 91.9175 60.8437C93.1924 62.7071 96.0366 65.208 98.9298 65.5513C101.235 65.0609 103.441 64.5215 103.441 63.0504C103.588 63.0994 103.735 63.1485 103.981 63.2465C104.03 63.2956 104.128 63.2956 104.177 63.3446C104.667 64.4725 104.569 66.7282 99.0278 67.6108Z" fill="#325BA9"/>
<path d="M86.1311 83.1555L85.1994 84.3815C85.1013 84.4795 85.2484 84.6266 85.3955 84.6266L101.431 87.765C101.578 87.8141 101.676 87.765 101.725 87.6669L102.117 86.3429C102.166 86.2449 102.019 86.1468 101.872 86.0978L86.4253 83.1065C86.2782 83.0575 86.1801 83.1065 86.1311 83.1555Z" fill="#14365B"/>
<path d="M87.8474 85.3131L87.4551 85.215C87.3571 85.215 87.308 85.166 87.3571 85.1169L87.8965 83.4006C87.8965 83.3516 87.9946 83.3026 88.0926 83.3516L88.4849 83.4497C88.583 83.4497 88.632 83.4987 88.583 83.5478L88.0436 85.2641C88.0436 85.2641 87.9455 85.3131 87.8474 85.3131Z" fill="#325BA9"/>
<path d="M88.9753 66.679C88.7791 67.8558 88.632 69.1308 88.4849 70.3567C88.3378 71.5827 88.2397 72.8086 88.1907 74.0836C88.1417 74.7211 88.1417 75.3095 88.1417 75.947C88.1417 76.5845 88.1417 77.1729 88.1417 77.8104C88.1417 79.0363 88.2888 80.2623 88.4359 81.3901C88.4849 81.6353 88.632 82.0766 88.9263 82.518C89.1714 82.9593 89.5147 83.4497 89.907 83.891C90.6426 84.7737 91.5252 85.7054 92.4079 86.539C93.2906 87.4217 94.2223 88.2553 95.203 89.0399C96.1347 89.8736 97.1645 90.6581 98.1453 91.4427L97.1155 93.061C94.8107 91.786 92.6531 90.3639 90.4954 88.7457C89.4657 87.9121 88.4359 87.0784 87.4551 86.0487C86.9648 85.5583 86.5234 85.0189 86.0821 84.3814C85.6408 83.7439 85.2485 83.0574 85.0033 82.0276L84.8071 80.9978C84.7581 80.6546 84.7091 80.3113 84.66 79.968C84.5619 79.2815 84.5129 78.644 84.4639 77.9575C84.3658 76.6335 84.3168 75.2605 84.3658 73.9365C84.4148 72.6125 84.4639 71.2885 84.611 69.9644C84.7581 68.6404 84.9052 67.3655 85.1994 65.9924L88.9753 66.679Z" fill="#F58A7C"/>
<path d="M85.6897 61.7752C83.5811 63.4915 84.0715 68.4933 84.0715 68.4933L91.1329 70.798C91.1329 70.798 90.7896 65.0116 90.4464 62.903C90.0541 60.4512 87.7493 60.1079 85.6897 61.7752Z" fill="#14365B"/>
<path d="M97.2625 91.0995L100.45 89.9226L99.9596 92.9629C99.9596 92.9629 97.6548 93.7965 96.4779 92.7177L97.2625 91.0995Z" fill="#F58A7C"/>
<path d="M104.226 90.3639V92.6687L99.9596 92.9138L100.45 89.8735L104.226 90.3639Z" fill="#F58A7C"/>
<path d="M100.205 87.7159L99.8125 87.6179C99.7144 87.6179 99.6654 87.5688 99.7144 87.5198L100.254 85.8035C100.254 85.7544 100.352 85.7054 100.45 85.7544L100.842 85.8525C100.94 85.8525 100.989 85.9016 100.94 85.9506L100.401 87.6669C100.352 87.6669 100.303 87.7159 100.205 87.7159Z" fill="#325BA9"/>
<path d="M94.0261 86.4901L93.6338 86.392C93.5357 86.392 93.4866 86.343 93.5357 86.294L94.0751 84.5777C94.0751 84.5286 94.1732 84.4796 94.2712 84.5286L94.6635 84.6267C94.7616 84.6267 94.8107 84.6757 94.7616 84.7248L94.2222 86.4411C94.1732 86.4901 94.1241 86.4901 94.0261 86.4901Z" fill="#325BA9"/>
<path d="M62.7894 115.079L88.1906 170.589C89.4166 173.188 92.5059 174.365 95.1539 173.188L99.175 171.324L192.64 128.564C195.239 127.338 196.416 124.249 195.239 121.601L172.78 72.5634L169.838 66.0905C168.612 63.4915 165.522 62.3146 162.874 63.4915L65.3883 108.115C62.7894 109.341 61.6125 112.48 62.7894 115.079Z" fill="#444949"/>
<path d="M85.6954 164.973L192.698 115.979L180.164 88.6036L73.1611 137.598L85.6954 164.973Z" fill="#118989"/>
<path d="M112.584 142.041L180.219 111.073L175.728 101.264L108.093 132.233L112.584 142.041Z" fill="#DDE8F6"/>
<path d="M75.56 142.84L182.563 93.8464L175.888 79.2673L68.8846 128.261L75.56 142.84Z" fill="#D1D3D4"/>
<path d="M77.3534 115.765L99.224 171.324L192.689 128.564C195.288 127.338 196.465 124.249 195.288 121.601L172.829 72.5635L80.3447 108.998C77.5986 110.028 76.2746 113.117 77.3534 115.765Z" fill="#0D777D"/>
<path d="M83.8263 109.145L184.99 73.6423C187.736 72.7106 190.727 74.1327 191.659 76.8297L211.911 134.448C212.843 137.194 211.421 140.186 208.724 141.117L107.56 176.62C104.814 177.552 101.823 176.13 100.891 173.433L80.6389 115.814C79.6582 113.117 81.1293 110.126 83.8263 109.145Z" fill="#383F3F"/>
<path d="M97.1896 162.934L208.229 123.943L199.424 98.8666L88.3842 137.857L97.1896 162.934Z" fill="#0D777D"/>
<path d="M164.445 98.329L187.393 90.2686L186.142 86.706L163.194 94.7665L164.445 98.329Z" fill="#DDE8F6"/>
<path d="M183.781 138.86L202.196 132.394L201.546 130.543L183.132 137.009L183.781 138.86Z" fill="#DDE8F6"/>
<path d="M179.698 144.316L203.433 135.979L202.783 134.128L179.048 142.465L179.698 144.316Z" fill="#DDE8F6"/>
<path d="M107.669 169.606L119.56 165.429L118.146 161.404L106.255 165.581L107.669 169.606Z" fill="#DDE8F6"/>
<path d="M181.607 126.946L195.484 122.091C197.004 121.552 197.789 119.884 197.298 118.364C196.759 116.844 195.092 116.059 193.572 116.55L179.694 121.405C178.174 121.944 177.389 123.611 177.88 125.131C178.419 126.701 180.086 127.485 181.607 126.946Z" fill="#DDE8F6"/>
<path d="M157.873 135.282L171.75 130.427C173.27 129.888 174.055 128.221 173.564 126.701C173.025 125.18 171.358 124.396 169.838 124.886L155.96 129.741C154.44 130.28 153.655 131.948 154.146 133.468C154.685 135.037 156.352 135.822 157.873 135.282Z" fill="#DDE8F6"/>
<path d="M134.139 143.618L148.016 138.764C149.536 138.224 150.321 136.557 149.83 135.037C149.291 133.517 147.624 132.732 146.104 133.222L132.226 138.077C130.706 138.617 129.921 140.284 130.412 141.804C130.951 143.373 132.618 144.158 134.139 143.618Z" fill="#DDE8F6"/>
<path d="M110.405 151.955L124.282 147.1C125.802 146.561 126.587 144.893 126.096 143.373C125.557 141.853 123.89 141.069 122.37 141.559L108.492 146.414C106.972 146.953 106.187 148.62 106.678 150.14C107.217 151.71 108.884 152.494 110.405 151.955Z" fill="#DDE8F6"/>
<path d="M180.381 115.814L192.689 111.499C193.719 111.107 194.307 109.979 193.915 108.949L191.365 101.643C190.973 100.613 189.845 100.024 188.815 100.417L176.507 104.732C175.477 105.124 174.888 106.252 175.281 107.282L177.831 114.588C178.174 115.618 179.302 116.158 180.381 115.814Z" fill="white"/>
<path d="M107.658 123.366C106.629 123.366 105.55 123.121 104.569 122.679C102.853 121.846 101.578 120.424 100.94 118.658C100.303 116.893 100.401 114.932 101.235 113.215C102.068 111.499 103.49 110.224 105.256 109.586C107.021 108.949 108.982 109.047 110.699 109.881C112.415 110.714 113.69 112.136 114.327 113.902C114.965 115.667 114.867 117.629 114.033 119.345C113.2 121.061 111.778 122.336 110.012 122.974C109.277 123.219 108.443 123.366 107.658 123.366ZM107.658 109.636C106.923 109.636 106.187 109.783 105.452 110.028C103.784 110.616 102.411 111.842 101.676 113.411C100.891 115.03 100.793 116.844 101.382 118.511C101.97 120.179 103.196 121.552 104.765 122.287C106.383 123.072 108.198 123.17 109.865 122.581C111.532 121.993 112.905 120.767 113.641 119.198C114.426 117.58 114.524 115.765 113.935 114.098C113.347 112.431 112.121 111.058 110.552 110.322C109.669 109.832 108.688 109.636 107.658 109.636Z" fill="#DDE8F6"/>
<path d="M91.0348 122.14C92.3098 125.72 96.2327 127.583 99.8125 126.357C103.392 125.082 105.256 121.159 104.03 117.58C102.755 114 98.8317 112.137 95.252 113.362C91.6723 114.637 89.7598 118.56 91.0348 122.14Z" fill="#DDE8F6"/>
</svg>
